<?xml version="1.0" encoding="utf-8"?>
<!-- Generator: Adobe Illustrator 24.0.0, SVG Export Plug-In . SVG Version: 6.00 Build 0)  -->
<svg version="1.1" id="图层_1" xmlns="http://www.w3.org/2000/svg" xmlns:xlink="http://www.w3.org/1999/xlink" x="0px" y="0px"
	 viewBox="0 0 708.66 708.66" style="enable-background:new 0 0 708.66 708.66;" xml:space="preserve">
<style type="text/css">
	.st0{fill:#DCDBDD;}
	.st1{fill:#2EA7E0;}
	.st2{opacity:0.65;fill:#A8A8A8;}
	.st3{fill:#919A9A;}
	.st4{fill:#C0B5A9;}
	.st5{fill:#A8C9C9;}
	.st6{fill:#CD4327;}
	.st7{fill:#9DB445;}
	.st8{fill:#CBC438;}
	.st9{fill:#E695A8;}
	.st10{fill:#A45C23;}
	.st11{fill:#A39A28;}
	.st12{fill:#7F9235;}
	.st13{fill:#B96B7F;}
	.st14{fill:#A89F2E;}
	.st15{fill:#ACA330;}
	.st16{fill:#894723;}
	.st17{fill:#804221;}
	.st18{fill:#829536;}
	.st19{fill:#A73224;}
	.st20{fill:#FEFFFF;}
	.st21{opacity:0.24;fill:#68C7F0;}
	.st22{fill:#EDB38C;}
	.st23{fill:#B99226;}
	.st24{fill:#AB833A;}
	.st25{fill:#E5C1AA;}
	.st26{fill:#653F30;}
	.st27{fill:#452710;}
	.st28{fill:#8D6B27;}
	.st29{fill:#91452C;}
	.st30{fill:#895F4C;}
	.st31{fill:#74423D;}
	.st32{fill:#582D2B;}
	.st33{fill:#2C1D10;}
	.st34{fill:#BC5174;}
	.st35{fill:#B25050;}
	.st36{fill:#B57C51;}
	.st37{fill:#79519E;}
	.st38{fill:#4D64AD;}
	.st39{fill:#B0B453;}
	.st40{clip-path:url(#SVGID_2_);fill:#61372B;}
	.st41{fill:#854F23;}
	.st42{fill:#AA5E50;}
	.st43{fill:#3B64A0;}
	.st44{fill:#EAE8E8;}
	.st45{fill:#CE7861;}
	.st46{fill:#864137;}
	.st47{fill:#F8FCFD;}
	.st48{fill:#A34424;}
	.st49{fill:#BD8D7A;}
	.st50{fill:#2E5583;}
	.st51{fill:none;}
	.st52{fill:#8F483E;}
	.st53{fill:#8A3B38;}
	.st54{fill:#D18975;}
	.st55{fill:#C7922C;}
	.st56{fill:#976825;}
	.st57{fill:#C6C4C3;}
	.st58{fill:#4E4546;}
	.st59{fill:#794220;}
	.st60{fill:#68371B;}
	.st61{fill:#AD6230;}
	.st62{fill:#2C271C;}
	.st63{fill:#6F291A;}
	.st64{fill:#D76043;}
	.st65{fill:#FDECE8;}
	.st66{fill:#E6A89F;}
	.st67{fill:#8F6E27;}
	.st68{fill:#A16639;}
	.st69{fill:#FCE6E2;}
	.st70{fill:#893A3A;}
	.st71{fill:#D0847D;}
	.st72{fill:#BF6F65;}
	.st73{fill:#432812;}
	.st74{fill:#9F5B58;}
	.st75{fill:#D8D873;}
	.st76{fill:#934061;}
	.st77{fill:#32497F;}
	.st78{fill:#8F6CAD;}
	.st79{fill:#E38483;}
	.st80{fill:#893839;}
	.st81{fill:#A07024;}
	.st82{fill:#1B3B59;}
	.st83{fill:#285273;}
	.st84{fill:#71A960;}
	.st85{fill:#6D4120;}
	.st86{fill:#A4482C;}
	.st87{fill:#CA9B8B;}
	.st88{fill:#954223;}
	.st89{fill:#252014;}
	.st90{fill:#2C2619;}
	.st91{fill:#4B170E;}
	.st92{fill:#E1427D;}
	.st93{fill:#4B2725;}
	.st94{opacity:0.47;fill:#582D2B;}
	.st95{fill:#61451F;}
	.st96{fill:#581D1A;}
	.st97{fill:#E7BB88;}
	.st98{fill:#CBA64A;}
	.st99{fill:#853A7B;}
	.st100{fill:#2A1525;}
	.st101{fill:#C35823;}
	.st102{fill:#3E271A;}
	.st103{fill:#A36E9B;}
	.st104{fill:#83447A;}
	.st105{fill:#854685;}
	.st106{fill:#7E3F7B;}
	.st107{fill:#9A4423;}
	.st108{fill:#E77848;}
	.st109{fill:#3E2338;}
	.st110{fill:#F9F2F7;}
	.st111{fill:#D25345;}
	.st112{fill:#E6BFB0;}
	.st113{fill:#514E46;}
	.st114{fill:#6B2720;}
	.st115{fill:#3E1616;}
	.st116{fill:#8E342D;}
	.st117{fill:#BA3B3A;}
	.st118{fill:#D86458;}
	.st119{fill:#D7837D;}
	.st120{fill:#B25453;}
	.st121{fill:#FADC9A;}
	.st122{fill:#FDEEE9;}
	.st123{fill:#A13D2E;}
	.st124{fill:#481410;}
	.st125{fill:#9C3063;}
	.st126{fill:#8D8B29;}
	.st127{fill:#6F6D2C;}
	.st128{fill:#ADA334;}
	.st129{fill:#D2C66B;}
	.st130{fill:#86772A;}
	.st131{fill:#4A4620;}
	.st132{fill:#D4C463;}
	.st133{fill:#847732;}
	.st134{fill:#7F752B;}
	.st135{fill:#585541;}
	.st136{fill:#666029;}
	.st137{fill:#1D1A0C;}
	.st138{fill:#AEA15E;}
	.st139{fill:#322F20;}
	.st140{fill:#534C31;}
	.st141{fill:#5F6C6C;}
	.st142{fill:#7B8B8A;}
	.st143{fill:#465856;}
	.st144{fill:#91A3A0;}
	.st145{fill:#3E4C4B;}
	.st146{fill:#576564;}
	.st147{fill:#829D99;}
	.st148{fill:#293331;}
	.st149{fill:#A55B31;}
	.st150{fill:#7C3C1F;}
	.st151{fill:#A17E38;}
	.st152{fill:#B28332;}
	.st153{fill:#6E5123;}
	.st154{fill:#D6512D;}
	.st155{fill:#A33F26;}
	.st156{fill:#573217;}
	.st157{fill:#50AA54;}
	.st158{fill:#BFC0C0;}
	.st159{fill:#8D9292;}
	.st160{fill:#2D4382;}
	.st161{fill:#2A3641;}
	.st162{fill:#7188A0;}
	.st163{fill:#254D83;}
	.st164{fill:#33539F;}
	.st165{fill:#3761AA;}
	.st166{fill:#203D73;}
	.st167{fill:#298CC0;}
	.st168{fill:#1C4955;}
	.st169{fill:#227C84;}
	.st170{fill:#54461F;}
	.st171{fill:#68B947;}
	.st172{fill:#2D8B3A;}
	.st173{fill:#4B874A;}
	.st174{fill:#D3B129;}
	.st175{fill:#9B7C25;}
	.st176{fill:#F5C140;}
	.st177{fill:#7DCACE;}
	.st178{fill:#D25656;}
	.st179{fill:#F1F6FC;}
	.st180{fill:#D25251;}
	.st181{fill:#4F8585;}
	.st182{fill:#953A3A;}
	.st183{fill:#165C7A;}
	.st184{fill:#0F4354;}
	.st185{fill:#7C3F38;}
	.st186{fill:#1F6888;}
	.st187{fill:#6F5B3A;}
	.st188{fill:#AAA15E;}
	.st189{fill:#FFFFFF;}
	.st190{fill:#6AC6EC;}
	.st191{fill:#8FD2ED;}
	.st192{fill:#47BED4;}
	.st193{fill:#4E2E16;}
	.st194{fill:#877D47;}
	.st195{fill:#483923;}
	.st196{fill:#CBBE6E;}
	.st197{fill:#B97C51;}
	.st198{fill:#C0775E;}
	.st199{fill:#41281F;}
	.st200{fill:#7C4633;}
	.st201{fill:#864D39;}
	.st202{fill:#C4715A;}
	.st203{fill:#1E0907;}
	.st204{fill:#FAD8D5;}
	.st205{fill:#8E8F91;}
	.st206{fill:#958989;}
	.st207{fill:#BB8B34;}
	.st208{fill:#2F2525;}
	.st209{fill:#AA4645;}
	.st210{fill:#A84241;}
	.st211{fill:#6D273F;}
	.st212{fill:#976DA9;}
	.st213{fill:#CD4568;}
	.st214{fill:#A24F4D;}
	.st215{fill:#C8CE52;}
	.st216{fill:#A23352;}
	.st217{fill:#9E3250;}
	.st218{fill:#E25C82;}
	.st219{fill:#C03368;}
	.st220{fill:#68142F;}
	.st221{fill:#5C1531;}
	.st222{fill:#D29782;}
	.st223{fill:#533939;}
	.st224{fill:#979739;}
	.st225{fill:#ECEA5A;}
	.st226{fill:#D95753;}
	.st227{fill:#EE8888;}
	.st228{fill:#F6BECE;}
	.st229{fill:#FCF2CA;}
	.st230{fill:#3C843C;}
	.st231{fill:#77C06E;}
	.st232{fill:#82C373;}
	.st233{fill:#6EBC65;}
	.st234{fill:#B8372F;}
	.st235{fill:#C0BD60;}
	.st236{fill:#6E6F40;}
	.st237{fill:#CCB84D;}
	.st238{fill:#818786;}
	.st239{fill:#2B5161;}
	.st240{fill:#112A32;}
	.st241{fill:#25687B;}
	.st242{fill:#692819;}
	.st243{fill:#D26C54;}
	.st244{fill:#3E130C;}
	.st245{fill:#7B3321;}
	.st246{fill:#408AA6;}
	.st247{fill:#205868;}
	.st248{fill:#BC5C89;}
	.st249{fill:#DB71A6;}
	.st250{fill:#9C4976;}
	.st251{fill:#51A5D0;}
	.st252{fill:#7FCCDC;}
	.st253{fill:#814C38;}
	.st254{fill:#5A2F22;}
	.st255{fill:#C83C3B;}
	.st256{fill:#8C2525;}
	.st257{fill:#A3DAEF;}
	.st258{fill:#30A7BB;}
	.st259{fill:#69A2B4;}
	.st260{fill:#168692;}
	.st261{fill:#148C92;}
	.st262{fill:#4B1A0F;}
	.st263{fill:#48130D;}
	.st264{fill:#6B2E22;}
	.st265{fill:#631415;}
	.st266{fill:#B63D3B;}
	.st267{fill:#FDF0ED;}
	.st268{fill:#67C0E5;}
	.st269{fill:#98D4DA;}
	.st270{fill:#A33B2A;}
	.st271{fill:#1F87BE;}
	.st272{fill:#D6664B;}
	.st273{fill:#DE9AC2;}
	.st274{fill:#F5C4DA;}
	.st275{fill:#D05B8A;}
	.st276{fill:#8E2A2A;}
	.st277{fill:#F6DFEB;}
	.st278{fill:#A87691;}
	.st279{fill:#F9D6E5;}
	.st280{fill:#E05454;}
	.st281{fill:#B17F9F;}
	.st282{fill:#FEF4F8;}
	.st283{fill:#1F5063;}
	.st284{fill:#7ABE3A;}
	.st285{fill:#536065;}
	.st286{fill:#C7E7F1;}
	.st287{fill:#CD523C;}
	.st288{fill:#6F2B21;}
	.st289{fill:#DF744F;}
	.st290{fill:#B0533A;}
	.st291{fill:#40B8A5;}
	.st292{fill:#57844A;}
	.st293{fill:#3A4B49;}
	.st294{fill:#6D9A93;}
	.st295{fill:#16201F;}
	.st296{fill:#6C6856;}
	.st297{fill:#4E4A3C;}
	.st298{fill:#D8CE52;}
	.st299{fill:#AEA14B;}
	.st300{fill:#703426;}
	.st301{fill:#F4EB8F;}
	.st302{fill:#DC7D54;}
	.st303{fill:#CEDDA7;}
	.st304{fill:#774231;}
	.st305{fill:#4E261B;}
	.st306{fill:#4E2419;}
	.st307{fill:#CD5327;}
	.st308{fill:#F7BDAC;}
	.st309{opacity:0.48;}
	.st310{fill:#A03A24;}
	.st311{fill:#CB8572;}
	.st312{fill:#A1603D;}
	.st313{fill:#6B361F;}
	.st314{fill:#C57764;}
	.st315{fill:#222C2B;}
	.st316{fill:#872827;}
	.st317{fill:#221522;}
	.st318{fill:#201916;}
	.st319{fill:#63554F;}
	.st320{fill:#2C1C16;}
	.st321{fill:#D55436;}
	.st322{fill:#1B1511;}
	.st323{fill:#693B75;}
	.st324{fill:#381C40;}
	.st325{fill:#3E2F27;}
	.st326{fill:#47413D;}
	.st327{fill:#3F3329;}
	.st328{fill:#2A2019;}
	.st329{fill:#ED9DC1;}
	.st330{fill:#B66949;}
	.st331{fill:#7F4836;}
	.st332{fill:#C46E90;}
	.st333{fill:#CE6CA3;}
	.st334{fill:#974173;}
	.st335{fill:#4B1F1D;}
	.st336{fill:#A95F69;}
	.st337{fill:#803C47;}
	.st338{fill:#864A37;}
	.st339{fill:#B16945;}
	.st340{fill:#642B1E;}
	.st341{fill:#C04570;}
	.st342{fill:#57B544;}
	.st343{fill:#DF896B;}
	.st344{fill:#FFFCFB;}
	.st345{fill:#9F963B;}
	.st346{fill:#CFB854;}
	.st347{fill:#F4E381;}
	.st348{fill:#D65A6E;}
	.st349{fill:#AA3825;}
	.st350{fill:#BC4442;}
	.st351{fill:#3E180E;}
	.st352{fill:#7E7573;}
	.st353{fill:#7C3629;}
	.st354{fill:#675E5E;}
	.st355{fill:#C5BEBE;}
	.st356{fill:#8ED1EA;}
	.st357{fill:#3C1914;}
	.st358{fill:#C1343A;}
	.st359{fill:#502A17;}
	.st360{fill:#DE5217;}
	.st361{fill:#250707;}
	.st362{fill:#D7B0A7;}
	.st363{fill:#B98C30;}
	.st364{fill:#A6352E;}
	.st365{fill:#8F5329;}
	.st366{fill:#C57337;}
	.st367{fill:#2D351B;}
	.st368{fill:#546137;}
	.st369{fill:#4E2415;}
	.st370{fill:#DA9E35;}
	.st371{fill:#F4D39E;}
	.st372{fill:#A47223;}
	.st373{fill:#E25757;}
	.st374{fill:#A83C3C;}
	.st375{fill:#47502A;}
	.st376{fill:#534128;}
	.st377{fill:#7C3A47;}
	.st378{fill:#A2545F;}
	.st379{fill:#411A23;}
	.st380{fill:#DE8998;}
	.st381{fill:#6B313D;}
	.st382{fill:#1D1410;}
	.st383{fill:#F7D8CB;}
	.st384{fill:#B88F88;}
	.st385{fill:#A68581;}
	.st386{fill:#727272;}
	.st387{fill:#605250;}
	.st388{fill:#A57B6E;}
	.st389{fill:#8B722D;}
	.st390{fill:#47180C;}
	.st391{fill:#B2492D;}
	.st392{fill:#C04D2D;}
	.st393{fill:#C35133;}
	.st394{fill:#983123;}
	.st395{fill:#1D1918;}
	.st396{fill:#AA6130;}
	.st397{fill:#933523;}
	.st398{fill:#4B2920;}
	.st399{fill:#AC6F21;}
	.st400{fill:#6E2219;}
	.st401{fill:#2D7888;}
	.st402{fill:#3C3054;}
	.st403{fill:#888B2D;}
	.st404{fill:#1E5948;}
	.st405{fill:#BA4020;}
	.st406{fill:#AE5241;}
	.st407{fill:#431914;}
	.st408{fill:#250A08;}
	.st409{fill:#5A1F1D;}
	.st410{fill:#6A4A20;}
	.st411{fill:#78CBE8;}
	.st412{fill:#B8E1F2;}
	.st413{fill:#A2D087;}
	.st414{fill:#568545;}
	.st415{fill:#416B34;}
	.st416{fill:#254121;}
	.st417{fill:#437236;}
	.st418{fill:#A7D28D;}
	.st419{opacity:0.7;fill:#59BACA;}
	.st420{fill:#7DC165;}
	.st421{fill:#5F9446;}
	.st422{fill:#29522B;}
	.st423{fill:#A6B067;}
	.st424{fill:#396431;}
	.st425{fill:#547041;}
	.st426{fill:#1A3419;}
	.st427{fill:#94B787;}
	.st428{fill:#3E411F;}
	.st429{opacity:0.73;fill:#469EA7;}
	.st430{opacity:0.65;fill:#469EA7;}
	.st431{fill:#D13B21;}
	.st432{fill:#B06360;}
	.st433{fill:#DB775F;}
	.st434{fill:#782D1D;}
	.st435{fill:#CC371D;}
	.st436{fill:#BDC437;}
	.st437{fill:#B55945;}
	.st438{fill:#FEF9F5;}
	.st439{fill:#DB6849;}
	.st440{fill:#FEF4F2;}
	.st441{fill:#83842C;}
	.st442{fill:#EFEB5B;}
	.st443{fill:#E0D43E;}
	.st444{fill:#958A27;}
	.st445{fill:#5F443A;}
	.st446{fill:#1D110B;}
	.st447{fill:#A24B37;}
	.st448{fill:#E08377;}
	.st449{fill:#A44D4D;}
	.st450{fill:#8F3D30;}
	.st451{fill:#251F0A;}
	.st452{fill:#BA2E23;}
	.st453{fill:#7B2C1E;}
	.st454{fill:#E7E6C3;}
	.st455{fill:#2C7F87;}
	.st456{fill:#52BEC3;}
	.st457{fill:#AFD693;}
	.st458{fill:#AF5746;}
	.st459{fill:#3A3024;}
	.st460{fill:#9D432B;}
	.st461{fill:#E9BCB0;}
	.st462{fill:#B4653D;}
	.st463{fill:#5D4A41;}
	.st464{fill:#D27367;}
	.st465{fill:#5F452B;}
	.st466{fill:#D47156;}
	.st467{fill:#9E5547;}
	.st468{fill:#5A2626;}
	.st469{fill:#BF4A44;}
	.st470{fill:#D65C57;}
	.st471{fill:#7B4220;}
	.st472{fill:#3C1B13;}
	.st473{fill:#5E2F20;}
	.st474{fill:#994D3D;}
	.st475{fill:#C46856;}
	.st476{fill:#431932;}
	.st477{fill:#86413A;}
	.st478{fill:#D07424;}
	.st479{fill:#BC4C21;}
	.st480{fill:#D9AEA8;}
	.st481{fill:#7C3631;}
	.st482{fill:#B27B74;}
	.st483{fill:#D8896A;}
	.st484{fill:#D66751;}
	.st485{fill:#5A2A26;}
	.st486{fill:#48201E;}
	.st487{fill:#F9D0CF;}
	.st488{fill:#FBDFDF;}
	.st489{fill:#FEF9F9;}
	.st490{fill:#A3372A;}
	.st491{fill:#E4765C;}
	.st492{fill:#8E3222;}
	.st493{fill:#CA614D;}
	.st494{fill:#872920;}
	.st495{fill:#6A391C;}
	.st496{fill:#CE5B48;}
	.st497{fill:#59231D;}
	.st498{fill:#FDEFED;}
	.st499{fill:#CF6993;}
	.st500{fill:#993E67;}
	.st501{fill:#F3BDD6;}
	.st502{fill:#601537;}
	.st503{fill:#9A3A26;}
	.st504{fill:#D3705F;}
	.st505{fill:#502520;}
	.st506{fill:none;stroke:#D18975;stroke-miterlimit:10;}
	.st507{fill:#67C4E5;}
	.st508{fill:#3A5E2F;}
	.st509{fill:#4B3C37;}
	.st510{fill:#271815;}
	.st511{fill:#9F5372;}
	.st512{fill:#86325E;}
	.st513{fill:#471D33;}
	.st514{fill:#8D8F29;}
	.st515{fill:#7F2B51;}
	.st516{fill:#763855;}
	.st517{fill:#79402B;}
	.st518{fill:#D2D237;}
	.st519{fill:#487BBE;}
	.st520{fill:#CA4947;}
	.st521{fill:#E6B436;}
	.st522{fill:#C5583A;}
	.st523{fill:#A13D28;}
	.st524{fill:#E77354;}
	.st525{fill:#FDE9E5;}
	.st526{fill:#527E42;}
	.st527{fill:#D7428B;}
	.st528{fill:#74752D;}
	.st529{fill:#BFBA30;}
	.st530{fill:#9D3F2A;}
	.st531{fill:#662016;}
	.st532{fill:#794228;}
	.st533{fill:#E86A4C;}
	.st534{fill:#B74949;}
	.st535{fill:#2E3C31;}
	.st536{fill:#89A675;}
	.st537{fill:#5A7746;}
	.st538{fill:#395028;}
	.st539{fill:#EB6A45;}
	.st540{fill:#C7E1AE;}
	.st541{fill:#121B14;}
	.st542{fill:#23859F;}
	.st543{fill:#694799;}
	.st544{fill:#B56C7E;}
	.st545{fill:#758631;}
	.st546{fill:#9E962D;}
	.st547{fill:#7C3F20;}
	.st548{fill:#146173;}
	.st549{fill:#4C3179;}
	.st550{fill:#A93524;}
	.st551{fill:#76892F;}
	.st552{fill:#C17387;}
	.st553{fill:#7E4120;}
	.st554{fill:#9B932B;}
	.st555{fill:#992C23;}
	.st556{fill:#1A6778;}
	.st557{fill:#342557;}
	.st558{fill:#B96E82;}
	.st559{fill:#D4D142;}
	.st560{fill:#804121;}
	.st561{fill:#B97285;}
	.st562{fill:#849637;}
	.st563{fill:#B8B239;}
	.st564{fill:#884722;}
	.st565{fill:#D36B56;}
	.st566{fill:#CC4A34;}
	.st567{fill:#952E23;}
	.st568{fill:#FDEDED;}
	.st569{fill:#E76A59;}
</style>
<g>
	<path class="st507" d="M215.31,484.22c-16.82-3.9-33.84-8.39-51.01-11.33c-0.96-1.32-2.44-2.23-4.21-2.12
		c-2.27,0.13-4.53,0.29-6.8,0.48c-3.36-0.42-6.73-0.78-10.1-1.03c-2.08-0.16-4.12-0.21-6.14-0.17c-0.26-0.17-0.59-0.21-0.99-0.06
		c-0.1,0.04-0.19,0.07-0.29,0.11c-8.28,0.35-16.09,2.37-23.89,5.95c-4.74,2.17-9.29,4.83-13.9,7.31c-4.94,1.52-9.87,3.24-13.94,5.91
		c-0.19,0.13-0.37,0.26-0.56,0.4c-0.36,0.1-0.71,0.21-1.07,0.31c-2.62,0.69-3.52,2.78-3.21,4.77c-1.19,2.71-1.09,5.79,1.04,8.71
		c4.24,5.82,12.67,6.93,19.3,6.52c9.12-0.57,18.26-2.42,27.3-3.73c9.62-1.39,19.24-2.79,28.86-4.18c5.94-0.86,11.88-1.75,17.81-2.62
		c0.58,0.02,1.17,0.05,1.75,0.07c0.96,0.02,1.79-0.25,2.5-0.69c12.51-1.86,25.02-3.73,37.54-5.58
		C219.95,492.53,219.56,485.21,215.31,484.22z M90.62,500.6c0.15,0.36,0.33,0.71,0.55,1.03c-0.91-0.15-1.81-0.37-2.62-0.66
		C89.23,500.85,89.92,500.73,90.62,500.6z M186.27,488.37c-0.02-0.39-0.1-0.77-0.2-1.15c1.06,0.23,2.13,0.45,3.19,0.68
		C188.26,488.06,187.27,488.22,186.27,488.37z"/>
	<path class="st507" d="M661.98,455.21c-2.78-6.04-9.32-9.11-14.79-12.27c-12.72-7.36-25.71-14.28-39.42-19.61
		c-23-8.95-49.45-13.05-72.79-5.09c-5.66,0.47-11.33,0.81-16.98,1.34c-14.47,1.35-28.97,2.77-43.33,5.04
		c-25.32,4.01-52.12,9.49-72.46,26.08c-2.07,1.69-1.76,5.28,0,7.01c4.49,4.43,10.2,6.44,16.3,7.6c7.8,1.48,15.73,2.34,23.65,2.85
		c15.76,1.03,31.55,0.56,47.33,0.34c32.01-0.45,63.62,1.92,94.95,8.71c22.88,4.96,54.35,12.87,73.54-5.71
		C662.38,467.25,664.64,461.02,661.98,455.21z"/>
	<path class="st507" d="M288.08,424.98c-26.77-19.08-60.78-18.4-92.15-20.7c-21.63-1.59-45.2-7.96-66.96-5.1
		c-16.14,1.5-32.24,3.49-48.31,5.65c-8.63,1.16-17.24,2.45-25.83,3.9c-9.08,1.53-18.19,3.87-27.33,4.96
		c-6.57,0.79-8.25,9.38-1.59,11.72c8.15,2.87,17.06,4.25,25.51,6c8.56,1.77,17.16,3.32,25.79,4.71c17.27,2.79,34.63,5.02,52.04,6.69
		c34.79,3.33,69.93,4.54,104.85,2.93c9.99-0.46,19.96-1.11,29.93-1.96c9.2-0.78,18.13-0.98,25.57-7.04
		C293.66,433.43,291.61,427.49,288.08,424.98z"/>
	<path class="st508" d="M515.64,277.85c-1.49-2.71-3.7-4.96-6.31-6.44c1.71-2.2,1.96-5.24,0.72-8.01c-0.98-2.19-2.67-3.63-4.66-4.55
		c-0.09-0.51-0.2-1.01-0.31-1.51c0.45-1.45,0.44-3.05-0.16-4.7c-0.68-1.89-1.91-3.32-3.42-4.41c-0.88-1.18-1.85-2.29-2.89-3.32
		c-0.34-0.37-0.7-0.73-1.06-1.09c0-0.01,0-0.03,0-0.04c0.16-1.7-1.82-2.35-3.09-1.77c-6.51,3-12.09,7.18-16.82,12.56
		c-0.61,0.69-0.86,1.75-0.33,2.57c1.05,1.65,2.57,2.98,4.36,4c-5.25,1.78-10.02,4.73-13.98,8.74c-0.97,0.99-0.67,3.15,0.9,3.39
		c1.16,0.18,2.32,0.34,3.49,0.5c0.38,0.43,0.93,0.7,1.64,0.65c0.72-0.05,1.43-0.13,2.14-0.19c0.03,0,0.05,0.01,0.08,0.01
		c-0.15,0.09-0.31,0.17-0.46,0.26c-5.58,1.71-10.68,4.63-15.54,8.5c-1.44,1.15-0.47,3.39,1.02,3.86c9.58,3.05,20.22,4.95,30.74,5.06
		c0.1,7.82,0.37,15.64,0.86,23.45c0.15,2.31,3.76,2.34,3.63,0c-0.44-7.83-0.66-15.66-0.7-23.49c5.63-0.18,11.18-0.9,16.48-2.28
		C517.9,288.06,518.35,282.78,515.64,277.85z"/>
	<path class="st508" d="M471.72,290.6c-1.49-2.71-3.7-4.96-6.31-6.44c1.71-2.2,1.96-5.24,0.72-8.01c-0.98-2.19-2.67-3.63-4.66-4.55
		c-0.09-0.51-0.2-1.01-0.31-1.51c0.45-1.45,0.44-3.05-0.16-4.7c-0.68-1.89-1.91-3.32-3.42-4.41c-0.88-1.18-1.85-2.29-2.89-3.32
		c-0.34-0.37-0.7-0.73-1.06-1.09c0-0.01,0-0.03,0-0.04c0.16-1.7-1.82-2.35-3.09-1.77c-6.51,3-12.09,7.18-16.82,12.56
		c-0.61,0.69-0.86,1.75-0.33,2.57c1.05,1.65,2.57,2.98,4.36,4c-5.25,1.78-10.02,4.73-13.98,8.74c-0.97,0.99-0.67,3.15,0.9,3.39
		c1.16,0.18,2.32,0.34,3.49,0.5c0.38,0.43,0.93,0.7,1.64,0.65c0.72-0.05,1.43-0.13,2.14-0.19c0.03,0,0.05,0.01,0.08,0.01
		c-0.15,0.09-0.31,0.17-0.46,0.26c-5.58,1.71-10.68,4.63-15.54,8.5c-1.44,1.15-0.47,3.39,1.02,3.86c9.58,3.05,20.22,4.95,30.74,5.06
		c0.1,7.82,0.37,15.64,0.86,23.45c0.15,2.31,3.76,2.34,3.63,0c-0.44-7.83-0.66-15.66-0.7-23.49c5.63-0.18,11.18-0.9,16.48-2.28
		C473.98,300.81,474.43,295.53,471.72,290.6z"/>
	<path class="st508" d="M224.36,268.2c-1.49-2.71-3.7-4.96-6.31-6.44c1.71-2.2,1.96-5.24,0.72-8.01c-0.98-2.19-2.67-3.63-4.66-4.55
		c-0.09-0.51-0.2-1.01-0.31-1.51c0.45-1.45,0.44-3.05-0.16-4.7c-0.68-1.89-1.91-3.32-3.42-4.41c-0.88-1.18-1.85-2.29-2.89-3.32
		c-0.34-0.37-0.7-0.73-1.06-1.09c0-0.01,0-0.03,0-0.04c0.16-1.7-1.82-2.35-3.09-1.77c-6.51,3-12.09,7.18-16.82,12.56
		c-0.61,0.69-0.86,1.75-0.33,2.57c1.05,1.65,2.57,2.98,4.36,4c-5.25,1.78-10.02,4.73-13.98,8.74c-0.97,0.99-0.67,3.15,0.9,3.39
		c1.16,0.18,2.32,0.34,3.49,0.5c0.38,0.43,0.93,0.7,1.64,0.65c0.72-0.05,1.43-0.13,2.14-0.19c0.03,0,0.05,0.01,0.08,0.01
		c-0.15,0.09-0.31,0.17-0.46,0.26c-5.58,1.71-10.68,4.63-15.54,8.5c-1.44,1.15-0.47,3.39,1.02,3.86c9.58,3.05,20.22,4.95,30.74,5.06
		c0.1,7.82,0.37,15.64,0.86,23.45c0.15,2.31,3.76,2.34,3.63,0c-0.44-7.83-0.66-15.66-0.7-23.49c5.63-0.18,11.18-0.9,16.48-2.28
		C226.62,278.41,227.08,273.12,224.36,268.2z"/>
	<path class="st508" d="M253.98,279.17c-1.49-2.71-3.7-4.96-6.31-6.44c1.71-2.2,1.96-5.24,0.72-8.01c-0.98-2.19-2.67-3.63-4.66-4.55
		c-0.09-0.51-0.2-1.01-0.31-1.51c0.45-1.45,0.44-3.05-0.16-4.7c-0.68-1.89-1.91-3.32-3.42-4.41c-0.88-1.18-1.85-2.29-2.89-3.32
		c-0.34-0.37-0.7-0.73-1.06-1.09c0-0.01,0-0.03,0-0.04c0.16-1.7-1.82-2.35-3.09-1.77c-6.51,3-12.09,7.18-16.82,12.56
		c-0.61,0.69-0.86,1.75-0.33,2.57c1.05,1.65,2.57,2.98,4.36,4c-5.25,1.78-10.02,4.73-13.98,8.74c-0.97,0.99-0.67,3.15,0.9,3.39
		c1.16,0.18,2.32,0.34,3.49,0.5c0.38,0.43,0.93,0.7,1.64,0.65c0.72-0.05,1.43-0.13,2.14-0.19c0.03,0,0.05,0.01,0.08,0.01
		c-0.15,0.09-0.31,0.17-0.46,0.26c-5.58,1.71-10.68,4.63-15.54,8.5c-1.44,1.15-0.47,3.39,1.02,3.86c9.58,3.05,20.22,4.95,30.74,5.06
		c0.1,7.82,0.37,15.64,0.86,23.45c0.15,2.31,3.76,2.34,3.63,0c-0.44-7.83-0.66-15.66-0.7-23.49c5.63-0.18,11.18-0.9,16.48-2.28
		C256.24,289.38,256.69,284.09,253.98,279.17z"/>
	<path class="st158" d="M657.9,343.65c-35.19-13.32-80.19-17.92-122.34-20.38c-49.43-2.9-99.38-2.35-149.03-3.04
		c-50.1-0.7-100.16-1.96-150.17-3.68c-24.89-0.86-49.87-1.71-74.81-0.95c-21.31,0.65-43.55,2.13-63.06,7
		c-6.45,1.61-12.35,3.67-17.49,6.23c-6.36,1.58-12.61,3.3-18.71,5.16c-8.86,2.7-18.25,5.59-25.96,9.17
		c-6.35,2.96-8.66,7.24-3.13,10.99c5.86,3.97,16.25,5.86,25.23,6.88c21.62,2.46,44.58,0.7,66.48,0.56
		c23.95-0.15,47.91,0.22,71.82,0.93c96.31,2.88,191.66,11.44,287.97,14.3c47.49,1.41,95.22,1.32,142.51-1.6
		c11.36-0.7,22.91-1.38,34.11-2.61c7.7-0.85,16.06-2.51,20.97-5.93C695.09,357.75,669.81,348.16,657.9,343.65z"/>
	<path class="st509" d="M616.69,578.75c-15.08-13.19-35.84-14.01-54.02-14.81c-42.57-1.88-84.96,4.55-127.5,4.88
		c-21.79,0.17-43.22-1.89-64.72-5.9c-19.69-3.67-39.29-7.13-59.26-6.29c0.11-0.2,0.23-0.4,0.34-0.6c1.2-2.3-1.91-4.37-3.13-2.09
		c-0.59,1.11-1.29,2.09-2.06,2.99c-9.64,0.76-19,2.59-28.32,5.59c-2.68,0.86-2.49,4.18-0.78,5.63c-8.71,1.88-17.5,3.24-26.33,4.03
		c-20.93,1.88-42.12,0.71-62.79-3.53c-27.83-5.71-75.17-31.03-91.76,10.28c-5.51,13.73-4.94,30.78,3.23,42.98
		c9.94,14.85,26.9,19.56,42.29,21.88c42.2,6.38,84.82-0.06,127.18,2.86c21.39,1.47,41.99,6.7,62.85,12
		c20.47,5.2,41.02,8.62,61.99,9.5c42.65,1.78,85.4-4.09,127.83-8.16c21.39-2.05,42.98-3.32,64.29-6.36
		c16.44-2.35,34.52-8.83,42.61-26.99C636.34,609.33,629.52,589.98,616.69,578.75z"/>
	<path class="st510" d="M475.56,591.06c-4.18-0.88-8.89,0.13-13.06,0.54c-5.7,0.56-11.4,1.19-17.1,1.76
		c-11.05,1.1-22.15,2.04-33.26,2.23c-24.57,0.43-48.19-5.73-72.55-7.47c-11.79-0.84-23.35,0.01-34.87,2.66
		c-10.27,2.36-20.75,5.64-31.1,2.99c0.28-1.87-1.16-4.01-3.54-3.34c-34.82,9.81-69.67,19.54-104.43,29.58
		c-3.3,0.95-4.19,5.83-0.99,7.55c28.34,15.19,59.09-3.27,88.53-2.79c7.06,0.11,14.03,1.56,20.18,5.13
		c3.74,2.17,7.12,4.84,11.18,6.45c4.31,1.7,8.86,1.83,13.42,1.4c4.42-0.42,9.16-1.47,13.56-0.39c4.41,1.07,8.04,4.28,11.93,6.46
		c8.44,4.74,18.07,5.83,27.59,6.13c20.81,0.65,41.73-1.14,62.17-5.03c10.46-1.99,20.81-4.56,30.97-7.73
		c8.24-2.57,16.54-5.58,23.73-10.44c6.57-4.45,13.12-10.59,15.7-18.31C486.02,601.24,483.76,592.78,475.56,591.06z"/>
	<path class="st511" d="M443.17,377.61c-1.06-0.29-2.17-0.58-3.29-0.89c-1.34,3.76-2.89,7.44-4.64,11.03
		c2.18,0.04,4.36,0.08,6.54,0.1C447.65,387.91,448.86,379.15,443.17,377.61z"/>
	<path class="st511" d="M512.89,262.61c-6.1-1.39-13.29,3.66-18.8,5.67c-7.05,2.58-14.31,4.59-21.7,5.94
		c-7.3,1.33-14.55,1.8-21.77,1.56c-11.58,3.92-23.51,6.81-35.23,10.65c-5.11,1.67-10.23,1.6-14.98,0.24
		c-14,3.2-28.59,4.3-42.43,4.16c-3.32-0.03-6.65-0.13-9.99-0.31c-7.24,0.39-14.51,0.31-21.85-0.41c-4.72-0.46-9.35-1.07-13.91-1.83
		c-6.34-0.39-12.74-1.07-19.26-2.05c-10.62-1.6-21.04-4.16-31.24-7.43c-6.02-1.17-11.88-2.94-17.38-5.59
		c-20.8-0.2-41.52-5.11-60.39-14.48c-1.54-0.76-3.86-0.54-4.69,1.23c-3.6,7.71-6.63,16.87-0.04,23.91
		c6.35,6.79,16.95,10.47,25.47,13.61c20.07,7.4,41.51,9.95,61.63,17.16c5.02,1.8,9.4,3.8,12.3,8.49c2.68,4.34,4.48,9.28,6.74,13.84
		c1.05,2.11,2.13,4.22,3.22,6.33c-0.01,0.57-0.02,1.15-0.02,1.72c0,7.28-0.35,15.69,2.27,22.6c4.45,11.71,17.73,14.06,28.78,14.75
		c1.12,0.07,1.95-0.49,2.46-1.3c0.73,0.2,1.47,0.38,2.23,0.54c11.16,2.2,23,2.16,34.32,2.87c16.05,1,32.12,1.88,48.2,2.5
		c0.73-1.09,1.42-2.18,2.09-3.26c0.13-0.09,0.26-0.18,0.38-0.3c0.77-0.75,1.5-1.53,2.21-2.33c0.5-0.42,0.95-0.89,1.38-1.37
		c1.08-2.88,2.11-6.37,2.88-9.96c0.48-2.23,0.86-4.48,1.19-6.74c0.04-0.41,0.3-2.38,0.31-2.43c0.15-1.33,0.3-2.65,0.44-3.98
		c0.58-5.42,1.2-10.83,1.92-16.23c-1.35-6.12-2.69-12.24-4.04-18.36c-0.38-1.72-3.24-9.49-2.3-10.84c0.16-0.23,8.4,0.35,10.01,0.33
		c15.08-0.24,30.2-2.22,44.79-6.06c13.28-3.5,27.71-8.11,39.17-15.91c4.98-3.39,10.25-7.85,12.11-13.81
		C521.12,270.12,518.97,263.99,512.89,262.61z M304.2,368.93c0.01-0.06,0-0.13,0.01-0.19c1.15,1.43,2.35,2.78,3.62,4.02
		C306.4,371.68,305.2,370.39,304.2,368.93z"/>
	<path class="st512" d="M375.58,346.84c-7.31-6.42-15.29-7.72-24.49-9.55c-4.67-0.93-8.38-3.43-12.75-5.11
		c-4.27-1.65-8.83-2.05-13.35-1.45c-9.89,1.31-18.03,7.37-23.85,15.24c-4.2,5.67-9.71,15.09-5.06,21.72
		c0.68,2.35,1.99,4.57,3.89,6.33c7.05,6.53,17,3.76,25.14,7.43c7.83,3.53,14.3,9.51,22.98,11.14c8.8,1.65,19.88,0.21,27.74-4.24
		C391.82,379.3,387.48,357.3,375.58,346.84z"/>
	<path class="st513" d="M427.59,437.29c-9.03-7-20.33-10.57-31.18-13.65c-13.22-3.76-26.77-6.3-40.44-7.73
		c-7.4-0.77-15.09-1.62-22.52-0.71c-6.99,0.85-12.88,3.92-18.67,7.79c-7.7,5.14-17.65,13.09-16.75,22.83
		c-0.15,0.41-0.13,0.89,0.14,1.39c0.04,0.07,0.08,0.14,0.12,0.21c0.28,1.31,0.75,2.65,1.46,4.01c0.42,0.82,1.07,1.25,1.76,1.41
		c11.72,18.1,30.99,32.56,50.9,39.87c12.6,4.63,25.98,5.07,39.18,3.32c11.36-1.51,23.49-3.71,33.86-8.81
		c9.03-4.44,15.81-12.29,16.24-22.67C442.13,453.72,435.89,443.72,427.59,437.29z"/>
	<path class="st25" d="M319.55,455.28c-0.35-6.53,2.42-18.7-8.12-17.05c-9.94,1.55-20.07,5.41-29.5,8.81
		c-2.95,1.06-7.05,1.82-8.11,5.23c-0.08,0.26-0.14,0.52-0.19,0.79c-0.55,0.2-0.99,0.74-0.84,1.49c1.47,7.24,3.23,14.39,5.37,21.46
		c1.58,5.24,3.01,11.61,6.96,15.67c3.61,3.71,8.17,3.63,12.88,2.35c7.29-1.98,14.52-4.28,21.75-6.49c0.87-0.27,1.7-0.96,1.89-1.89
		C323.79,475.4,320.09,465.49,319.55,455.28z"/>
	<path class="st25" d="M407.96,456.61c-0.9-2.7-3.65-3.58-6.03-4.54c-8.23-3.3-16.46-6.8-24.88-9.61
		c-6.77-2.25-17.21-5.99-24.13-3.19c-2.27,0.92-2.68,3.83-0.65,5.03c-2.04,7.77-4.09,15.55-6.16,23.31
		c-0.67,2.5-1.97,5.19-0.41,7.54c1.76,2.64,6.45,4.3,9.15,5.68c7.59,3.88,15.53,7.22,23.65,9.82c2.99,0.96,6.49,2.38,9.68,1.97
		c3.21-0.41,5.02-2.65,6.82-5.13c4.58-6.32,8.2-13.34,10.86-20.67C406.89,463.97,409.01,459.77,407.96,456.61z"/>
	<path class="st514" d="M387.99,512.97c2.47-5.11,5.6-10.57,4.51-16.46c-2.11-11.42-16.11-16.87-25.51-20.71
		c-6.04-2.47-13.87-6.27-20.56-4.47c-6.74,1.81-8,7.44-7.76,13.59c0.45,11.92,0.69,23.84,1.1,35.76c-0.32,5.1-0.54,10.2-0.6,15.29
		c-0.38-1.12-0.79-2.25-1.22-3.38c-5.17-13.65-6.68-28.71-9.27-43.01c-0.95-5.28-1.2-11.71-6.76-14.24
		c-2.27-1.03-4.69-1.01-7.13-0.94c-4.49,0.14-8.99,0.43-13.48,0.68c-4.49,0.24-8.98,0.49-13.47,0.83c-2.99,0.23-6.55,0.11-9.43,1.08
		c-1.45,0.48-2.53,1.23-3.34,2.13c-0.19,0.11-0.38,0.21-0.56,0.34c-4.03,2.96-1.63,8.44-0.18,12.09
		c5.43,13.68,10.5,27.51,14.84,41.57c0.89,2.88,2.02,5.93,2.24,8.97c0.28,3.77-1.23,6.89-2.85,10.17
		c-3.24,6.58-6.38,13.2-9.27,19.94c-3.48,8.11-13.52,24.4-2.35,30.83c9.63,5.54,24.08-3.37,31.86-8.76
		c9.94-6.88,17.43-15.99,23.86-26.12c2.7-4.26,5.4-8.72,7.02-13.53c0.46,6.44,1.22,12.86,2.4,19.24
		c2.25,12.14,5.5,26.65,13.31,36.57c5.66,7.19,17.04,11.59,24.81,4.65c4.19-3.74,4.85-9.37,4.52-14.68
		c-0.46-7.46-1.76-14.99-3.28-22.3c-1.47-7.06-3.65-13.89-5.39-20.87c-2.24-8.97-1.64-16.05,2.34-24.4
		C381.58,526.2,384.8,519.59,387.99,512.97z"/>
	<path class="st515" d="M546.5,382.32c-1.29-2.03-3.9-2.79-6.03-1.58c-12.84,7.28-27.03,13.84-41.96,14.97
		c-15.43,1.17-28.12-5.34-41.53-11.99c-12.55-6.22-25.75-11.92-39.9-12.91c-14.45-1.01-27.7,4.88-41.68,7.3
		c-15.27,2.64-30.75,1.05-45.47-3.55c-13.39-4.18-26.04-10.29-39.04-15.5c-24.4-9.78-49.67-13.49-75.29-5.98
		c-13.53,3.97-26.22,10.65-37.04,19.7c-4.74,3.96-9.82,9.22-8.94,15.94c0.31,2.36,1.42,4.54,3.04,6.17
		c12.01,21.16,32.92,34.91,55,44.43c13.31,5.74,27.96,11.91,42.66,12c7.91,0.05,15.46-2.26,22.98-4.46
		c8.1-2.38,16.35-4.26,24.77-5.1c16.27-1.63,32.58,0.25,47.53,7.09c13.63,6.23,26.2,14.97,40.84,18.84c15.5,4.1,32.25,2.9,47.92,0.5
		c15.34-2.36,30.4-7.03,44.11-14.36c13.71-7.33,25.78-17.51,35.15-29.92c4.59-6.08,8.26-12.7,11.13-19.76
		C547.46,397.45,550.74,389.02,546.5,382.32z"/>
	<path class="st516" d="M380.65,290.34c0.47-4.19-4.76-8.63-8.65-5.7c-10.71,8.07-23.94,11.62-36.92,10.5
		c-1.77-0.2-3.51-0.43-5.22-0.71c-1.13-0.21-2.25-0.45-3.37-0.73c-3.11-1.82-5.96-4.07-8.39-6.71c-1.95-2.12-4.35-1.68-5.89-0.16
		c-0.77-0.37-1.64-0.2-2.26,0.26c-0.51-0.25-1.02-0.48-1.59-0.72c-1.95-0.81-3.87,1.91-2.74,3.56c0.44,0.64,0.9,1.28,1.36,1.91
		c-0.86,2.18-0.44,4.93,2.07,6.77c3.19,2.33,6.55,4.37,10.04,6.1c6.54,5.21,14.16,8.88,22.85,9.95c7.68,0.95,15.1-0.66,21.81-4.49
		c6.12-3.5,13.01-9.01,16.57-15.13C381.34,293.27,381.31,291.63,380.65,290.34z"/>
	<path class="st25" d="M418.47,239.55c-1.71-4.16-4.79-3.29-7.79-5.64c-0.01-0.01-0.03-0.02-0.04-0.03
		c0.45-5.57,2.14-15.39-2.8-19.16c0.17-4.68-0.46-9.51-1.45-13.84c-1.2-5.22-3.81-10.02-8.7-12.56c-6.15-3.19-14.39-3.05-21.1-4.08
		c-8.02-1.24-15.89-2.06-24.01-1.2c-14.87,1.57-31.11,5.59-44.6,12.15c-10.02,4.87-18.68,13.01-21.07,23.97
		c-0.18-0.52-1.06-0.43-1.12,0.22c-0.42,4.74-1.12,9.71-1.69,14.76c-4.65,1.42-10.93,2.96-13.06,7.08
		c-2.38,4.58-0.87,12.1,0.96,16.63c1.83,4.55,5.52,7.83,10.65,7.34c1.03-0.1,2.12-0.39,3.12-0.85c0.55,1.5,1.19,2.97,1.96,4.4
		c6.83,12.81,20.34,20.24,33.93,23.9c1.85,0.5,3.69,0.91,5.54,1.26c0.06,0.43,0.32,0.84,0.84,1.15c3.4,1.95,7.3,3.88,11.24,4.38
		c2.02,0.26,3.75-0.34,5.5-0.91c3.67,0.1,7.38-0.86,10.69-2.9c0.61-0.38,1.01-0.93,1.23-1.54c4.74-0.75,9.47-1.81,14.21-3.13
		c7.98-2.23,15.04-6.24,21.75-11.02c6.17-4.4,11.58-8.76,13.88-16.27c0.26-0.85,0.49-1.72,0.71-2.58
		c5.47-0.16,9.54-3.71,11.17-10.27C419.28,247.25,419.91,243.03,418.47,239.55z M275.02,245.76c-0.11,0.41-0.17,0.86-0.21,1.34
		c0.01-2.22,0.92-3.86,2.34-5.16C276.11,243.2,275.33,244.59,275.02,245.76z"/>
	<path class="st312" d="M498.6,186.16c-3.27-5.38-7.08-10.69-12.26-14.39c-6.12-4.37-13.18-4.82-20.41-5.62
		c-8.61-0.95-17.07-3.19-25.22-6.09c-15.54-5.52-29.95-15.02-46.45-17.53c-8.28-1.26-16.66-0.65-24.98-0.23
		c-9.33,0.47-18.67,0.94-28,1.41c-16.05,0.81-32.58,2.2-48.45-1.1c-7.67-1.6-14.91-4.34-21.52-8.58
		c-6.63-4.25-12.58-9.57-19.69-13.05c-11.84-5.79-28.93-8.2-40.11,0.38c-5.25,4.03-8.57,10.68-7.68,17.37
		c0.93,7.04,6.4,11.57,12.69,14.02c4.46,1.74,22.98,3.04,22.73,9.66c-0.06,1.51-0.98,2.57-1.49,3.73
		c-6.28-0.05-12.34,1.5-18.24,3.86c-5.73,2.29-12.74,4.72-17.16,9.25c-10.51,10.8,8.28,17.57,16.22,19.7
		c6.79,1.82,13.79,2.74,20.77,3.44c3.68,0.37,7.38,0.66,11.07,0.97c1.98,0.17,3.96,0.31,5.94,0.53c1.89,0.21,4.29,0.01,4.56,1.98
		c0.42,2.98-4.66,6.65-6.71,8.42c-2.66,2.3-5.64,4.37-8.02,6.98c-3.38,3.72-3.62,8.86,0.59,12.1c5.85,4.48,12.7,0.35,17.86-3.06
		c5.77-3.81,11.28-8,16.55-12.47c1.41,2.76,4.2,4.79,7.61,5.25c8.75,1.16,13.98-7.36,21.2-10.33c1.32-0.54,2.6-1.93,2-3.51
		c-0.84-2.22-1.68-4.43-2.53-6.65c-0.42-1.11-0.84-2.22-1.26-3.32c-0.76-1.12-0.42-1.66,1.02-1.59c2.37-1.64,9.15-1.04,11.96-0.87
		c9.27,0.55,16.04,4.32,24.01,8.49c2.62,1.37,5.56,2.31,8.51,1.5c3.65-1.01,6.04-4.56,9.02-6.64c3.18-2.21,6.93-3.9,10.77-4.53
		c2.04-0.34,4.88-0.63,6.72,0.58c0.93,0.61,2.92,4.27,0.17,4.23c-2.65-0.04-4.58,3.75-2.32,5.59c6.18,5.05,12.25,10.23,18.46,15.24
		c4.79,3.87,10.15,7.83,16.46,8.56c4.84,0.56,11.28-1.15,12.9-6.38c0.11-0.35,0.18-0.69,0.23-1.03c7.54,2.33,15.58,3.02,23.48,1.87
		c4.68-0.68,12.58-1.64,14.2-7.1c0.52-1.74,0.4-3.28-0.13-4.64c11.85-0.54,24.58-3.89,33.3-11.15
		C502.33,196.91,502.03,191.8,498.6,186.16z"/>
	<path class="st517" d="M440.74,177.95c-2.61-6.99-8.72-12.45-16.2-13.52c-2.39-0.34-4.75,0.16-6.39,1.64
		c-0.97-0.42-2.04-0.63-3.24-0.53c-0.66,0.05-1.26,0.19-1.79,0.39c-0.12-0.04-0.23-0.08-0.35-0.12
		c-6.03-7.63-12.86-14.89-21.96-18.77c-10.03-4.27-21.65-4.14-32.38-4.58c-10.61-0.44-21.26-0.27-31.75,1.57
		c-11.89,2.08-22.35,7.02-31.98,14.21c-4.49,3.36-8.93,6.99-14.02,9.43c-5.45,2.61-10.27,2.54-16.07,1.51
		c-4.71-0.83-7.76,2.52-7.66,6.12c-0.53,1.85-0.35,3.95,0.95,5.47c2.8,3.27,8.21,4.5,12.15,5.57c2.61,0.71,5.29,1.25,8,1.68
		c2.01-0.23,4.02-0.48,6.03-0.76c11.74-1.64,23.41-4.81,35.21-6.29c7.35-2.83,14.86-4.96,22.82-5.64
		c10.27-0.88,19.7,1.93,28.96,6.06c7.51,3.35,14.21,8.23,21.73,11.54c2.51,1.11,5.06,1.84,7.64,2.3c3.03-0.27,6.03-0.81,8.9-1.68
		c0.15,0.05,0.29,0.1,0.43,0.15c7.13,2.23,16.79,4.22,24.14,2.01C441.81,193.34,443.34,184.9,440.74,177.95z"/>
	<g>
		<path class="st518" d="M596.19,320.51c-0.25-6.12-0.75-12.22-1.45-18.3c-1.5-13-3.7-25.9-6.83-38.6
			c-6.09-24.72-15.49-48.76-27.62-71.14c-23.67-43.7-59.34-83.92-104.04-106.73c-49.48-25.25-107.53-24.76-160.05-9.54
			c-25.34,7.34-49.35,18.76-70.06,35.19c-19.47,15.44-35.17,35.3-48.21,56.33c-13.57,21.89-24.98,45.45-34.38,69.4
			c-10.03,25.54-17.36,52.74-17.14,80.37c0.05,6.66,0.65,13.26,1.56,19.86c0.8,5.84,10.99,4.53,10.39-1.41
			c-2.64-26.05,2.51-51.71,11.32-76.17c8.45-23.48,19.77-46.19,32.25-67.78c11.76-20.34,25.4-39.67,42.56-55.84
			c17.2-16.22,37.87-28.1,60.16-35.83c46.79-16.23,101.23-19.55,147.82-0.96c41.57,16.59,75.95,52.08,99.33,90.09
			c12.65,20.58,21.95,41.19,28.91,64.04c3.44,11.28,6.19,22.77,8.21,34.39c1.94,11.12,3.03,21.86,3.62,34.02
			c0.16,3.25-0.09,6.77,0.67,9.94c0.77,3.21,2.7,6.3,4.11,9.29c2.64,5.61,11.88,5.42,14.58,0c1.39-2.8,3.01-5.66,3.9-8.66
			C596.89,328.74,596.34,324.34,596.19,320.51z"/>
		<path class="st519" d="M586.21,324.75c-0.58-3.74-1.15-7.48-1.73-11.22c-2.15-13.97-4.05-28.01-6.67-41.9
			c-2.6-13.81-6.82-27.13-12.93-39.8c-5.73-11.88-13.05-22.91-20.63-33.68c-15.22-21.62-30.55-43.59-48.84-62.77
			c-18.08-18.96-39.82-35.37-63.03-47.53c-23.62-12.38-49.51-19.52-76.31-16.94c-25.17,2.42-49.83,10.45-72.72,20.97
			c-42.47,19.51-79.8,50.84-105.87,89.66c-27.89,41.52-43.38,91.23-42.94,141.27c0.06,6.25,0.36,12.49,0.88,18.72
			c0.5,6.1,9.77,6.3,9.65,0c-0.88-46.19,10.86-93.36,33.9-133.44c21.65-37.66,53.39-69.23,91-90.9
			c18.59-10.71,38.52-19.05,59.3-24.43c24.27-6.28,48.5-7.01,72.35,1.28c22.1,7.68,42.65,21.28,60.39,36.35
			c18.62,15.81,33.51,35.15,47.32,55.16c13.47,19.52,28.84,39.82,37.32,61.88c9.28,24.15,11.66,50.99,15.73,76.37
			c0.51,3.2,1.01,6.4,1.54,9.6c0.05,0.31,0.09,0.53,0.11,0.67c-3.89,6.18,0.52,16.82,8.84,16.17c8.09-0.63,13.23-6.32,14.32-14.21
			C587.7,332.24,586.79,328.52,586.21,324.75z"/>
		<path class="st520" d="M592.96,246.79c-10.89-23.84-23.55-46.77-38.47-68.33c-15.04-21.73-32.08-42.2-50.63-61.03
			c-18.7-18.97-39.32-37.49-63.26-49.59c-26.3-13.3-55.39-16.47-84.5-14.39c-27.28,1.95-54.31,7.79-79.81,17.71
			c-49.07,19.1-91.75,52.28-120.91,96.28c-14.71,22.19-25.25,46.71-32.23,72.36c-3.93,14.43-7.04,29.03-9.72,43.74
			c-2.77,15.19-5.93,30.37-8.32,45.63c-1.2,7.64-2.35,15.3-3.54,22.94c-0.9,5.81,7.33,8.42,9.02,2.49
			c8.1-28.4,15.94-56.99,22.5-85.8c5.84-25.62,13-50.7,25.56-73.91c23.27-43.01,59.92-77.62,103.69-99.26
			c23.18-11.46,48.23-19.11,73.75-23.15c26.31-4.16,54.65-5.11,80.26,3.17c24.01,7.76,44.42,23.81,62.7,40.74
			c18.38,17.02,35.13,35.65,49.8,55.95c14.81,20.49,27.77,42.31,38.65,65.13c5.18,10.86,9.7,21.97,13.72,33.31
			c4.67,13.18,9.25,27.01,11,40.94c0.83,6.6,0.86,13.31,0.27,19.93c-0.52,5.81,5.33,10.78,10.78,10.78
			c6.27,0,10.26-4.96,10.78-10.78C616.71,301.91,605.07,273.3,592.96,246.79z"/>
		<path class="st521" d="M631.86,330.65c-0.37-7.85-1.69-15.79-3.06-23.51c-2.56-14.37-6.49-28.51-11.5-42.21
			c-10.41-28.41-24.77-55.17-40.7-80.83c-7.89-12.7-16.16-25.16-24.55-37.54c-8.72-12.85-17.29-25.88-26.97-38.04
			c-18.24-22.93-43.52-39.97-70.18-51.73c-50.3-22.18-108.6-26.71-161.55-11.51c-28.73,8.25-55.07,22.7-79.3,40
			c-24.67,17.62-49.05,37.21-66.49,62.3c-17.61,25.33-27.86,55.22-36.8,84.5c-9.53,31.19-16.19,63.33-20.49,95.64
			c-1.09,8.19-2.04,16.4-2.85,24.62c-0.44,4.49,7.19,5.57,7.93,1.07c5.11-30.61,12-61.03,20.72-90.82
			c8.29-28.33,16.74-57.2,30.09-83.64c13.2-26.13,32.33-46.97,54.91-65.34c22.3-18.14,46.46-34.84,72.97-46.21
			c47.04-20.16,101.11-21.85,149.74-6.51c24.74,7.8,48.83,20.1,68.69,36.91c22.02,18.63,36.69,44.72,52.07,68.75
			c29.65,46.3,58.16,96.18,65.69,151.54c0.44,3.24,0.76,6.5,1.03,9.75c0.07,0.85,0.16,1.71,0.21,2.58
			c-3.09,2.52-4.57,7.16-3.54,10.91c1.57,5.73,7.14,8.16,12.6,7.16C628.73,346.99,632.2,338.1,631.86,330.65z"/>
	</g>
	<path class="st522" d="M515.1,118.84c-14.37,7.01-30.29,7.77-45.66,3.92c-15.72-3.94-30.77-9.9-46.88-12.33
		c-14.87-2.24-29.69-1.54-43.97,3.39c-8.9,3.07-18.07,7.16-26.47,12.16c-0.13-0.19-0.26-0.37-0.38-0.55
		c-5.02-7.39-11.53-13.96-19.87-17.47c-10.91-4.6-22.57-2.27-34.02-2.76c-13.86-0.6-27.4-4.75-41.12-6.62
		c-13.89-1.89-27.83-2.32-41.82-1.55c-0.64,0.03-1.17,0.23-1.61,0.5c-0.22,0.1-0.42,0.26-0.56,0.45c-1.82,1.84-1.13,5.72,2.17,5.62
		c0.28-0.01,0.56-0.01,0.84-0.02c6.68,10.6,9.71,23.23,7.93,35.78c-0.95,6.72-3.25,13.22-6.7,19.06c-1.69,2.87-3.64,5.56-5.82,8.07
		c-1,1.16-3.98,3.48-5.65,5.36c-1.02-0.15-2.03-0.3-3.05-0.45c-1.59-0.24-3.24,0.65-3.23,2.46c0,0.05,0.01,0.09,0.01,0.14
		c0.14,0.05,0.29,0.1,0.47,0.17c1.07,0.38,2.16,0.72,3.24,1.11c1.57,0.57,3.05,1.2,4.43,1.99c22.33,3.3,44.99,5.69,67.5,3.08
		c22.11-2.56,41.44-10,59.84-22.38c4.03-2.71,7.95-4.88,12.73-5.96c2.88-0.65,6.04-1.25,8.49-2.97
		c11.52,6.58,20.74,16.35,31.02,24.73c11.34,9.24,24,16.89,37.89,21.58c13.73,4.64,29.7,6.78,43.89,2.94
		c13.99-3.78,22.7-16.37,36.11-21.03c2.21-0.77,3.51-3.83,1.48-5.6c-17-14.77,1.72-36.37,12.73-47.65
		C521.74,121.23,518.36,117.25,515.1,118.84z"/>
	<path class="st523" d="M367.25,134.26c-0.34-4.15-2.75-7.7-6.58-9.39c-3.57-1.57-7.38-1.14-11.04-0.22
		c-5.28,0.29-10.33,3.45-11.74,9.13c-0.45,1.8-0.39,3.52,0.02,5.08c0.46,5.89,7.08,9.86,13.15,10.04
		C359.45,149.15,368,143.4,367.25,134.26z"/>
	<path class="st25" d="M179.55,260.03c-3.67-3.98-7.89-7.37-12.7-9.87c-3.31-1.72-9.04-4.96-12.85-3.5
		c-6.12,2.34-0.55,9.28,4.34,13.83c-2.41,0.35-4.79,0.95-7.09,1.82c-3.19,1.21-8.16,3.29-10.01,6.38c-1.33,2.21-0.39,4.44,1.79,5.75
		c1.3,0.79,2.75,1.18,4.25,1.32c-2.21,2.23-4.15,4.72-5.79,7.47c-0.95,1.59-0.04,3.61,1.68,4.13c3.62,1.1,7.01,0.52,10.2-0.83
		c0.16,0.99,0.73,1.87,1.98,2.52c1.78,0.92,3.87,0.73,5.87,0.02c0.24,0.96,0.77,1.86,1.7,2.63c2.68,2.22,6.29,1.16,8.68-0.95
		c2.68-2.37,6.14-5.36,6.74-9.02c1.01-6.1,0.49-12.84,0.71-19.01c0-0.02,0-0.04,0-0.06C179.92,262.21,180.44,260.98,179.55,260.03z"
		/>
	<path class="st25" d="M555.6,256.43c-2.52-2.95-7.48-1.68-10.72-0.81c3.21-3.97,4.57-7.64-0.18-8.52
		c-7.19-1.33-14.7,2.81-19.88,8.25c-0.12-3.54-1.2-6.8-4.8-6.83c-6.27-0.07-8.99,10.4-9.8,14.97c-0.15,0.85,0.35,1.48,0.97,1.75
		c-0.17,0.86-0.03,1.79,0.58,2.52c1.89,2.3,4.26,4.3,4.24,7.44c-0.01,1.53-0.69,2.8-0.19,4.3c1.01,3,5.45,4.92,8.1,5.97
		c6.34,2.49,15.15,2.7,20.75-1.66c0.73-0.56,0.85-1.69,0.66-2.51c-0.21-0.93-0.7-1.72-1.35-2.4c3.74-0.8,6.93-2.45,7.24-6.14
		c0.21-2.5-1.09-4.13-3.03-5.17C554.26,265.08,559.72,261.25,555.6,256.43z"/>
	<path class="st509" d="M87.39,462.01c-15.88-6.66-31.56-3.77-47.58,0.61c-1.51,0.41-1.49,2.14-0.6,2.94c-3.3,2-5.69,4.78-6.09,8.55
		c-0.47,4.44,2.76,8.43,6.62,10.25c5.72,2.71,12.41,0.95,18.29-0.17c7.68-1.46,15.36-3.02,23.06-4.38
		c4.59-0.81,9.35-1.44,13.98-0.55c2.25,0.43,4.8,1.56,7.12,0.78C113.54,476.19,90.33,463.24,87.39,462.01z"/>
	<path class="st509" d="M211.48,534.18c-0.95-6.44-7.27-11.12-12.76-13.68c-7.86-3.67-16.85-4.99-25.36-6.19
		c-8.33-1.17-16.86-2.01-25.31-1.87c-0.13-0.1-0.28-0.18-0.47-0.21c-6.73-0.74-13.44,0.34-19.52,3.38
		c-4.11,2.05-11.6,6.39-11.63,11.76c-0.03,5.65,9.01,8.53,13.35,9.42c8.02,1.65,16.12,0.2,24.15-0.64
		c9.55-1.01,18.18,0.29,27.33,2.98c6.87,2.01,14.76,5.45,22.06,4.63C208.39,543.18,212.28,539.58,211.48,534.18z"/>
	<path class="st509" d="M157.24,423.34c0.02-0.06,0.02-0.11,0.04-0.17c0.36-1.16-1.39-1.61-1.8-0.5c-0.26,0.7-0.4,1.38-0.47,2.06
		c-0.01,0.01-0.02,0.01-0.03,0.02c-0.51,0.48-0.37,1.09,0.04,1.46c0.39,3.92,3.59,7.38,6.6,9.85c3.14,2.58,9.1,5.07,10.88-0.39
		C174.99,428.07,164.11,420.6,157.24,423.34z"/>
	<path class="st509" d="M256.81,527.36c-2.77-4.86-5.93-9.29-7.82-14.6c-1.68-4.73-2.73-9.67-4.95-14.2
		c-4.04-8.2-11.35-14.39-18.18-20.22c-5.66-4.82-11.83-9.39-19.09-10.76c-5.4-2.77-12.88-4.32-14.36,3.35
		c-1.73,8.98,10.59,17.51,16.53,22.06c10.09,7.72,20.1,14.74,27.8,25.02c7.26,9.68,12.71,20.57,18.15,31.33
		c0.7,1.39,2.57,1.11,3.34,0C262.98,542.44,260.66,534.11,256.81,527.36z"/>
	<path class="st509" d="M492.15,501.68c-3.85-4.7-10.27-6.3-16.12-5.66c-13.6,1.49-26.93,12.64-36.45,21.78
		c-9.94,9.55-17.84,20.75-23.56,33.17c-0.73,1.22-1.39,2.49-1.96,3.8c-0.18,0.41-0.23,0.81-0.2,1.19c-0.35,0.86-0.69,1.72-1.02,2.59
		c-0.42,1.12,1.48,1.94,1.96,0.83c0.18-0.43,0.38-0.85,0.56-1.28c0.92,0.41,2.03,0.23,2.71-0.98c3.99-7.03,8.93-12.95,16.22-16.75
		c6.93-3.61,15.05-4.15,21.74-8.33c2.95-1.84,5.51-4.26,8.48-6.08c4.46-2.72,9.02-2.79,14.07-3.14c5.37-0.38,11.46-1.53,14.7-6.33
		C496.36,511.97,495.52,505.8,492.15,501.68z"/>
	<path class="st509" d="M520.2,476.85c-0.86-3.4-6.4-3.96-9.19-3.62c-4.05,0.5-7.5,2.81-9.48,6.36c-0.23,0.42-0.22,0.82-0.07,1.15
		c-0.24,0.39-0.45,0.81-0.64,1.25c-0.12,0.02-0.24,0.05-0.36,0.11c-2.08,1-2.71,2.84-2.1,5.01c0.15,0.53,0.65,1.16,1.23,1.23
		c1.74,0.23,3.48,0.28,5.18,0.13c0.82,0.38,1.84,0.37,2.71-0.38c0.02-0.02,0.04-0.04,0.07-0.06c1.98-0.45,3.91-1.18,5.73-2.26
		C515.91,484.21,521.12,480.51,520.2,476.85z"/>
	<path class="st509" d="M595.15,468.44c-3.8-5.02-11.83-7.15-17.83-6.4c-1.56,0.19-3.1,0.72-4.46,1.5
		c-0.71,0.07-1.38,0.16-1.99,0.27c-1.57,0.28-2.17,1.98-1.8,3.36c-0.77,1.31-1.16,2.79-0.98,4.36c-0.05,3.84,4.48,6.56,9.37,8.11
		c4.13,2.59,9.09,3.88,13.63,2C596.48,479.43,598.83,473.3,595.15,468.44z"/>
	<path class="st509" d="M588.99,506.97c-0.59-4.97-6.11-6.39-10.1-7.78c-23.97-8.38-52.89-6.75-70.37,13.67
		c-0.07,0.08-0.11,0.17-0.15,0.26c-7.36,6.09-14.49,12.51-21.72,18.72c-7.32,6.29-14.57,12.82-18.46,21.85
		c-0.58,1.33-0.28,3.49,1.53,3.77c29.4,4.49,56.26-13.38,85.46-10.98c6.46,0.53,13.52,2.81,19.81,0.17
		c4.11-1.72,7.41-5.89,7.56-10.44c0.17-4.94-3.52-7.75-7.93-8.91c-1.67-0.44-3.38-0.78-5.11-1.05c4.7-1.63,9.12-3.94,12.89-7.28
		C585.65,516.09,589.55,511.67,588.99,506.97z"/>
	<path class="st509" d="M645.75,540.72c-5.71-2.96-12.13-3.52-18.32-1.94c-0.52,0.13-0.76,0.51-0.79,0.91
		c-1.94-0.69-3.99-0.26-5.61,1.25c-1.24,1.16,0.41,3.41,1.85,2.4c3.82-2.69,6.57,6.27,8.72,8.16c1.86,1.64,4.24,2.4,6.65,2.79
		c4.16,0.67,11.54,1.35,14.19-2.97C655.34,546.6,649.31,542.58,645.75,540.72z"/>
	<path class="st509" d="M87.19,506.96c-4.56,0.31-8.81,1.31-12.82,3.02c-6.36-0.7-12.87-0.05-18.91,2.15
		c-4.41,1.61-12.34,6.06-8.37,11.9c3.59,5.28,12.05,2.2,16.68,0.6c8.89-3.08,17.14-7.59,24.61-13.31
		C90.01,510.07,89.78,506.79,87.19,506.96z"/>
	<path class="st84" d="M90.28,645.4c-1.96-14.37-3.84-28.76-6.17-43.07c-2.28-14.03-3.51-29.09-8.3-42.53
		c-0.52-1.46-2.76-1.29-2.78,0.38c-0.14,14.18,3.46,28.7,5.61,42.67c0.62,4.04,1.27,8.08,1.93,12.12
		c-5.05-9.43-10.78-18.46-15.09-28.32c-10.33-23.65-16.44-49.83-16.24-75.67c0.03-3.7-5.64-3.69-5.75,0
		c-0.74,24.85,1.94,49.66,10.04,73.24c3.99,11.61,9.25,22.54,14.88,33.42c2.87,5.54,5.71,11.18,7.34,17.23
		c0.7,2.58,1.13,5.17,1.09,7.85c-0.05,3.34,0.18,5.87,0.7,9.13c0.53,3.32,5.45,4.39,7.56,2c1.79-2.04,3.03-3.53,3.72-5.79
		C89.73,647.6,90.45,646.65,90.28,645.4z"/>
	<path class="st84" d="M102.61,570.3c-1.2-4.48-2.59-8.9-3.72-13.4c-1.09-4.29-1.08-9.09-2.77-13.17c-0.6-1.45-2.68-2.08-3.58-0.47
		c-4.08,7.33,0.18,18.16,2.28,25.57c3.03,10.67,4.15,21.17,3.55,32.26c-0.56,10.39-3.05,20.36-4.39,30.63
		c-0.96,7.35-0.43,14.93,5.19,20.31c0.83,0.8,2.31-0.24,1.65-1.27c-4.99-7.72-1.38-17.66,0.46-25.86c2.03-9.05,3.7-18.23,4.25-27.5
		C106.05,588.26,104.97,579.12,102.61,570.3z"/>
	<path class="st84" d="M115.76,551.94c-0.39-2.83-4.96-2.1-4.93,0.67c0.42,33.73-8.54,67.29-4.99,100.97c0.33,3.15,5.26,3.26,5.02,0
		C108.35,619.53,120.48,585.87,115.76,551.94z"/>
	<path class="st84" d="M477.25,629.25c-0.77-5.81-1.82-11.58-3.08-17.3c-1.19-5.41-3.13-10.79-4.31-16.21
		c0.67-0.44,1.07-1.39,0.69-2.27c-1.48-3.44-5.55-1.1-6.03,1.75c-0.47,2.78,1.42,6.46,2.08,9.15c1.03,4.23,1.95,8.49,2.76,12.77
		c3.16,16.91,4.74,33.99,4.49,51.19c-0.05,3.53,5.38,3.52,5.47,0C479.64,655.26,478.98,642.22,477.25,629.25z"/>
	<path class="st84" d="M484.93,582.33c-1.11-1.53-4.14-0.68-3.33,1.41c5.51,14.17,2.54,28.71,1.15,43.36
		c-1.49,15.68-2.97,32.39,0.02,47.94c0.15,0.77,1.46,0.8,1.58,0c2.63-16.7,2.24-33.9,4-50.74
		C489.76,610.68,493.62,594.33,484.93,582.33z"/>
	<path class="st84" d="M510.12,592.78c-0.53-2.74-4.51-1.92-4.66,0.63c-0.78,13.82,0.21,27.8-0.1,41.66
		c-0.16,6.94-0.48,13.88-0.99,20.81c-0.5,6.83-1.62,13.88-1.34,20.72c0.1,2.41,3.48,2.91,4.21,0.57c2.01-6.45,2.49-13.63,3.13-20.35
		c0.69-7.24,1.19-14.49,1.48-21.75C512.43,621.19,512.75,606.46,510.12,592.78z"/>
	<path class="st84" d="M597.97,630.02c-0.78-12.2-2.57-24.28-4.3-36.37c-3.63-25.35-7.08-51.19-1.4-76.51c0.58-2.6-3.35-3.7-4-1.1
		c-6.78,26.96-3.6,54.69-0.58,81.94c1.53,13.79,3.11,27.66,3.32,41.54c0.1,6.88-0.14,13.78-0.93,20.62
		c-0.46,3.94-1.94,11.08,3.89,11.96c1.4,0.21,2.8-0.14,3.56-1.45c0.11-0.19,0.23-0.39,0.34-0.58c1.06-1.83,0.11-3.51-1.38-4.16
		c0.4-2.53,1.83-15.56,1.87-16.93C598.55,642.66,598.37,636.33,597.97,630.02z"/>
	<path class="st84" d="M639.36,607.22c-3.49,10.25-7.7,20.16-12.63,29.81c-2.26,4.42-4.66,8.77-7.07,13.1
		c-0.21,0.38-0.44,0.77-0.68,1.16c0.87-5.33,1.48-10.68,2.95-15.97c1.98-7.13,4.5-14.1,6.97-21.07
		c5.29-14.91,10.6-29.82,15.94-44.71c1.43-3.99-4.72-5.5-6.26-1.73c-6.12,15.01-12.26,30.01-18.42,45.01
		c-2.81,6.85-5.65,13.69-7.93,20.74c-1.09,3.37-2.3,7.06-3.17,10.79c-0.19-4.42-0.4-8.83-0.48-13.22
		c-0.21-10.9-0.15-21.79-0.15-32.69c0-21.79,0.66-43.53,2.57-65.24c0.26-3.01-4.39-2.97-4.68,0c-2.15,21.71-4.23,43.46-5.52,65.24
		c-0.63,10.56-0.86,21.15-1.02,31.72c-0.16,11.1-0.76,22.6,0.47,33.64c0.38,3.37,5.01,6.64,7.74,3.2c1.08-1.36,2.14-2.84,3.28-4.15
		c0.64-0.74,0.9-1.62,0.88-2.49c0.6,0.15,1.21,0.2,1.81,0.15c-0.32,1.1-0.49,2.21-0.42,3.34c0.19,2.87,2.84,4.21,5.36,3.08
		c4.49-2.02,6.54-8.03,8.7-12.18c2.46-4.75,4.63-9.62,6.69-14.56c4.27-10.22,7.85-20.74,10.93-31.37
		C646.3,605.05,640.61,603.55,639.36,607.22z"/>
	<path class="st84" d="M184.34,556.82c-3.46-10.96-3.36-21.55-3.8-32.87c-0.06-1.54-2.28-1.9-2.72-0.37
		c-3.14,11.06-0.99,23.6,2.41,34.37C181.05,560.56,185.16,559.44,184.34,556.82z"/>
	<path class="st84" d="M189.03,536.54c-0.38-7.3,1.03-15.26-0.42-22.4c-0.44-2.19-3.34-1.74-4,0c-2.62,6.93-1.53,16.05-1.08,23.31
		c0.43,6.81,0.79,15.41,4.71,21.2c0.38,0.56,1.39,0.56,1.56-0.2C191.31,551.55,189.39,543.54,189.03,536.54z"/>
	<path class="st84" d="M202.69,551.97c-1.31-9.24-1.31-18.75-0.45-28.04c0.2-2.19-3.47-2.71-3.87-0.52
		c-1.82,10.03-1.83,19.78-0.41,29.86C198.41,556.37,203.13,555.05,202.69,551.97z"/>
	<path class="st84" d="M450,530.09c-3.6,9.67-3.38,21.61-3.57,31.79c-0.04,2.33,3.55,2.33,3.62,0c0.14-5.27,0.44-10.53,0.96-15.78
		c0.52-5.2,1.61-10.44,1.49-15.67C452.47,528.93,450.49,528.77,450,530.09z"/>
	<path class="st84" d="M459.58,531.74c-2.43,4.5-3.34,9.78-4.41,14.74c-0.91,4.24-2.45,9.49-1,13.65c0.11,0.3,0.56,0.51,0.8,0.21
		c2.73-3.41,3.2-8.6,4.06-12.79c1.03-5,2.61-10.11,2.62-15.24C461.66,531.22,460.11,530.75,459.58,531.74z"/>
	<path class="st84" d="M479.45,514.67c-0.12-2.03-2.84-1.93-3.09,0c-2.03,15.92-5.28,31.56-12.12,46.17c-1.38,2.96,3,5.55,4.41,2.58
		C475.86,548.19,480.47,531.61,479.45,514.67z"/>
	<path class="st438" d="M314.11,240.77c-3.12-1.53-6.69-1.18-9.61,0.41c-1.67,0.51-3.22,1.47-4.44,2.86
		c-3.57,4.04-2.57,10.24,1.54,13.48c0.51,0.4,1.08,0.46,1.57,0.32c3.68,3.49,10.83,1.55,13.84-2.06
		C320.9,251.09,319.74,243.53,314.11,240.77z"/>
	<path class="st438" d="M388.63,248.56c0.62-3.33-0.34-6.87-3.05-9.15c-1.92-1.62-4.3-2.12-6.64-1.84
		c-2.67-0.66-5.55-0.41-8.22,1.08c-7.33,4.09-7.11,15.61,0.99,18.58c0.08,0.1,0.15,0.2,0.24,0.3c6.66,6.77,17.32,0.15,16.72-8.56
		C388.66,248.83,388.65,248.69,388.63,248.56z"/>
	<path class="st48" d="M315.37,250.4c-0.66-2.88-3.41-4.67-6.13-5.32c-5.38-1.28-11.63,2.99-9.92,8.98
		c0.54,1.88,1.83,3.24,3.43,4.05c0.39,0.25,0.8,0.46,1.23,0.62c0.81,0.3,1.63,0.42,2.44,0.42c2.59,0.46,5.37-0.16,7.13-2.14
		c0.71-0.8,1.07-1.74,1.13-2.69C315.38,253.19,315.71,251.9,315.37,250.4z"/>
	<path class="st48" d="M382.29,248.64c-0.82-1.59-2.29-2.72-3.99-3.36c-1.65-1.03-3.56-1.51-5.33-1c-1.75,0.5-2.95,1.48-3.68,2.7
		c-2.26,1.66-3.3,4.91-1.82,7.41c0.2,0.33,0.42,0.62,0.67,0.89c0.52,1.12,1.36,2.07,2.45,2.67c1.69,3.16,6.05,3.71,8.95,1.97
		c1.86-1.12,2.78-3.15,2.87-5.24C383.3,252.96,383.41,250.82,382.29,248.64z"/>
	<path class="st48" d="M349.57,259.49c-1.08-1.54-3.46-1.06-5.24-0.32c-0.1-1.03-0.06-2.13-0.11-3.08c-0.05-1-1.5-1-1.55,0
		c-0.07,1.41,0.09,3.14-0.33,4.49c-0.31,1.01,0.85,1.77,1.71,1.31c0.46-0.24,2.85-1.38,3.29-0.86c0.25,0.3-1.58,1.52-1.78,1.64
		c-1.55,0.89-0.19,3.1,1.38,2.36C348.66,264.24,350.95,261.44,349.57,259.49z"/>
	<path class="st48" d="M307.25,226.96c-0.02-0.02-0.04-0.03-0.06-0.04c0.11-2.12-2.01-2.82-3.87-2.49
		c-1.79,0.32-4.24,1.13-5.14,2.88c-0.65,1.27-0.29,2.55,0.56,3.46c0.04,0.76,0.97,1.29,1.65,1.06c1.76,0.61,3.84,0.22,5.41-0.7
		C307.24,230.3,308.88,228.48,307.25,226.96z"/>
	<path class="st48" d="M380.37,225.48c-2.82-1.29-6.74-1.78-9.4,0.22c-0.49,0.37-0.85,0.85-1.06,1.38
		c-0.72,0.73-0.42,1.88,0.33,2.44c0.79,1.06,2.27,1.5,3.55,1.47c0.29-0.01,0.61-0.06,0.95-0.15c0.18,0.15,0.39,0.27,0.65,0.34
		c2.17,0.53,4.01-0.84,5.41-2.39C381.61,227.88,381.67,226.08,380.37,225.48z"/>
	<path class="st48" d="M365.69,268.29c-1.23-1.12-3.04,0.56-2.11,1.74c-0.02,0.04-0.05,0.08-0.08,0.14
		c-0.13,0.15-0.27,0.28-0.44,0.38c-0.4,0.29-0.88,0.51-1.31,0.74c-0.77,0.42-1.56,0.81-2.36,1.17c-1.61,0.72-3.29,1.31-4.98,1.78
		c-3.59,1-7.29,1.47-11.02,1.41c-7.24-0.1-14.01-2.25-20.21-5.87c0.16-0.34,0.33-0.68,0.49-1.02c0.31-0.65-0.54-1.47-1.07-0.83
		c-0.43,0.52-0.86,1.04-1.29,1.57c-0.41,0.51-0.32,1.07,0.19,1.46c10.67,8.23,26.38,9.21,38.58,4.08c1.67-0.7,3.62-1.44,5-2.64
		C366.28,271.39,367.06,269.54,365.69,268.29z"/>
	<path class="st48" d="M282.45,248.05c-0.19-1.04-0.89-2.06-1.88-2.48c0,0,0,0-0.01,0c-0.41-0.4-0.96-0.64-1.58-0.67
		c-1-0.05-1.89,0.5-2.41,1.33c-0.57,0.91-0.66,2.07-0.56,3.12c0.11,1.17,0.35,2.33,0.72,3.44c0.22,0.68,0.54,1.34,1.27,1.57
		c0.76,0.24,1.38-0.23,1.91-0.7c0.8-0.7,1.58-1.53,2.06-2.48C282.47,250.19,282.65,249.14,282.45,248.05z"/>
	<path class="st48" d="M411.19,245.69c-0.11-0.28-0.25-0.54-0.41-0.77c-0.02-0.3-0.09-0.59-0.26-0.87c-0.44-0.72-1.24-0.9-1.99-0.72
		c-0.33-0.09-0.66-0.15-1.02-0.16c-0.15-0.01-0.3,0.02-0.45,0.02c-0.71-0.19-1.49-0.09-2.12,0.27c-0.37-0.17-0.78-0.23-1.2-0.1
		c-1.59,0.48-1.63,2.54-1.68,3.9c-0.05,1.38,0.15,2.85,0.68,4.12c0.51,1.21,1.38,2.36,2.72,2.7c1.35,0.35,2.7-0.22,3.61-1.23
		c0.85-0.95,1.42-2.11,1.86-3.3C411.4,248.35,411.66,246.92,411.19,245.69z"/>
	<path class="st524" d="M309,253.31c-0.23,0.07-0.46,0.11-0.7,0.16c-1.1-1.06-3.37-1.27-4.71-1.13c-2.56,0.27-3.26,3.06-1.21,4.6
		c0.15,0.11,0.31,0.2,0.47,0.29c1.1,1.45,2.99,2.56,4.79,2.15c1.99-0.45,2.9-2.24,3.37-4.06C311.33,254.14,310.22,252.95,309,253.31
		z"/>
	<path class="st524" d="M378.3,254.29c-0.63-3.56-6.54-3.53-9.24-1.89c-0.65,0.4-1.04,1.24-0.87,1.99c-0.21,0.81,0,1.77,0.56,2.35
		c1.44,1.47,3.27,2.67,5.42,2.51c1.81-0.13,3.45-1.22,3.98-2.98C378.45,255.69,378.51,254.93,378.3,254.29z"/>
	<path class="st525" d="M315.05,252.15c-0.08-0.25-0.26-0.44-0.51-0.51c-0.25-0.07-0.53,0-0.71,0.19c-0.02,0.02-0.03,0.03-0.05,0.05
		c-0.04-0.04-0.08-0.08-0.14-0.09c-0.26-0.06-0.52,0.05-0.64,0.29c-0.01,0.02-0.02,0.05-0.03,0.08c-0.1,0-0.2,0.01-0.29,0.03
		c-0.35,0.09-0.67,0.28-0.93,0.53c-0.13,0.13-0.2,0.3-0.23,0.48c-0.02,0.17-0.01,0.39,0.1,0.53c0.17,0.23,0.33,0.4,0.57,0.56
		c0.17,0.11,0.37,0.2,0.57,0.24c0.47,0.11,0.94,0.06,1.37-0.16C314.91,253.98,315.31,252.97,315.05,252.15z"/>
	<path class="st525" d="M383.39,250.92c-0.32-0.12-0.64-0.21-0.97-0.27c-0.21-0.04-0.43-0.06-0.65-0.08
		c-0.08-0.01-0.17-0.01-0.25-0.01c-0.04,0-0.08,0-0.13,0c0.13,0.02,0.12,0.02-0.02,0c-0.4-0.05-0.83,0.02-1.22,0.08
		c-0.45,0.08-1.11,0.19-1.31,0.66c-0.12,0.27-0.16,0.5-0.04,0.78c0.11,0.27,0.31,0.4,0.57,0.51c0.19,0.08,0.4,0.06,0.6,0
		c0.07-0.03,0.13-0.06,0.2-0.08c0.01,0,0,0,0.01,0c0.15-0.05,0.3-0.11,0.45-0.16c0.14-0.04,0.28-0.08,0.43-0.11
		c0.06-0.01,0.12-0.02,0.19-0.03c0.09-0.01,0.08-0.01-0.04,0c0.1-0.01,0.19-0.02,0.28-0.04c-0.21-0.03,0.01,0,0.06,0
		c0.07,0,0.15,0,0.22,0c0.15,0,0.29,0.01,0.44,0.02c0.03,0,0.06,0.01,0.09,0.01c0.01,0,0,0,0.02,0c0.06,0.01,0.12,0.02,0.19,0.03
		c0.17,0.03,0.33,0.08,0.49,0.12c0.37,0.11,0.82-0.13,0.91-0.52C384,251.41,383.77,251.07,383.39,250.92z"/>
	<path class="st525" d="M310.43,252.18c-0.67,0-0.68,1.05,0,1.05C311.1,253.23,311.1,252.18,310.43,252.18z"/>
	<path class="st525" d="M377.61,252.56c-0.04-0.13-0.12-0.27-0.25-0.33c-0.06-0.03-0.13-0.06-0.19-0.09
		c-0.01-0.01-0.01-0.01-0.01-0.02l-0.13-0.1c-0.02-0.02-0.05-0.03-0.07-0.05c-0.02-0.02-0.04-0.03-0.07-0.05
		c-0.12-0.08-0.26-0.1-0.4-0.11c-0.06,0-0.11-0.01-0.17-0.01c-0.1,0-0.21,0.01-0.31,0.03c-0.19,0.04-0.35,0.21-0.4,0.4
		c-0.03,0.1-0.03,0.2,0,0.3c0.03,0.1,0.08,0.18,0.15,0.25c0.1,0.12,0.25,0.21,0.38,0.3c0.01,0.01,0.02,0.02,0.04,0.02
		c0.06,0.02,0.11,0.05,0.17,0.07c0.06,0.01,0.12,0.02,0.18,0.02c0.03,0,0.06,0,0.09,0c0.03,0,0.06,0,0.09,0
		c0.03,0,0.07-0.01,0.11-0.01c0.04,0.01,0.09,0.02,0.13,0.03c0.14,0.03,0.3,0.02,0.42-0.06c0.04-0.03,0.07-0.06,0.11-0.09
		c0.05-0.05,0.09-0.11,0.11-0.18C377.62,252.8,377.64,252.67,377.61,252.56z"/>
	<path class="st508" d="M117.25,286.42c-0.36-3.61-2.49-6.63-5.31-8.8c-0.74-0.57-1.56-1.13-2.43-1.66
		c0.09-0.06,0.19-0.12,0.28-0.18c2.52-1.79,3.04-5.21,2.56-8.07c-0.79-4.75-4.33-8.43-8.65-10.31c5.95-3.17,4.98-11.23,3.49-17.16
		c-1.01-4.02-2.75-7.93-5.11-11.33c-1.27-1.84-2.86-4.04-4.83-4.94c-0.01-0.31-0.02-0.61-0.03-0.92c-0.03-0.85-1.34-0.85-1.32,0
		c0,0.18,0.01,0.36,0.01,0.54c-0.83-0.09-1.71,0.05-2.66,0.55c-0.95,0.49-1.2,1.3-1.02,2.05c-4.95,2.84-9,7.2-11.32,12.45
		c-2.59,5.86-3.07,13.71,2.65,17.94c0.15,0.11,0.31,0.22,0.47,0.32c-4.04,2.71-7.83,5.99-10.19,10.11
		c-2.81,4.89-3.02,12.73,2.82,15.59c0.11,0.06,0.23,0.1,0.35,0.15c-0.89,0.74-1.77,1.49-2.61,2.28c-2.48,2.32-5.54,5.15-7.01,8.25
		c-1.39,2.94-0.04,5.95,2.44,7.8c2.68,2,6.22,2.2,9.44,2.1c5.54-0.17,11.07-0.89,16.49-2.09c-0.15,12.01-0.27,24.02-0.24,36.02
		c0.01,2.7,4.01,2.66,4.17,0c0.13-2.15,0.26-4.29,0.38-6.44c0.03-0.44-0.07-0.8-0.24-1.08c0.14-9.82,0.08-19.65-0.08-29.48
		c1.23-0.33,2.45-0.68,3.66-1.06C109.77,297.06,118.08,294.69,117.25,286.42z"/>
	<path class="st292" d="M97.06,262.09c-0.56-5.66-3.9-10.39-8.32-13.79c-1.16-0.89-2.45-1.77-3.81-2.59c0.15-0.1,0.3-0.19,0.44-0.29
		c3.95-2.8,4.76-8.16,4.01-12.64c-1.24-7.44-6.79-13.21-13.55-16.15c9.32-4.97,7.8-17.61,5.48-26.89
		c-1.58-6.3-4.31-12.42-8.01-17.76c-2-2.89-4.47-6.34-7.57-7.74c-0.02-0.48-0.03-0.96-0.05-1.44c-0.05-1.33-2.1-1.33-2.07,0
		c0.01,0.28,0.01,0.57,0.02,0.85c-1.29-0.15-2.68,0.09-4.17,0.86c-1.48,0.77-1.88,2.03-1.6,3.21c-7.76,4.45-14.1,11.28-17.75,19.51
		c-4.07,9.18-4.8,21.49,4.16,28.11c0.24,0.18,0.49,0.34,0.74,0.51c-6.32,4.25-12.26,9.39-15.96,15.84
		c-4.4,7.67-4.74,19.95,4.42,24.43c0.18,0.09,0.36,0.16,0.55,0.24c-1.39,1.15-2.77,2.33-4.09,3.57c-3.89,3.63-8.68,8.07-10.98,12.93
		c-2.18,4.61-0.06,9.32,3.82,12.22c4.2,3.14,9.74,3.45,14.8,3.29c8.68-0.27,17.35-1.4,25.85-3.28c-0.23,18.82-0.42,37.64-0.38,56.46
		c0.01,4.23,6.28,4.17,6.53,0c0.2-3.36,0.4-6.73,0.6-10.1c0.04-0.69-0.11-1.25-0.38-1.69c0.21-15.4,0.13-30.79-0.13-46.19
		c1.92-0.52,3.84-1.06,5.74-1.66C85.33,278.77,98.35,275.06,97.06,262.09z"/>
	<path class="st508" d="M636.82,261.71c-0.5-5.04-3.47-9.25-7.41-12.28c-1.03-0.79-2.18-1.58-3.39-2.31
		c0.13-0.09,0.26-0.17,0.39-0.26c3.52-2.49,4.24-7.27,3.57-11.26c-1.11-6.63-6.05-11.76-12.07-14.38c8.3-4.43,6.95-15.68,4.88-23.95
		c-1.41-5.61-3.84-11.06-7.13-15.82c-1.78-2.57-3.99-5.64-6.74-6.89c-0.01-0.43-0.03-0.86-0.05-1.28c-0.04-1.18-1.87-1.19-1.84,0
		c0.01,0.25,0.01,0.51,0.02,0.76c-1.15-0.13-2.39,0.08-3.72,0.76c-1.32,0.68-1.67,1.81-1.42,2.86
		c-6.91,3.97-12.56,10.05-15.81,17.38c-3.62,8.18-4.28,19.14,3.71,25.04c0.21,0.16,0.44,0.3,0.66,0.45
		c-5.63,3.78-10.92,8.36-14.22,14.1c-3.92,6.83-4.22,17.77,3.94,21.76c0.16,0.08,0.32,0.14,0.49,0.21
		c-1.24,1.03-2.46,2.08-3.64,3.18c-3.46,3.23-7.73,7.19-9.78,11.51c-1.94,4.1-0.05,8.3,3.4,10.88c3.74,2.79,8.68,3.07,13.18,2.93
		c7.73-0.24,15.45-1.25,23.02-2.92c-0.21,16.76-0.37,33.52-0.34,50.28c0.01,3.77,5.6,3.71,5.82,0c0.18-3,0.36-5.99,0.54-8.99
		c0.04-0.61-0.1-1.11-0.34-1.51c0.19-13.71,0.12-27.43-0.12-41.14c1.71-0.46,3.42-0.94,5.11-1.48
		C626.37,276.57,637.97,273.26,636.82,261.71z"/>
	<path class="st526" d="M672.31,259.9c-0.6-6-4.14-11.02-8.83-14.62c-1.23-0.95-2.59-1.88-4.04-2.75c0.15-0.1,0.31-0.2,0.46-0.31
		c4.19-2.97,5.05-8.66,4.26-13.41c-1.32-7.89-7.2-14.01-14.37-17.13c9.88-5.28,8.27-18.67,5.81-28.52
		c-1.67-6.68-4.57-13.17-8.49-18.84c-2.12-3.06-4.75-6.72-8.03-8.2c-0.02-0.51-0.04-1.02-0.05-1.53c-0.05-1.41-2.23-1.42-2.19,0
		c0.01,0.3,0.01,0.6,0.02,0.91c-1.37-0.16-2.84,0.09-4.43,0.91c-1.57,0.81-1.99,2.16-1.69,3.4c-8.23,4.72-14.96,11.96-18.82,20.69
		c-4.31,9.74-5.1,22.79,4.41,29.82c0.25,0.19,0.52,0.36,0.78,0.54c-6.71,4.5-13.01,9.95-16.93,16.8
		c-4.66,8.13-5.02,21.16,4.69,25.91c0.19,0.09,0.39,0.17,0.58,0.25c-1.48,1.22-2.93,2.47-4.34,3.78c-4.12,3.85-9.2,8.56-11.64,13.71
		c-2.31,4.89-0.06,9.88,4.05,12.96c4.45,3.33,10.33,3.66,15.7,3.49c9.2-0.29,18.4-1.48,27.41-3.48c-0.24,19.96-0.44,39.92-0.4,59.88
		c0.01,4.49,6.66,4.42,6.93,0c0.21-3.57,0.43-7.14,0.64-10.71c0.04-0.73-0.12-1.32-0.41-1.8c0.23-16.33,0.14-32.66-0.14-48.99
		c2.04-0.55,4.07-1.12,6.08-1.76C659.87,277.59,673.68,273.65,672.31,259.9z"/>
	<path class="st507" d="M555.46,499.98c-4.14,1.06-7.87,3.3-10.65,6.32c-1.12,0.32-2.24,0.65-3.32,1.03
		c-4.73,1.66-6.18,6.72-2.87,10.63c0.18,0.21,0.37,0.41,0.56,0.6c0.09,0.64,0.33,1.26,0.71,1.78c0.21,1.57,1.97,2.07,3.01,1.45
		c0.25-0.01,0.51-0.04,0.78-0.1c0.47-0.11,0.92-0.23,1.39-0.35c2.5,0.37,5.16,0.07,7.46-0.67c1.93-0.62,3.66-1.55,5.32-2.61
		c3.46-0.2,7.4-1.61,9.81-2.48c3.68-1.33,8.2-3.79,8.86-8.09C578.02,497.86,560.85,498.6,555.46,499.98z"/>
	<path class="st507" d="M227.32,484.58c0.03-1.34-0.06-2.68-0.28-4c0.03-0.81-0.05-1.62-0.25-2.38c-0.3-1.14-0.81-2.14-1.46-3.05
		c-1.22-2.57-2.99-4.9-5.27-6.76c-2.41-1.98-5.94-3.91-8.97-2.1c-3.24,1.92-2.89,6.41-1.95,9.53c0.66,2.18,2.13,5.35,4.11,7.96
		c0.69,1.67,1.59,3.22,2.61,4.51c2.55,3.23,8.33,6.79,11.62,2.41C229.01,488.68,228.76,486.07,227.32,484.58z"/>
	<path class="st507" d="M151.3,524.8c-3.83-3.57-10.79-5.01-14.26-0.38c-0.21-0.05-0.42-0.08-0.62-0.14
		c-2.91-0.8-4.52,3.22-2.02,4.79c0.52,0.32,1.05,0.61,1.59,0.87c1.07,3.37,4.96,5.82,8.52,3.71c1.1-0.65,1.43-1.63,1.27-2.53
		c1.72-0.35,3.4-1,4.96-1.94C152.23,528.28,152.64,526.04,151.3,524.8z"/>
	<path class="st507" d="M156.17,596.5c-7.65-0.09-14.76,2.19-20.83,6.52c-2.81,0.89-5.59,1.88-8.35,2.95
		c-1.53,0.59-2.72,2.43-1.64,4.03c3.72,5.51,10.28,7.33,16.62,5.71c3.69-0.94,6.77-2.99,9.49-5.51c2.13-1.15,3.99-2.73,5.33-4.84
		c0.36-0.57,0.47-1.12,0.42-1.63c0.6-0.77,1.2-1.55,1.78-2.31C160.56,599.35,158.4,596.52,156.17,596.5z"/>
	<path class="st507" d="M567.41,605.39c-1.17-5.82-7.55-8.7-12.81-9.71c-6.83-1.31-13.72,0.14-19.61,3.77
		c-1.96,1.21-1.28,3.74,0.28,4.53c0.32,0.88,0.92,1.67,1.66,2.13c2.69,1.69,5.49,2.97,8.37,3.88c1.94,1.22,3.95,2.34,6.04,3.21
		c0.31,0.62,0.89,1.12,1.8,1.34c1.47,0.36,2.94,0.47,4.33,0.32c0.75,0.09,1.51,0.14,2.28,0.13
		C564.98,614.92,568.44,610.53,567.41,605.39z"/>
	<path class="st507" d="M393.42,640.4c-9.64,3.09-18.18,3.09-27.91,0.17c-9.26-2.78-17.99-7.08-27.24-9.88
		c-9.13-2.76-17.67-2.86-27.1-1.97c-10.68,1.01-20.85-0.4-30.54-5.15c-1.44-0.71-2.71,1.41-1.27,2.17
		c8.47,4.44,17.77,6.81,27.36,6.59c5.32-0.12,10.64-1,15.97-0.62c5.78,0.42,11.4,2.22,16.76,4.35c16.6,6.6,38.35,20.48,56.31,9.91
		C398.67,644.25,396.77,639.33,393.42,640.4z"/>
	<path class="st507" d="M239.29,625.78c-9.22-3.52-18.62-6.2-28.09-8.93c-7.39-2.13-14.7-4.16-22.08-1.02
		c-1.72,0.73-0.48,3.73,1.29,3.06c7.99-3.06,16.45,0.88,24.07,3.4c7.9,2.61,15.73,5.13,23.83,7.08
		C240.67,629.94,241.5,626.62,239.29,625.78z"/>
	<path class="st507" d="M445.22,639.25c-5.57,0.82-10.18,1.93-15.8,0.43c-2.32-0.62-3.31,2.99-0.99,3.59
		c5.59,1.46,12.83,1.86,17.88-1.45C447.71,640.9,446.76,639.03,445.22,639.25z"/>
	<path class="st507" d="M545.02,635.07c-3.53-0.52-7.67,0.88-11.16,1.5c-2.63,0.47-1.53,4.57,1.11,4.03
		c1.82-0.37,3.64-0.74,5.46-1.11c1.71-0.35,3.45-0.55,4.98-1.44C546.52,637.41,546.47,635.28,545.02,635.07z"/>
	<path class="st54" d="M411.61,230.71c-4.78-6.09-12.04-8.6-18.32-12.73c-4.64-3.05-7.66-7.74-12.32-10.05
		c-0.68-2.86-0.28-5.98,1.72-9.39c1.15-1.96-0.32-4.55-2.6-4.54c-6.27,0.05-12.36,1.55-17.83,4.68c-2.68,1.54-5.16,3.5-7.34,5.68
		c-1.77,1.77-2.24,2.42-4.55,1.1c-1.06-0.61-1.9-1.88-2.82-2.67c-4.35-3.76-9.83-4.92-15.42-5.37c-7.61-0.61-15.73-1.45-23.35-1.01
		c-1.73,0.1-2.54,1.72-1.85,3.23c0.15,0.33,0.28,0.66,0.42,0.99c0.43,3.74,1.48,7.36,2.81,10.89c-0.31,0.2-0.64,0.43-0.98,0.7
		c-2.87,1.4-5.63,2.88-8.28,4.7c-4.1,2.82-8.18,5.8-13.49,4.8c-2.02-0.38-4.05,2.16-2.2,3.78c3.46,3.02,7.88,3.32,12.01,1.39
		c5.48-2.56,11.38-7.81,15.48-12.13c0.56-0.59,0.66-1.35,0.46-2.01c0-0.01,0-0.02,0-0.04c0.47-0.28,0.79-0.79,0.75-1.54
		c-0.18-3.44-0.83-6.68-1.86-9.89c6.15,0.9,12.49,1.07,18.63,1.78c3.43,0.39,7.18,0.86,10.25,2.55c2.6,1.43,4.21,3.92,6.62,5.57
		c5.06,3.46,8.52,0.65,12.29-3c4.38-4.24,9.83-6.84,15.71-7.77c-0.46,2.04-0.56,4.12-0.33,6.18c-2.54,0.45-2.93,4.72-0.12,5.34
		c0.57,0.13,1.13,0.33,1.67,0.56c1,2.4,2.41,4.67,4.13,6.68c6.83,7.96,17.65,12.05,26.84,16.51
		C411.14,237.34,413.83,233.53,411.61,230.71z"/>
	<path class="st54" d="M159.9,259.33c-1.5-1.22-3.17-2.11-4.56-3.49c-1.42-1.41-4.08-3.94-2.87-6.16c0.46-0.84-0.71-1.48-1.26-0.74
		c-3.27,4.46,3.57,11.13,7.4,12.6C159.83,262.01,160.91,260.15,159.9,259.33z"/>
	<path class="st54" d="M149.37,274.53c-1.66-0.03-3.27-0.35-4.77-1.09c-1-0.49-4.07-2.48-1.95-3.61c0.71-0.38,0.22-1.51-0.54-1.29
		c-2.32,0.66-2.59,3.5-1.3,5.24c1.86,2.5,5.63,3.5,8.56,3.72C151.26,277.62,151.29,274.56,149.37,274.53z"/>
	<path class="st54" d="M175.35,282.36c-1.48,1.67-2.81,3.47-4.43,5.02c-0.75,0.72-1.91,2.11-2.91,2.41c-1.81,0.54-3.06-1-4.12-1.76
		c-0.64-0.46-1.03-0.98-1.78-1.23c-1.92-0.64-7.25,1.65-7.6-1.67c-0.1-0.91-0.86-1.7-1.85-1.41c-1.24,0.37-2.48,0.73-3.71,1.13
		c-0.49,0.17-0.98,0.33-1.47,0.5c-1.43,0.66-2.84,0.29-4.22-1.13c0.72-0.5,0.09-1.61-0.69-1.18c-1.61,0.89-1.95,2.97-0.72,4.4
		c2.13,2.45,7.09,0.64,10.2-0.44c0.48,1.15,1.34,2.01,2.73,2.55c1.4,0.55,2.72,0.15,4.15,0.27c1.37,0.11,2.62,0.56,3.67,1.23
		c0.38,0.24,0.44,0.75,0.85,0.98c5.72,3.23,11.24-3.63,13.92-8.13C178.08,282.69,176.33,281.25,175.35,282.36z"/>
	<path class="st54" d="M522.98,251.99c-0.41-1.15-1.32-1.98-2.48-2.34c-1.23-0.38-1.67,1.44-0.52,1.89
		c0.91,0.36,1.18,1.36,0.85,2.21c-0.36,0.95-0.7,1.76-0.08,2.69c0.66,0.98,2.53,0.39,2.04-0.86c-0.2-0.51,0.28-1.27,0.36-1.8
		C523.26,253.18,523.19,252.56,522.98,251.99z"/>
	<path class="st54" d="M545.83,247.17c-0.99-0.49-2.09-0.34-2.84,0.48c-0.73,0.81,0.39,1.93,1.19,1.19c0.59-0.13,0.85,0.1,0.76,0.69
		c-0.09,0.48-0.29,0.9-0.62,1.26c-0.42,0.61-1,1.15-1.48,1.7c-0.97,1.1-2.27,2.14-2.64,3.59c-0.18,0.7,0.51,1.61,1.29,1.29
		c1.66-0.68,2.7-2.42,3.84-3.76c0.89-1.05,1.84-2.17,1.96-3.61C547.4,248.78,546.97,247.74,545.83,247.17z"/>
	<path class="st54" d="M557.31,257.4c-0.31-1.18-2.02-0.67-1.8,0.5c0.48,2.66-3.06,3.81-4.9,4.72c-1.96,0.96-3.92,1.91-5.88,2.87
		c-1.73,0.84-0.17,3.59,1.52,2.6c2.91-1.72,6.13-3.24,8.82-5.28C556.82,261.48,557.88,259.61,557.31,257.4z"/>
	<path class="st54" d="M548.97,270.27c-0.87-0.9-2.13,0.42-1.35,1.35c1.55,1.87-6.66,4.86-7.36,5.11c-1.16,0.4-1.37,1.88-0.33,2.56
		c1.06,0.7,2.73,1.72,2.63,3.23c-0.05,0.66-0.88,1.59-1.09,2.31c-0.16,0.53,0.19,1.16,0.73,1.29c2.12,0.49,3.27-1.69,3.28-3.6
		c0-1.71-0.89-3.06-2.08-4.14C546.91,276.71,552.18,273.57,548.97,270.27z"/>
	<path class="st54" d="M319.85,442.52c-2.2-3.34-7.03-0.53-9.81,0.3c-11.64,3.49-23.66,5.48-35.61,7.65
		c-2.6,0.47-1.92,4.51,0.61,4.52c2.66,0.01,5.31,0.04,7.97,0.08c5.33,0.71,10.51,1.8,15.88,3.36c6.34,1.85,12.47,3.15,18.94,1.22
		c1-0.3,1.48-1.11,1.59-2.09c0.35-3.17,0.62-6.34,0.73-9.52C320.22,446.48,320.79,443.94,319.85,442.52z"/>
	<path class="st54" d="M380.15,456.27c-1.14-1.4-2.5-2.13-3.97-2.6c0.2-0.6,0.04-1.27-0.72-1.63c-4.64-2.22-10.28-3.96-15.59-5.1
		c-1.67-0.94-3.38-1.83-5.2-2.57c-1.13-0.46-2.32,0.51-2.66,1.51c-1.64,4.83-3.28,9.66-4.95,14.48c-0.84,2.43,2.57,3.46,3.89,1.64
		c0.26-0.36,0.53-0.7,0.79-1.05c3.7-1.87,8.83-2.05,12.61-2.38c4.72-0.41,9.3-0.2,13.92,0.94
		C380.26,460.01,381.33,457.73,380.15,456.27z"/>
	<path class="st527" d="M212.1,376.39c-0.77-1.1-1.9-1.95-2.79-2.96c-0.02-0.02-0.04-0.05-0.06-0.07c0.88-1.1,1.75-2.19,2.63-3.29
		c0.65-0.81-0.42-1.96-1.17-1.17c-0.91,0.97-1.82,1.93-2.72,2.9c-0.46-0.62-0.9-1.25-1.31-1.9c-0.77-1.21-2.69-0.1-1.93,1.13
		c0.52,0.84,1.08,1.64,1.67,2.42c-1.03,1.02-2.32,2.1-2.66,3.48c-0.15,0.6,0.44,1.39,1.11,1.11c1.28-0.53,2.1-1.73,2.93-2.85
		c0.82,0.99,1.75,2.06,2.84,2.64C211.52,378.3,212.75,377.32,212.1,376.39z"/>
	<path class="st527" d="M240.41,369.52c-1.28-1.1-2.52-2.21-3.68-3.41c0.56-0.82,1.12-1.64,1.68-2.46c0.89-1.3-1.24-2.54-2.11-1.24
		c-0.41,0.61-0.82,1.22-1.23,1.84c-0.56-0.68-1.08-1.38-1.57-2.13c-0.15-0.23-0.47-0.03-0.37,0.21c0.4,0.95,0.86,1.87,1.38,2.75
		c-0.25,0.37-0.49,0.73-0.74,1.1c-0.76,1.13-1.83,2.33-2.03,3.71c-0.1,0.7,0.55,1.36,1.25,0.96c1.22-0.7,1.94-2.1,2.71-3.23
		c0.08-0.12,0.17-0.25,0.25-0.37c1,1.31,2.16,2.49,3.53,3.47C240.18,371.24,241.08,370.09,240.41,369.52z"/>
	<path class="st527" d="M267.24,372.98c-0.6-1.76-2.01-3.11-3.2-4.49c-0.04-0.05-0.08-0.09-0.12-0.14c0.24-0.23,0.47-0.46,0.72-0.68
		c1.23-1.09-0.59-2.92-1.81-1.81c-0.21,0.19-0.4,0.4-0.6,0.59c-0.82-0.9-1.65-1.8-2.5-2.68c-0.7-0.73-1.71,0.34-1.09,1.09
		c0.8,0.96,1.58,1.94,2.35,2.92c-0.23,0.27-0.47,0.53-0.69,0.81c-0.71,0.91-1.59,1.89-1.57,3.11c0.01,0.72,0.75,1.08,1.36,0.78
		c0.99-0.48,1.5-1.58,2.18-2.4c0.08-0.1,0.18-0.19,0.26-0.29c0.04,0.06,0.09,0.11,0.13,0.17c1.03,1.4,1.89,2.95,3.29,3.99
		C266.56,374.42,267.47,373.67,267.24,372.98z"/>
	<path class="st527" d="M235.56,396.13c-0.31-0.35-0.87-0.38-1.26-0.16c-0.05,0.03-0.1,0.05-0.15,0.08
		c-0.28,0.15-0.41,0.37-0.46,0.6c-0.1,0.05-0.22,0.13-0.39,0.27c-0.21,0.11-0.43,0.21-0.65,0.31c-0.37-0.78-0.76-1.54-1.2-2.28
		c-0.82-1.38-3-0.12-2.16,1.26c0.4,0.66,0.77,1.34,1.11,2.03c-0.22,0.09-0.44,0.2-0.66,0.29c-1.51,0.62-3.04,1.16-4.59,1.67
		c-1.52,0.49-0.88,2.9,0.66,2.41c1.88-0.6,3.73-1.28,5.54-2.04c0.34,1.07,0.54,2.18,1.29,3.04c0.47,0.53,1.32,0.21,1.51-0.4
		c0.37-1.19-0.08-2.48-0.53-3.64c0.02-0.01,0.05-0.02,0.07-0.03C235.02,398.93,237.01,397.77,235.56,396.13z"/>
	<path class="st527" d="M194.32,392.01c0.47-0.47,0.09-1.17-0.51-1.23c-1.37-0.14-2.8,0.65-4.08,1.1c-0.14,0.05-0.28,0.1-0.42,0.15
		c-0.25-1.1-0.39-2.23-0.37-3.47c0.02-1.3-1.97-1.3-2.02,0c-0.06,1.38,0.03,2.81,0.29,4.2c-0.63,0.22-1.26,0.44-1.89,0.66
		c-1.26,0.44-0.7,2.46,0.55,2c0.62-0.22,1.24-0.45,1.86-0.67c0.48,1.43,1.17,2.77,2.17,3.9c0.73,0.83,1.8-0.23,1.42-1.1
		c-0.54-1.23-1.04-2.4-1.45-3.58c0.23-0.08,0.46-0.17,0.69-0.25C191.83,393.26,193.34,392.99,194.32,392.01z"/>
	<path class="st527" d="M221.73,414.75c0.2-0.61-0.41-1.04-0.95-0.95c-1.03,0.18-1.95,0.99-2.81,1.69
		c-0.42-0.55-0.84-1.09-1.27-1.64c-0.96-1.26-3.13-0.03-2.16,1.26c0.45,0.6,0.9,1.21,1.35,1.8c-0.83,0.52-1.68,1.02-2.55,1.48
		c-1.33,0.7-0.14,2.75,1.18,2.02c0.95-0.52,1.87-1.09,2.77-1.68c0.82,1.03,1.68,2.03,2.62,2.97c0.78,0.77,2.04-0.21,1.5-1.16
		c-0.63-1.13-1.34-2.18-2.09-3.21C220.32,416.64,221.36,415.88,221.73,414.75z"/>
	<path class="st527" d="M285.78,397.44c-1.01-1.04-2.46-1.64-3.71-2.34c-0.1-0.06-0.2-0.11-0.3-0.17c0.43-1.67,0.78-3.32,1.57-4.9
		c0.72-1.44-1.46-2.71-2.16-1.26c-0.63,1.3-1.16,2.68-1.43,4.1c-0.33,0-0.66,0.14-0.87,0.44c-0.31-0.17-0.62-0.35-0.93-0.52
		c-1.38-0.77-2.61,1.34-1.24,2.11c0.5,0.28,0.99,0.56,1.49,0.83c-0.11,0.55-0.2,1.11-0.26,1.67c-0.13,1.16-0.33,2.3,0.41,3.26
		c0.35,0.45,1.03,0.22,1.3-0.17c0.58-0.83,0.35-1.9,0.45-2.87c0.03-0.26,0.06-0.52,0.1-0.77c0.21,0.12,0.42,0.23,0.62,0.35
		c1.25,0.7,2.52,1.64,3.94,1.96C285.77,399.4,286.52,398.21,285.78,397.44z"/>
	<path class="st527" d="M268.92,414.22c-0.68,0.1-1.32,0.32-1.96,0.56c-0.27-0.89-0.53-1.78-0.76-2.69
		c-0.4-1.59-2.87-0.92-2.46,0.68c0.25,1,0.54,1.98,0.85,2.96c-1.34,0.49-2.69,0.9-4.07,1.25c-1.56,0.39-0.89,2.83,0.66,2.41
		c1.29-0.35,2.78-0.73,4.21-1.24c0.39,1.14,0.77,2.27,1.79,2.99c0.45,0.32,1.28,0.01,1.37-0.56c0.18-1.26-0.36-2.32-0.81-3.47
		c0.75-0.42,1.44-0.9,2.01-1.47C270.39,414.98,269.72,414.1,268.92,414.22z"/>
	<path class="st527" d="M310.38,378.01c-0.16-0.36-0.59-0.52-0.95-0.54c-0.25-0.01-0.5-0.02-0.74-0.03
		c0.04-0.83,0.12-1.67,0.27-2.52c0.28-1.57-2.12-2.25-2.41-0.66c-0.18,0.98-0.35,2.02-0.46,3.07c-0.56-0.05-1.11-0.14-1.69-0.3
		c-1.55-0.43-2.23,2.03-0.66,2.41c0.69,0.17,1.44,0.32,2.21,0.42c0,1.69,0.22,3.36,0.85,4.87c0.4,0.96,1.82,0.89,1.88-0.25
		c0.08-1.56,0.02-3.09-0.01-4.61c0.36-0.05,0.72-0.12,1.06-0.24c0.5-0.17,0.76-0.55,0.8-1.06
		C310.55,378.36,310.47,378.19,310.38,378.01z"/>
	<path class="st527" d="M311.52,421c-1.2-0.16-2.43,0.51-3.54,1.14c-0.35-1.29-0.6-2.6-0.73-3.94c-0.16-1.62-2.7-1.64-2.55,0
		c0.14,1.57,0.38,3.43,0.84,5.25c-1.25,0.65-2.5,1.3-3.75,1.95c-1.39,0.72-0.15,2.87,1.24,2.11c1.08-0.59,2.15-1.17,3.23-1.76
		c0.69,1.81,1.66,3.44,3.03,4.53c0.71,0.56,1.87,0.07,1.6-0.93c-0.47-1.74-1.49-3.25-2.16-4.92c1.26-0.62,2.7-1.26,3.32-2.51
		C312.27,421.47,311.99,421.06,311.52,421z"/>
	<path class="st527" d="M347.64,422.89c-0.92-0.64-2.09-0.52-3.17-0.63c-0.29-0.03-0.58-0.07-0.87-0.11
		c0.04-1.28,0.11-2.56,0.32-3.85c0.08-0.5-0.62-0.71-0.77-0.21c-0.38,1.23-0.72,2.51-0.97,3.8c-0.53-0.12-1.06-0.25-1.59-0.4
		c-1.58-0.46-2.27,2.04-0.68,2.46c0.56,0.15,1.23,0.33,1.94,0.5c-0.07,1.14-0.03,2.28,0.18,3.41c0.16,0.84,1.36,0.57,1.41-0.19
		c0.07-0.97,0.09-1.93,0.1-2.9c1.59,0.22,3.19,0.17,4.24-0.66C348.22,423.77,348,423.14,347.64,422.89z"/>
	<path class="st527" d="M336.01,398.12c0.38-0.24,0.36-0.92-0.13-1.02c-1.2-0.24-2.52-0.04-3.83,0.36
		c-0.03-0.49-0.05-0.98-0.04-1.48c0.04-1.57-2.44-1.58-2.45,0c0,0.8,0.04,1.6,0.11,2.39c-0.96,0.43-1.86,0.9-2.66,1.31
		c-1.06,0.55-0.12,2.17,0.94,1.61c0.66-0.35,1.33-0.68,2.01-0.98c0.25,1.23,0.63,2.43,1.17,3.6c0.51,1.09,2.19,0.31,1.9-0.8
		c-0.33-1.23-0.6-2.45-0.79-3.68c0.01,0,0.03-0.01,0.04-0.02C333.53,399,334.89,398.82,336.01,398.12z"/>
	<path class="st527" d="M362.56,396.16c-0.13-0.27-0.47-0.44-0.76-0.43c-0.06,0-0.11,0-0.17,0c-0.37,0-0.61,0.21-0.73,0.48
		c-0.12-0.12-0.47-0.05-0.77-0.07c-0.47-0.03-0.94-0.06-1.4-0.1c-0.57-0.05-1.14-0.13-1.71-0.2c0.01-1.18,0.02-2.37,0.02-3.56
		c0-0.45-0.64-0.43-0.69,0c-0.12,1.15-0.24,2.29-0.35,3.44c-0.07-0.01-0.15-0.02-0.22-0.03c-1.63-0.24-1.96,2.03-0.3,2.25
		c0.11,0.01,0.22,0.03,0.34,0.05c-0.06,0.7-0.12,1.41-0.17,2.11c-0.05,0.82,1.24,0.82,1.28,0c0.03-0.65,0.04-1.3,0.05-1.95
		c1.42,0.2,2.92,0.39,4.25,0.21C362.28,398.21,363.05,397.17,362.56,396.16z"/>
	<path class="st527" d="M388.33,439.02c-0.82-1.31-2.37-1.73-3.74-2.3c-0.58-0.24-1.18-0.48-1.76-0.71
		c0.08-0.82,0.17-1.64,0.29-2.46c0.09-0.63-0.79-0.91-0.97-0.27c-0.21,0.74-0.41,1.48-0.6,2.23c-0.76-0.29-1.52-0.58-2.28-0.85
		c-1.61-0.58-2.32,2.01-0.71,2.57c0.81,0.28,1.62,0.57,2.42,0.86c-0.28,1.58-0.45,3.17-0.4,4.79c0.03,1.09,1.53,1.03,1.65,0
		c0.17-1.39,0.27-2.78,0.37-4.17c0.33,0.13,0.66,0.25,0.99,0.38c1.41,0.56,2.72,1.37,4.26,1.11
		C388.36,440.11,388.59,439.42,388.33,439.02z"/>
	<path class="st527" d="M419.92,447.98c0.71-0.63,0.09-1.66-0.71-1.73c-1.5-0.13-2.99,0.57-4.4,1.05c-0.16-0.78-0.3-1.57-0.41-2.37
		c-0.21-1.64-2.81-1.67-2.61,0c0.13,1.07,0.3,2.14,0.5,3.19c-0.82,0.27-1.65,0.54-2.47,0.8c-1.69,0.55-0.95,3.24,0.74,2.67
		c0.79-0.27,1.58-0.54,2.37-0.81c0.42,1.43,0.95,2.82,1.67,4.16c0.59,1.1,2.32,0.34,1.99-0.84c-0.38-1.39-0.79-2.78-1.16-4.17
		c0.09-0.03,0.18-0.06,0.26-0.09C417.17,449.35,418.74,449.03,419.92,447.98z"/>
	<path class="st527" d="M394.37,394.86c-0.82,0.14-1.65,0.38-2.46,0.69c-0.26-0.78-0.49-1.56-0.68-2.37
		c-0.36-1.6-2.84-0.92-2.46,0.68c0.22,0.93,0.48,1.83,0.79,2.71c-1.28,0.62-2.54,1.28-3.74,1.83c-1.27,0.58-0.17,2.47,1.1,1.88
		c1.13-0.52,2.35-1.01,3.55-1.53c0.49,0.99,1.08,1.93,1.81,2.82c0.59,0.72,1.96-0.06,1.6-0.93c-0.4-0.98-0.81-1.97-1.2-2.95
		c0.87-0.46,1.69-0.97,2.41-1.58C395.73,395.58,395.02,394.75,394.37,394.86z"/>
	<path class="st527" d="M421.9,391.79c-1.17-0.34-2.33,0.08-3.48,0.35c-0.11,0.02-0.21,0.05-0.32,0.08
		c-0.07-0.66-0.14-1.33-0.19-1.99c-0.1-1.46-2.37-1.48-2.29,0c0.05,0.84,0.1,1.69,0.16,2.54c-0.47,0.11-0.94,0.22-1.41,0.33
		c-1.53,0.36-0.88,2.75,0.65,2.36c0.33-0.08,0.67-0.17,1-0.25c0.22,1.75,0.55,3.47,1.11,5.14c0.32,0.94,1.9,0.85,1.83-0.25
		c-0.12-1.84-0.37-3.66-0.6-5.49c0.22-0.06,0.45-0.11,0.67-0.17c1.15-0.29,2.32-0.46,3.2-1.3
		C422.69,392.7,422.46,391.96,421.9,391.79z"/>
	<path class="st527" d="M445.57,425.7c-0.95,0.03-1.91,0.05-2.87,0.05c0.04-0.77,0.11-1.54,0.25-2.32c0.27-1.44-1.94-2.06-2.21-0.61
		c-0.17,0.94-0.31,1.9-0.37,2.86c-0.79-0.04-1.58-0.11-2.36-0.21c-1.41-0.19-1.69,1.78-0.26,1.93c0.88,0.1,1.75,0.15,2.61,0.17
		c0.07,1.22,0.29,2.43,0.77,3.58c0.33,0.8,1.63,0.79,1.62-0.22c-0.01-1.15-0.07-2.28-0.08-3.41c1.02-0.08,2.05-0.23,3.08-0.47
		C446.52,426.88,446.36,425.67,445.57,425.7z"/>
	<path class="st527" d="M408.42,418.84c-1.8-0.56-3.51-1.29-5.14-2.18c0.25-1.54,0.67-3.04,1.2-4.51c0.18-0.51-0.63-0.85-0.88-0.37
		c-0.58,1.14-1.27,2.55-1.8,4.03c-0.57-0.36-1.13-0.74-1.68-1.15c-1.25-0.95-2.49,1.18-1.24,2.11c0.73,0.54,1.48,1.03,2.24,1.48
		c-0.21,1.21-0.23,2.39,0.12,3.43c0.24,0.72,1.18,0.69,1.44,0c0.28-0.75,0.35-1.57,0.39-2.4c1.51,0.71,3.09,1.25,4.76,1.6
		C409.19,421.18,409.73,419.25,408.42,418.84z"/>
	<path class="st527" d="M462.79,441.4c-0.06-0.02-0.11-0.04-0.17-0.07c-0.24-0.1-0.58,0.02-0.75,0.2c-0.88,0.91-2.27,1.45-3.77,1.81
		c-0.66-1.48-1.32-2.97-1.92-4.48c-0.53-1.34-2.72-0.79-2.21,0.61c0.53,1.43,1.06,2.89,1.62,4.33c-0.79,0.11-1.55,0.19-2.19,0.28
		c-1.82,0.24-1.51,2.77,0.34,2.51c0.94-0.13,1.86-0.3,2.79-0.49c0.58,1.37,1.19,2.73,1.9,4.02c0.63,1.16,2.69,0.36,2.19-0.92
		c-0.48-1.24-1.01-2.47-1.55-3.69c0.41-0.11,0.83-0.22,1.24-0.35c1.39-0.43,2.87-0.84,3.25-2.42
		C463.7,442.12,463.35,441.62,462.79,441.4z"/>
	<path class="st527" d="M469.88,411.91c-1.05-0.11-2.2,0.14-3.27,0.35c-0.06-1.05-0.1-2.09-0.05-3.12c0.08-1.64-2.48-1.64-2.55,0
		c-0.05,1.14-0.11,2.35-0.12,3.57c-0.75,0.11-1.5,0.19-2.26,0.25c-1.94,0.14-1.95,3.17,0,3.03c0.76-0.05,1.58-0.11,2.42-0.19
		c0.16,1.29,0.45,2.54,0.96,3.68c0.43,0.94,1.64,0.33,1.74-0.47c0.14-1.2,0.13-2.42,0.07-3.65c1.42-0.33,2.76-0.84,3.79-1.72
		C471.33,413.01,470.66,411.99,469.88,411.91z"/>
	<path class="st527" d="M450.89,391.62c-1.01-0.63-2.12-1.13-3.28-1.55c0.1-1.63,0.24-3.25,0.46-4.86c0.26-1.86-2.33-2.24-2.56-0.35
		c-0.18,1.49-0.3,2.95-0.32,4.42c-1.16-0.34-2.31-0.66-3.41-1.02c-1.37-0.44-1.96,1.72-0.59,2.15c1.32,0.42,2.69,0.92,4.07,1.37
		c0.04,0.57,0.07,1.14,0.14,1.71c0.16,1.27,1.95,1.33,2.02,0c0.02-0.35,0.04-0.71,0.06-1.06c1.02,0.26,2.04,0.45,3.06,0.51
		C451.27,393,451.46,391.98,450.89,391.62z"/>
	<path class="st527" d="M499.48,402.8c-0.68,0.08-1.34,0.22-1.99,0.42c-0.37-0.99-0.69-1.99-0.94-3.04
		c-0.37-1.53-2.76-0.88-2.36,0.65c0.29,1.1,0.66,2.18,1.08,3.23c-1.31,0.6-2.56,1.33-3.77,2.04c-1.27,0.75-0.09,2.77,1.15,1.98
		c1.13-0.72,2.33-1.34,3.52-1.99c0.34,0.67,0.69,1.34,1.09,1.99c0.76,1.26,2.72,0.12,1.98-1.15c-0.38-0.65-0.71-1.32-1.03-1.99
		c0.54-0.33,1.06-0.67,1.57-1.04C500.18,403.59,500.12,402.73,499.48,402.8z"/>
	<path class="st527" d="M533.87,402.66c-0.76-2.08-1.78-4.01-2.97-5.83c0.42-0.35,0.85-0.69,1.3-1.01c1.33-0.94,0.05-3.16-1.29-2.21
		c-0.51,0.36-0.99,0.75-1.47,1.15c-0.64-0.84-1.32-1.66-2.02-2.46c-1.02-1.16-2.71,0.54-1.69,1.69c0.68,0.77,1.31,1.57,1.92,2.38
		c-1.21,1.19-2.3,2.5-3.24,3.96c-0.83,1.3,1.14,2.35,2.02,1.18c0.82-1.08,1.7-2.12,2.66-3.07c1.06,1.61,2.04,3.28,2.98,4.97
		C532.6,404.37,534.26,403.73,533.87,402.66z"/>
	<path class="st527" d="M524.2,429.21c-0.89-2.02-2.03-3.93-3.14-5.85c0.89-0.91,1.76-1.84,2.65-2.74c1.03-1.05-0.57-2.65-1.62-1.62
		c-0.74,0.73-1.5,1.45-2.25,2.18c-0.28-0.51-0.54-1.02-0.8-1.55c-0.69-1.42-2.77-0.18-2.11,1.24c0.34,0.72,0.68,1.46,1.04,2.19
		c-0.74,0.77-1.46,1.56-2.11,2.41c-0.6,0.79,0.6,1.99,1.38,1.38c0.64-0.49,1.26-1.02,1.85-1.57c1,1.85,2.13,3.63,3.56,5.12
		C523.48,431.27,524.62,430.17,524.2,429.21z"/>
	<path class="st527" d="M495.45,445.73c-1.42-0.78-2.9-1.41-4.42-1.95c0.17-1.16,0.33-2.32,0.49-3.48c0.2-1.4-1.92-2.02-2.15-0.59
		c-0.18,1.13-0.37,2.25-0.55,3.38c-0.6-0.17-1.19-0.33-1.8-0.48c-1.43-0.34-2.04,1.89-0.61,2.21c0.69,0.15,1.38,0.33,2.05,0.52
		c-0.26,1.78-0.49,3.57-0.63,5.37c-0.09,1.11,1.69,1.34,1.93,0.26c0.37-1.64,0.66-3.29,0.92-4.95c1.35,0.45,2.68,0.94,4.01,1.46
		C495.73,447.88,496.38,446.24,495.45,445.73z"/>
	<path class="st528" d="M374.9,615.44c-6.95-0.19-11.68-2.5-15.69-8.27c-3.91-5.62-6.36-12.09-8.26-18.62
		c-3.91-13.37-6.97-27.04-10.45-40.54c-0.22-0.86-1.13-0.87-1.62-0.41c0.23-1.15-1.46-1.57-1.86-0.44
		c-4.37,12.41-12.88,24.03-22.3,33.09c-4.68,4.5-9.8,8.46-15.41,11.75c-5.71,3.35-13.84,8.35-20.54,5.33
		c-4.37-1.97-8.18,4.09-3.84,6.57c7.04,4.02,14.95,1.13,21.61-2.31c7.1-3.66,13.68-8.41,19.5-13.88
		c11.51-10.83,18.38-24.01,22.56-39.03c3.08,16.89,5.01,34.71,10.68,50.98c2.19,6.28,5.19,13.02,10.28,17.51
		c4.45,3.92,11.28,6.28,16.61,2.86C378.21,618.72,377.39,615.51,374.9,615.44z"/>
	<path class="st528" d="M321.69,482.51c-2.56-6.21-6.27-6.42-12.53-6.15c-9.26,0.4-18.46,1.09-27.7,1.82
		c-1.64,0.13-1.69,2.56,0,2.59c7.39,0.13,14.77,0.35,22.16,0.21c3.22-0.06,7.44-0.95,10.54-0.16c3.52,0.9,4.16,6.78,5.12,9.75
		c4.44,13.73,7.16,27.61,9.82,41.76c0.48,2.56,4.85,2.01,4.6-0.62C332.16,515.26,328,497.81,321.69,482.51z"/>
	<path class="st528" d="M353.38,473.47c-3.55-1.83-7.44-0.8-9.92,2.36c-3.46,4.39-2.92,11.47-3.19,16.68
		c-0.82,15.44-0.99,30.85-0.17,46.29c0.17,3.15,5.05,3.19,4.93,0c-0.39-10.7-0.66-21.42-0.71-32.12
		c-0.02-5.04,0.02-10.08,0.13-15.11c0.06-2.65,0.02-5.33,0.28-7.97c0.33-3.46,2.45-9.61,7.14-7.52
		C353.59,476.84,355.13,474.37,353.38,473.47z"/>
	<path class="st529" d="M378.58,571.6c-2-2.44-5.4-0.49-5.81,2.08c-0.41-0.08-0.83-0.14-1.26-0.14c-0.69-0.34-1.54-0.46-2.5-0.31
		c-3.22,0.51-5.79,1.97-7.74,4.14c-3.02,1.73-6.45,4.61-4.42,8.45c0.37,0.69,0.91,1.31,1.53,1.89c1.36,6.65,3.2,13.27,5.87,19.47
		c2.31,5.38,6.22,12.37,12.13,6.23c4.83-5.02,6.8-12.36,6.98-19.15C383.54,587.48,383.01,577.02,378.58,571.6z"/>
	<path class="st529" d="M299.66,563.38c-4.39-0.55-8.08,0.84-11.26,3.23c-0.48-0.31-1.13-0.36-1.57,0.15
		c-2.45,2.84-4.67,5.86-6.56,9.09c-1.72,2.59-3.24,5.23-4.65,7.54c-0.62,1.02-0.67,2.02-0.35,2.87c-0.42,0.87-0.82,1.74-1.2,2.61
		c-1.5,3.43-2.21,7.83,1.99,9.57c1.23,0.51,2.34,0.56,3.37,0.29c6.24,0.72,15.59-9.55,18.23-12.94
		C301.41,580.98,312.02,564.92,299.66,563.38z"/>
	<path class="st527" d="M552.1,392.04c1.18-1.85,1.32-4.27,0.35-6.38c-1.17-2.54-4.91-6.14-7.83-3.99
		c-1.84,1.35-0.15,4.44,1.83,3.13c0.92-0.61,2.75,2.06,3,2.67c0.4,0.94,0.37,1.97-0.1,2.79c-2.07-0.14-3.09,2.96-0.68,3.93
		c1.12,0.45,1.07,2.1,0.64,2.98c-0.6,1.24-1.87,1.97-3.07,2.53c-0.64,0.3-0.86,0.9-0.79,1.51c-0.54,0.53-0.77,1.33-0.22,2.05
		c1.04,1.36,2.17,2.63,1.67,4.49c-0.5,1.86-2.38,2.75-4.18,2.63c-0.82-0.06-1.29,0.4-1.45,0.98c-0.16,0.04-0.32,0.1-0.46,0.17
		c-0.63,0.3-0.94,0.87-1.01,1.55c-0.14,1.23,0.88,1.74,1.06,2.85c0.35,2.13-2.39,6.06-4.71,5.67c-1.31-0.22-2.19,0.84-2.22,1.85
		c-0.47,0.47-0.72,1.16-0.51,1.99c1.01,4.06-2.33,7.69-6.45,6.97c-1.83-1.04-3.71,1.53-2.8,3.23c0.75,1.41,0.65,2.78-0.73,3.82
		c-1.16,0.88-3.89,1.92-5.34,1.26c-0.18-0.2-0.4-0.37-0.64-0.53c-0.79-0.49-1.65-0.09-2.15,0.56c-0.77,1.01-0.52,1.77-0.53,2.98
		c-0.01,1.32-0.32,2.72-0.9,3.92c-0.6,1.25-3.6,4.43-4.72,1.88c-0.13-0.51-0.33-0.98-0.62-1.39c-0.67-0.92-2.3-1.24-2.89,0
		c-1,2.09-0.36,4.55-1.65,6.63c-1.19,1.91-4.72,1.97-6.92,1.22c-0.97-1.58-3.61-1.89-4.15,0.39c-0.61,2.59-1.3,5.36-4.15,6.37
		c-2.78,0.99-4.69-1.27-7.16-2.03c-0.19-0.06-0.37-0.08-0.55-0.07c-0.05-0.12-0.08-0.24-0.14-0.36c-0.73-1.51-3.1-1.06-3.5,0.46
		c-0.54,2.06-0.28,4.02-2.2,5.47c-0.84,0.63-1.85,0.92-2.89,0.92c-0.44,0-2.21-0.16-2.78-0.5c0.01-0.69-0.48-1.22-1.1-1.38
		c-0.94-0.77-2.35-0.84-3.1,0.53c-1.16,2.11-2.83,3.29-5.18,3.94c-1,0.28-5.99,0.98-5.8-0.99c0.12-1.27-1.1-1.81-2.11-1.54
		c-0.98-0.5-2.27-0.39-2.89,0.8c-1.16,2.23-1.95,5.46-4.72,5.82c-1.65,0.21-5.06,0.51-6.33-0.85c0.02-0.16,0.05-0.32,0.05-0.49
		c0.01-0.99-0.8-1.66-1.71-1.69c-0.61-0.11-1.3,0.07-1.74,0.5c-1.94,0.93-3.27,2.67-5.88,2.8c-3.38,0.17-6.09-1.78-7.57-4.71
		c-0.22-0.44-0.58-0.69-0.98-0.79c-0.17-0.26-0.39-0.48-0.66-0.6c-2.53-1.09-2.78,1.88-4.84,2.47c-2.86,0.82-7.34-0.23-8.05-3.46
		c-0.07-0.32-0.2-0.58-0.37-0.78c-0.06-1.4-2.08-2.33-3.34-1.26c-1.99,1.71-4.65,5.03-7.7,3.89c-2.1-0.78-3.85-2.86-4.42-4.99
		c0.79-1.24,0.18-2.95-1.46-3c-1.02-0.03-1.93,0.34-2.94,0.32c-1.45-0.03-2.79-0.76-3.97-1.52c-1.59-1.01-5.59-3.4-4.29-5.79
		c0.72-1.33-0.99-2.68-2.09-1.62c-0.26,0.25-0.47,0.51-0.66,0.76c-0.15-0.89-0.89-1.51-1.92-1.3c-2.38,0.48-3.62,2.59-6.39,2.19
		c-2.82-0.41-4.91-3.12-5.18-5.86c-0.05-0.46-0.29-0.76-0.59-0.93c-0.29-0.43-0.86-0.7-1.34-0.71c-2.42-0.04-3.82,2.23-6.44,2.21
		c-1.55-0.01-3.06-0.6-4.35-1.43c-0.52-0.33-3.51-2.59-3.74-3.57c0.29-0.64,0.07-1.49-0.84-1.86c-0.05-0.02-0.09-0.04-0.14-0.06
		c-0.56-0.23-1.23,0.14-1.54,0.6c-0.86-0.33-1.87-0.14-2.41,0.92c-2.16,4.19-11.03,4.37-12.1-0.86c-0.22-1.08-1.43-1.38-2.33-1.05
		c-0.86-0.81-2.14-1.03-3.09,0.15c-0.19,0.24-0.39,0.49-0.58,0.73c-0.25,0.31-0.4,0.64-0.49,0.97c-1.09,1.98-2.46,4.58-4.41,5.25
		c-2.33,0.8-6.92-1.16-7.79-3.33c-0.19-0.48-0.5-0.82-0.87-1.04c-0.06-0.2-0.12-0.4-0.22-0.59c-0.49-0.96-1.75-1.14-2.63-0.69
		c-0.07,0.03-0.13,0.07-0.2,0.1c-0.93,0.48-1.25,2.1-0.36,2.79c-0.85-0.66-0.12-0.83-0.93-0.1c-0.42,0.38-0.72,1.03-1.08,1.46
		c-0.78,0.93-1.65,1.78-2.63,2.5c-2.51,1.84-3.85,0.25-5.18-2.05c-0.5-0.86-1.34-1.02-2.05-0.75c-0.49-0.44-1.17-0.65-1.84-0.45
		c-0.09,0.03-0.17,0.05-0.26,0.08c-0.96,0.28-1.51,1.33-1.27,2.24c-0.47,1.34-2.82,4.39-3.6,4.98c-1.9,1.44-6.58,0.26-7.13-2.21
		c-0.12-0.52-0.39-0.85-0.73-1.02c-0.78-0.75-2.04-1.02-3.02-0.04c-3.48,3.48-12.25,8.3-14.24,0.44c-0.19-0.74-0.84-1.09-1.49-1.11
		c-0.19-0.46-0.51-0.88-0.96-1.17c-0.32-0.21-0.64-0.41-0.96-0.62c-1.68-1.09-3.37,0.79-2.89,2.42c-1.32,1.8-3.12,3.3-5.55,3.1
		c-3.87-0.31-4.72-3.8-5.51-6.85c-0.41-1.59-2.6-2.23-3.74-0.99c-4.84,5.24-12.97,2.78-13.94-4.37c0.68-1.81-1.28-4.21-3.43-2.97
		c-4.69,2.7-10.36,0.4-10.95-5.34c-0.15-1.46-1.49-3.02-3.16-2.4c-4.6,1.71-8.95-0.78-9-5.83c-0.01-1.49-1.66-3.15-3.26-2.48
		c-4.67,1.95-9.3-1.38-7.78-6.59c0.71-2.44-2.63-4.56-4.39-2.56c-2.36,2.67-5.73,0.66-6.67-2.23c-0.78-2.41-0.13-4.95,0.57-7.27
		c0.58-1.9-1.73-3.78-3.45-2.65c-2.27,1.5-3.87-2.63-4.16-4.12c-0.42-2.15-0.19-3.82,0.91-5.79c0.94-1.69-1.45-2.99-2.54-1.48
		c-2.66,3.68-3,8.68-0.77,12.72c1.05,1.91,2.71,3.18,4.56,3.55c-0.8,4.29-0.27,8.9,3.43,11.75c2.07,1.6,4.69,2.26,7.12,1.86
		c0.92,5.48,6,9.11,11.73,8.43c1.51,5.59,6.74,9.11,12.55,8.16c2.27,6.67,9.19,10.13,15.96,7.26c1.37,8.09,10.29,11.79,17.08,7.74
		c1.32,3.42,3.48,6.21,7.56,6.91c4.24,0.72,8.01-1.33,10.46-4.58c1.02,3,3.65,5.03,6.98,5.63c4.4,0.79,8.42-1.44,11.66-4.23
		c2.04,2.62,6.42,4.01,9.29,3.18c2.16-0.62,3.42-2.33,4.66-4.09c0.62-0.89,1.49-1.85,2.11-2.87c2.01,2.87,4.89,4.55,8.51,2.5
		c1.44-0.81,3.7-2.51,5.26-4.46c2.08,2.54,5.51,4.07,8.72,4.45c4.66,0.55,7.99-3.77,10.07-7.6c3.22,5.75,13.08,6.2,17.25,0.93
		c1.73,2.65,5.47,5.02,7.35,5.65c2.39,0.8,6.84,0.72,9.23-1.04c0.72,2.68,2.64,4.91,5.42,5.9c2.46,0.88,7.33,0.6,9.27-1.75
		c0.04,2.37,2.13,4.75,3.99,6.3c2.18,1.81,6.36,4.58,9.6,3.89c0.9,3.16,3.4,6.07,6.47,7.21c3.08,1.14,6.54-0.65,9.04-2.97
		c2.59,4.93,11.37,6.88,15.26,3.01c1.91,3.15,5.01,5.43,8.85,5.77c2.38,0.21,5.99-0.62,8.23-2.43c1.88,1.44,4.83,1.67,7.33,1.87
		c2.1,0.17,4.13,0.49,5.78-1.12c1.17-1.15,2.15-2.73,2.89-4.36c1.72,1.46,4.57,2.09,6.63,1.94c2.92-0.22,7.89-1.83,9.71-4.78
		c1.89,1.11,4.18,1.36,6.3,0.83c2.59-0.65,5.08-2.92,6.05-5.56c5.17,5.38,15.03,1.71,16.29-5.48c2.9,0.81,6.55,0.79,8.61-0.85
		c1.27-1.02,2.44-3.02,3.02-5.12c1.97,0.71,4.4,0.27,6.18-1.22c1.75-1.47,2.98-3.68,3.5-5.89c0.13-0.55,0.25-1.14,0.33-1.74
		c2.8,0.28,6.07-0.85,7.96-2.44c1.83-1.54,2.73-4.01,2.36-6.24c5.3-0.47,9.21-5.35,8.46-10.95c4.85-0.85,8.51-7.02,6.61-11.59
		c2.49-0.31,4.77-1.92,5.72-4.31c0.91-2.28,0.51-5.24-1.09-7.16c1.93-1.03,3.59-2.56,4.17-4.78
		C553.64,395.44,553.21,393.47,552.1,392.04z"/>
	<path class="st530" d="M349,140.94c-9.38,6.89-18.95,14.04-29.91,18.23c-11,4.2-22.78,6.82-34.22,9.54
		c-12.12,2.88-24.4,5.17-36.89,5.44c-12.64,0.28-25.06-1.85-37.5-3.78c-5.66-0.88-8.18,7.7-2.4,8.72
		c12.84,2.28,25.88,4.33,38.96,4.09c13.25-0.24,26.4-2.66,39.25-5.74c12-2.88,24.75-5.46,36.04-10.57
		c11.31-5.12,20.95-13.16,30.43-21.04C355.43,143.58,351.84,138.85,349,140.94z"/>
	<path class="st530" d="M498.75,169.98c-4.6-2.97-9.2,1.79-12.9,4.04c-20.16,12.25-44.36,11.05-66.66,6.42
		c-11.97-2.48-22.73-7.44-32.7-14.48c-10.06-7.1-18.45-16.16-28.29-23.5c-2.02-1.51-4.83,1.44-3.45,3.45
		c11.39,16.56,28.57,32.91,47.06,41.16c20.76,9.27,46.81,12.54,69.02,7.29c9.68-2.29,19.86-6.51,27.09-13.55
		C500.84,177.99,503.11,172.8,498.75,169.98z"/>
	<path class="st531" d="M360.29,138.18c-2.04,9.03-18.29,9.99-19.8-0.02c-0.17-1.16-2.02-0.86-2.02,0.27
		c0.07,14.98,25.5,14.43,26.63,0.4C365.33,136.08,360.9,135.5,360.29,138.18z"/>
	<path class="st54" d="M353.41,295.59c-4.54,2.43-9.92,2.06-14.99,0.35c-2.41-0.06-4.85-0.55-7.42-1.89
		c-2.92-1.53-5.56-3.42-8.32-5.13c-0.46-0.11-0.91-0.19-1.35-0.24c-2.09-0.22-3.59-1.31-4.5-2.74c-6.76-3.07-13.79-5.93-18.78-11.07
		c-3.35-2.91-6.35-6.34-8.95-10.53c-0.13-0.2-0.29-0.32-0.46-0.38c-0.15-0.98-0.99-1.88-2.22-1.55c-3.72,1.02-9.41-1.76-11.35-4.7
		c-2.11-3.2-2.9-7.32-3.16-11.07c-0.05-0.78-1.21-0.8-1.23,0c-0.16,4.92,0.43,10.86,3.78,14.76c2.83,3.3,8.66,5.58,12.93,4.51
		c0.14-0.03,0.27-0.08,0.38-0.14c2.72,5.47,6.22,10.33,10.91,14.3c5.28,4.47,11.16,6.85,17.33,9.75c5.89,2.78,10.68,7.66,16.92,9.71
		c6.11,2.01,14,1.19,19.76-1.52C353.65,297.55,353.79,296.44,353.41,295.59z"/>
	<path class="st54" d="M416.34,242.53c-0.53,4.24-1.06,12.3-4.47,15.35c-2.25,2.02-5.42,0.34-6.61,3.55
		c-0.72,1.96,2.21,3.01,3.25,1.37c0.12-0.18,2.04-0.27,2.39-0.39c0.8-0.27,1.54-0.69,2.21-1.21c1.23-0.95,2.11-2.27,2.71-3.7
		c1.87-4.48,2.04-10.19,2.17-14.97C418.01,241.44,416.47,241.51,416.34,242.53z"/>
	<path class="st532" d="M234.03,186.52c-1.07,0.51-2.12,1.07-3.23,1.49c-1.07,0.41-2.24,0.86-3.41,0.86c-0.84,0-1.8-0.35-2.2-1.16
		c-0.37-0.76,0.32-1.77,1.18-1.5c0.69,0.22,0.93-0.81,0.29-1.06c-1.24-0.5-2.54,0.5-2.88,1.68c-0.39,1.37,0.54,2.74,1.74,3.33
		c1.51,0.74,3.24,0.42,4.79-0.03c1.61-0.46,3.25-1.07,4.66-1.98C236.03,187.49,235.13,186,234.03,186.52z"/>
	<path class="st532" d="M260.73,190.67c-0.31-0.06-0.58-0.1-0.89-0.02c-0.33,0.08-0.65,0.21-0.97,0.3
		c-0.63,0.19-1.22,0.46-1.83,0.69c-1.16,0.44-2.35,0.84-3.54,1.19c-0.38,0.11-0.73,0.2-1.11,0.21c-0.29,0.01-0.61-0.01-0.77-0.18
		c-0.52-0.58,0.79-1.58,1.19-1.89c0.71-0.55-0.22-1.77-0.97-1.25c-1.1,0.76-2.34,1.89-2.05,3.38c0.26,1.35,1.59,1.91,2.85,1.9
		c1.43-0.02,2.83-0.62,4.15-1.1c0.77-0.28,1.54-0.57,2.3-0.9c0.73-0.32,1.6-0.74,2.01-1.45
		C261.26,191.23,261.11,190.75,260.73,190.67z"/>
	<path class="st532" d="M291.8,196.88c-0.3,0.08-0.57,0.15-0.85,0.29c-0.25,0.12-0.46,0.29-0.7,0.44c-0.23,0.15-0.47,0.28-0.72,0.4
		c-0.06,0.03-0.12,0.06-0.18,0.08c-0.02,0.01-0.02,0.01-0.04,0.02c-0.11,0.04-0.23,0.09-0.34,0.12c-0.25,0.08-0.5,0.15-0.75,0.2
		c-0.12,0.02-0.24,0.05-0.35,0.06c-0.03,0-0.26,0.03-0.29,0.03c-0.14,0.01-0.29,0.01-0.44,0.01c0.2-0.75,0.45-1.48,0.79-2.2
		c0.51-1.08,1.14-2.11,1.87-3.05c0.26-0.33,0.32-0.78,0-1.1c-0.28-0.28-0.83-0.33-1.1,0c-1.71,2.06-2.92,4.47-3.72,7.02
		c-0.16,0.5,0.19,1.08,0.69,1.21c1.29,0.33,2.65,0.25,3.91-0.17c0.61-0.2,1.21-0.47,1.75-0.81c0.31-0.2,0.61-0.4,0.84-0.69
		c0.25-0.32,0.38-0.63,0.48-1.02C292.77,197.22,292.31,196.74,291.8,196.88z"/>
	<path class="st532" d="M272.85,208.36c0.08-0.12,0.23-0.27,0.35-0.4c1.41-1.46,2.83-2.92,4.25-4.38c0.7-0.72-0.38-1.8-1.1-1.1
		c-0.93,0.89-1.85,1.78-2.78,2.67c-0.46,0.44-0.93,0.89-1.39,1.33c-0.43,0.41-0.88,0.83-1.13,1.37c-0.55,1.21,0.19,2.51,1.49,2.71
		c1.37,0.21,2.25-0.76,2.98-1.76c0.25-0.35,0.09-0.89-0.23-1.13c-0.33-0.25-0.85-0.26-1.15,0.07c-0.27,0.29-0.55,0.59-0.82,0.76
		c-0.19,0.11-0.17,0.09-0.39,0.15c-0.01,0-0.02,0-0.02,0.01c-0.01,0-0.02,0-0.03,0c-0.03,0-0.09-0.02-0.13-0.02
		c-0.02-0.01-0.03-0.01-0.04-0.02c0-0.01,0.01-0.03,0.01-0.03C272.72,208.56,272.81,208.41,272.85,208.36z"/>
	<path class="st532" d="M258.53,220.95c-0.06-0.36-0.46-0.56-0.79-0.54c0.17-0.31,0.34-0.62,0.51-0.93c0.2-0.36,0.1-0.87-0.28-1.07
		c-0.37-0.2-0.84-0.1-1.07,0.28c-0.88,1.49-1.75,2.97-2.63,4.46c-0.28,0.48-0.02,1.11,0.51,1.25c1.01,0.29,2.06-0.04,2.82-0.75
		C258.36,222.95,258.7,221.96,258.53,220.95z"/>
	<path class="st532" d="M328.79,185.53c-0.99,0.65-1.68,1.56-2.36,2.53c-0.55,0.78-1.1,1.72-1.85,2.23
		c-0.4,0.27-0.73,0.43-1.17,0.54c-0.16,0.04-0.31,0.06-0.55,0.04c-0.08,0-0.3-0.06-0.37-0.09c-0.76-0.35-0.84-1.34-0.72-2.15
		c0.2-1.4,0.87-2.67,0.74-4.12c-0.04-0.43-0.34-0.8-0.8-0.8c-0.41,0-0.82,0.37-0.8,0.8c0.08,1.36-0.65,2.57-0.86,3.89
		c-0.2,1.27-0.06,2.71,0.96,3.61c0.95,0.84,2.29,0.94,3.45,0.52c1.27-0.46,2.21-1.32,3-2.4c0.8-1.09,1.34-2.32,2.38-3.22
		C330.6,186.26,329.62,184.99,328.79,185.53z"/>
	<path class="st532" d="M347.85,185.19c-0.08-0.53-0.8-0.5-1.04-0.14c-0.32,0.49-0.56,1.09-0.76,1.63c-0.2,0.52-0.44,1.01-0.69,1.5
		c-0.53,1.03-1.11,2.03-1.86,2.92c-0.32,0.37-0.6,0.71-1.05,0.89c-0.03-0.01-0.05-0.01-0.09,0c0.09,0.02,0.09,0.02-0.01,0
		c-0.03,0-0.05,0-0.05,0c-0.01-0.01-0.02-0.02-0.05-0.04c-0.01-0.01-0.01,0-0.01-0.01c-0.02-0.02-0.05-0.04-0.07-0.06
		c-0.04-0.04-0.04-0.04-0.03-0.03c0-0.01-0.01-0.03-0.03-0.07c-0.12-0.24-0.21-0.59-0.23-0.89c-0.03-0.43,0-0.84,0.07-1.18
		c0.08-0.41-0.12-0.84-0.54-0.96c-0.39-0.11-0.86,0.13-0.96,0.54c-0.36,1.56-0.23,4.16,1.85,4.36c1.19,0.11,2.08-0.87,2.77-1.7
		c0.73-0.88,1.44-1.85,1.91-2.9C347.49,187.86,348.04,186.51,347.85,185.19z"/>
	<path class="st532" d="M363,185.74c-0.07,1-0.39,2.03-0.78,2.9c-0.41,0.93-1,1.9-1.82,2.52c-0.35,0.26-0.75,0.45-1.13,0.42
		c-0.16-0.01-0.23-0.05-0.35-0.12c-0.03-0.02-0.07-0.04-0.1-0.07c-0.01-0.01-0.02-0.02-0.04-0.04c-0.01-0.02-0.12-0.14-0.15-0.16
		c-0.44-0.6-0.56-1.44-0.62-2.16c-0.04-0.43-0.34-0.8-0.8-0.8c-0.41,0-0.83,0.37-0.8,0.8c0.12,1.76,0.65,3.99,2.76,4.21
		c1.11,0.11,2.17-0.54,2.93-1.31c0.73-0.74,1.32-1.64,1.74-2.59c0.5-1.12,0.7-2.37,0.68-3.6C364.5,184.76,363.07,184.78,363,185.74z
		"/>
	<path class="st532" d="M407.19,209.2c-0.09-0.9-0.36-1.69-0.81-2.47c-0.47-0.83-1.68-0.25-1.49,0.63c0.29,1.39,0.44,2.92,0.09,4.31
		c-0.15,0.62-0.37,1.33-0.77,1.84c-0.36,0.46-0.85,0.18-1.32-0.01c-2.49-0.97-4.54-2.89-5.79-5.23c-0.6-1.12-2.3-0.13-1.71,1
		c1.24,2.36,3.22,4.34,5.59,5.57c1.22,0.63,2.88,1.45,4.17,0.55c1.13-0.79,1.67-2.41,1.91-3.71
		C407.21,210.85,407.27,210.02,407.19,209.2z"/>
	<path class="st532" d="M426.24,208.12c-0.44-0.05-0.83,0.38-0.88,0.77c-0.05,0.46,0.21,0.83,0.64,0.98c-0.13-0.04,0,0.02,0.07,0.05
		c0.01,0.01,0.02,0.02,0.02,0.03c0,0.01,0.01,0.02,0.03,0.05c0.03,0.07,0.08,0.15,0.11,0.22c-0.1-0.21,0.02,0.12,0.03,0.17
		c0,0.02,0,0.01,0.01,0.03c0,0.05,0.01,0.1,0.01,0.16c0,0.09,0,0.19-0.01,0.28c0.01-0.21-0.03,0.16-0.04,0.2
		c-0.02,0.09-0.05,0.18-0.08,0.27c-0.04,0.11-0.04,0.12-0.01,0.02c-0.03,0.06-0.06,0.11-0.09,0.16c-0.03,0.06-0.15,0.23-0.16,0.24
		c-0.17,0.21-0.37,0.41-0.58,0.58c-0.35,0.28-0.83,0.52-1.28,0.65c-2,0.58-4.07-0.73-4.5-2.83c-0.1-0.5-0.7-0.79-1.17-0.66
		c-0.53,0.14-0.76,0.66-0.66,1.17c0.49,2.48,2.78,4.4,5.31,4.42c2.43,0.02,5.04-1.68,5.27-4.23
		C428.4,209.47,427.65,208.28,426.24,208.12z"/>
	<path class="st532" d="M418.24,193.58c-0.43-0.85-1.92-0.25-1.56,0.66c0.58,1.49,0.56,3.17-0.33,4.53
		c-0.8,1.22-2.24,1.96-3.68,1.99c-1.03,0.02-1.03,1.59,0,1.6c2.04,0,3.96-1.01,5.13-2.67C419.05,197.92,419.21,195.5,418.24,193.58z
		"/>
	<path class="st532" d="M451.05,208.86c-0.36-0.49-1.39-0.42-1.31,0.35c0.14,1.42,0.33,2.79,0.27,4.23
		c-0.05,1.32-0.39,2.65-1.01,3.81c-0.22,0.42-0.49,0.89-0.94,1.06c-0.43,0.16-0.95,0.03-1.36-0.19c-1.11-0.6-1.6-1.94-2.04-3.04
		c-0.2-0.51-0.67-0.86-1.24-0.7c-0.49,0.13-0.9,0.73-0.7,1.24c0.62,1.63,1.33,3.4,2.93,4.31c1.59,0.9,3.53,0.7,4.69-0.78
		c1.11-1.42,1.65-3.29,1.85-5.05C452.39,212.36,452.12,210.31,451.05,208.86z"/>
	<path class="st532" d="M464.19,202.35c-0.08-0.4-0.52-0.64-0.9-0.59c-0.42,0.06-0.68,0.39-0.71,0.8c-0.03,0.37-0.05,0.74-0.09,1.1
		c-0.04,0.37-0.03,0.74-0.05,1.11c-0.01,0.15-0.03,0.31-0.04,0.46c0,0.02-0.01,0.1-0.02,0.14c-0.02,0.1-0.04,0.2-0.06,0.3
		c-0.04,0.17-0.08,0.33-0.13,0.5c-0.03,0.08-0.06,0.16-0.09,0.24c0,0,0,0,0,0.01c-0.02,0.04-0.03,0.07-0.05,0.11
		c-0.08,0.15-0.16,0.31-0.25,0.45c-0.02,0.03-0.04,0.06-0.06,0.09c-0.04,0.04-0.08,0.09-0.09,0.1c-0.05,0.05-0.11,0.11-0.16,0.16
		c-0.02,0.02-0.05,0.04-0.07,0.06c-0.08,0.08,0.08-0.07,0.08-0.06c0,0.06-0.3,0.2-0.36,0.23c-0.06,0.03-0.12,0.06-0.17,0.09
		c0,0-0.02,0.01-0.02,0.01c-0.13,0.04-0.25,0.09-0.38,0.12c-0.06,0.02-0.12,0.03-0.19,0.04c-0.07-0.03-0.32,0.02-0.4,0.02
		c-0.03,0-0.06,0-0.09,0c-0.04-0.01-0.09-0.02-0.13-0.03c-0.07-0.02-0.13-0.04-0.2-0.06c0,0,0,0,0,0c0,0,0,0,0,0
		c-0.06-0.03-0.12-0.07-0.18-0.1c0,0,0,0,0,0c0,0,0,0,0,0c-0.04-0.04-0.08-0.08-0.12-0.12c0.04,0.04-0.03-0.04-0.05-0.07
		c-0.28-0.44-0.91-0.66-1.38-0.36c-0.44,0.29-0.66,0.9-0.36,1.38c0.88,1.38,2.65,1.71,4.11,1.11c0.78-0.32,1.43-0.8,1.92-1.49
		c0.56-0.79,0.81-1.75,0.93-2.7c0.06-0.46,0.1-0.94,0.07-1.41C464.44,203.44,464.3,202.88,464.19,202.35z"/>
	<g>
		<path class="st532" d="M487.02,199.38c-0.15-0.56-0.47-1.08-0.83-1.53c-0.13-0.16-0.27-0.31-0.43-0.45
			c-0.26-0.22-0.59-0.34-0.93-0.42c-0.62-0.14-1.27,0.55-0.88,1.14c0.09,0.13,0.15,0.27,0.23,0.41c0.04,0.08,0.07,0.12,0.13,0.19
			c0,0.01,0,0,0.01,0.01c0.05,0.07,0.09,0.14,0.13,0.21c0.04,0.07,0.07,0.13,0.11,0.2c0.01,0.01,0.02,0.02,0.03,0.05
			c0,0,0,0.01,0,0.01c0.01,0.03,0.02,0.05,0.03,0.07c-0.01-0.01-0.01-0.02-0.02-0.03c0.05,0.15,0.1,0.3,0.13,0.46
			c0.03,0.15,0.06,0.31,0.09,0.47c0,0.01,0,0.01,0,0.01c0.01,0.09,0.01,0.18,0.02,0.28c0,0.08,0,0.17,0,0.25
			c0,0.02-0.01,0.11-0.02,0.16c0,0.02-0.01,0.05-0.01,0.06c-0.02,0.1-0.05,0.2-0.08,0.3c-0.02,0.06-0.04,0.11-0.06,0.17
			c-0.01,0.02-0.01,0.03-0.02,0.05c-0.04,0.07-0.08,0.15-0.12,0.22c-0.06,0.1-0.25,0.27-0.02,0.05c-0.11,0.11-0.21,0.24-0.33,0.35
			c-0.01,0.01-0.03,0.03-0.05,0.04c-0.07,0.04-0.14,0.09-0.21,0.14c-0.06,0.04-0.13,0.07-0.19,0.1c0.02-0.01,0.03-0.01,0.07-0.02
			c-0.04,0.01-0.08,0.03-0.12,0.05c0,0,0,0,0,0c-0.03,0.01-0.05,0.02-0.05,0.02c-0.14,0.05-0.29,0.09-0.43,0.12
			c-0.03,0.01-0.05,0.01-0.08,0.02c-0.06,0-0.13,0.01-0.19,0.01c-0.17,0.01-0.34-0.01-0.52-0.01c-0.03,0-0.05-0.01-0.07-0.01
			c-0.09-0.02-0.19-0.04-0.28-0.07c-0.07-0.02-0.14-0.05-0.22-0.07c0.01,0.01,0.02,0.01,0.04,0.02c-0.02-0.01-0.05-0.02-0.07-0.04
			c-0.01,0-0.01,0-0.02-0.01c-0.03-0.01-0.04-0.02-0.05-0.03c-0.08-0.04-0.17-0.09-0.24-0.14c-0.04-0.02-0.07-0.05-0.11-0.07
			c-0.01,0-0.02-0.01-0.03-0.02c-0.01,0-0.01-0.01-0.02-0.01c-0.04-0.04-0.08-0.07-0.12-0.11c-0.08-0.07-0.15-0.15-0.22-0.23
			c-0.38-0.45-1.2-0.42-1.59,0c-0.44,0.48-0.4,1.1,0,1.59c1.29,1.56,3.64,1.84,5.41,1.02C486.65,203.5,487.52,201.28,487.02,199.38z
			"/>
		<path class="st532" d="M481.81,202.37c0.01,0,0.02,0.01,0.04,0.01c-0.1-0.06-0.13-0.06-0.11-0.05c0,0,0,0,0,0
			C481.77,202.35,481.79,202.36,481.81,202.37z"/>
		<path class="st532" d="M483.71,202.37c0.01-0.01,0.02-0.01,0.03-0.02c-0.08,0.02-0.11,0.04-0.11,0.04
			c0.02-0.01,0.04-0.01,0.05-0.02C483.7,202.38,483.7,202.38,483.71,202.37z"/>
		<path class="st532" d="M484.57,199.17c0-0.01-0.01-0.01-0.01-0.02c-0.02-0.01-0.01,0.03,0.04,0.1c0-0.01-0.01-0.03-0.01-0.04
			C484.58,199.2,484.57,199.18,484.57,199.17z"/>
	</g>
	<path class="st532" d="M492.5,193.07c-0.21-0.46-0.92-0.61-1.33-0.35c-0.48,0.31-0.57,0.83-0.35,1.33
		c0.78,1.72,1.33,3.84,1.49,5.68c0.05,0.51,0.42,1.01,0.99,0.99c0.49-0.02,1.04-0.44,0.99-0.99
		C494.07,197.41,493.47,195.19,492.5,193.07z"/>
	<path class="st533" d="M332.57,120.24c-4.54-4.61-12.32-6.06-18.53-6.73c-7.74-0.83-15.08,0.77-22.66,2.09
		c-16.92,2.95-34.49,0.71-49.8-7.21c-0.86-0.44-1.6,0.81-0.76,1.3c12.99,7.5,27.54,11.51,42.6,10.69c8.04-0.44,15.85-2.89,23.9-3.04
		c4.31-0.08,8.6,0.44,12.76,1.58c3.79,1.03,7.21,3.02,11.06,3.79C332.54,122.98,333.65,121.34,332.57,120.24z"/>
	<path class="st533" d="M498.85,125.05c-4.77-1.11-9.41,1.07-13.98,2.3c-5.58,1.51-11.28,1.94-17.04,1.66
		c-11.89-0.6-23.44-3.95-34.96-6.7c-17.51-4.18-40.51-8.19-54.93,5.66c-1.06,1.02,0.51,2.54,1.6,1.6
		c16.54-14.47,42.38-5.42,60.85-0.29c9.57,2.66,19.27,5.03,29.25,5.25c9.68,0.22,20.17-2.03,29.22-5.39
		C500.68,128.46,501.05,125.56,498.85,125.05z"/>
	<path class="st79" d="M305.58,259.84c-0.98-0.81-2.23-1.16-3.56-1.19c-3.16-1.56-7.1-1.63-9.63,1.11c-2.2,2.38-2.3,5.73-0.93,8.37
		c0.15,0.59,0.37,1.17,0.68,1.72c2.4,4.28,8.28,5.71,12.21,2.63c1.49-1.17,2.39-2.71,2.75-4.36
		C308.51,265.41,308.09,261.91,305.58,259.84z"/>
	<path class="st79" d="M397.32,264.5c-0.18-0.83-0.52-1.65-1.07-2.4c-0.84-3.23-4.65-4.63-7.81-3.97c-0.33,0.07-0.66,0.16-1,0.27
		c-3.71,0.03-7.58,1.34-9.44,4.06c-1.25,1.82-1.32,3.59-0.7,5.2c0.02,0.3,0.08,0.6,0.19,0.88c1.92,4.93,6.57,6.99,11.26,6.14
		c4.19,0.21,8.32-1.54,9.09-6.25C398.13,266.72,397.9,265.45,397.32,264.5z"/>
	<path class="st534" d="M390.52,263.53c-1.58-1.68-4.27-2.05-6.06-0.49c-1.62,1.41-2.05,3.97-0.54,5.61
		c1.35,1.48,3.92,1.84,5.36,0.27c0.93-1.02,0.86-2.22,0.26-3.15c-0.04-0.27-0.16-0.54-0.38-0.81c-0.45-0.53-1.18-0.77-1.86-0.66
		c-0.14-0.03-0.29-0.04-0.44-0.05c-0.99-0.03-2.06,0.42-2.47,1.37c-0.36,0.82-0.21,1.91,0.49,2.5c1.12,0.94,3.6,0.03,4.41-1.3
		c0.33,1.48-1.5,2.64-2.97,2.34c-1.54-0.32-2.72-1.69-2.49-3.3c0.23-1.62,1.64-2.98,3.3-2.97c1.66,0.01,3.24,1.22,3.65,2.84
		c0.39,1.55-0.27,3.35-1.59,4.25c-1.76,1.21-4.18,0.71-5.86-0.4c-1.85-1.22-2.85-3.11-4.28-4.72c-0.32-0.36-0.82,0.1-0.63,0.49
		c0.6,1.25,1.52,2.4,2.48,3.41c0.93,0.98,2.02,1.81,3.28,2.32c2.26,0.9,5.06,0.65,6.6-1.41C392.11,267.83,392.1,265.2,390.52,263.53
		z M384.93,266.5c0.02-0.71,0.5-1.19,1.11-1.4c-0.06,0.08-0.12,0.16-0.16,0.24c-0.11,0.21-0.15,0.55-0.21,0.68
		c-0.15,0.32-0.47,0.45-0.47,0.89c0,0.18,0.04,0.37,0.11,0.55C385.06,267.26,384.92,266.94,384.93,266.5z M387.3,267.44
		c0-0.15-0.03-0.3-0.11-0.45c-0.07-0.14-0.11-0.3-0.18-0.45c-0.1-0.21-0.25-0.29-0.39-0.44c0.01-0.09,0.03-0.18,0.05-0.26
		c0.06-0.21,0.17-0.41,0.33-0.56c0.12-0.11,0.26-0.17,0.41-0.21c0.53,0.13,1.01,0.42,1.37,0.83
		C388.83,266.66,388,267.16,387.3,267.44z"/>
	<path class="st534" d="M302.06,264.31c-0.82-1.55-3.05-1.99-4.41-0.93c-1.23-0.03-2.51,0.38-3.49,1.13
		c-0.58,0.45-0.96,1.03-1.09,1.68c-0.02-0.37-0.02-0.73,0-1.07c0.11-1.6,0.83-3.4,2.42-4.05c0.45-0.18,0.29-0.89-0.21-0.75
		c-4.02,1.16-4.04,7.64-1.5,10.21c1.79,1.81,4.68,1.02,6.42-0.45c0.29-0.24,0.55-0.52,0.77-0.82
		C302.34,268.05,302.95,265.98,302.06,264.31z M300.9,264.1c0.7,0.63,0.88,1.57,0.72,2.47c-0.15-0.76-0.56-1.48-1.11-2.03
		c-0.43-0.43-0.92-0.73-1.45-0.92C299.73,263.52,300.44,263.68,300.9,264.1z M300.45,268.32c-1.28-0.57-3.48-1.88-2.86-3.6
		c0.06-0.17,0.15-0.31,0.25-0.44c0.58,0.05,1.13,0.21,1.59,0.51c1.26,0.83,1.67,2.33,1.07,3.58
		C300.49,268.35,300.48,268.33,300.45,268.32z M294.27,265.65c0.61-0.76,1.61-1.23,2.64-1.36c-0.99,2.02,1.53,3.92,3.18,4.63
		c0.02,0.01,0.03,0.01,0.05,0.01c0,0,0,0,0,0c-1.07,0.71-2.49,0.84-3.71,0.46C295.09,268.99,293.07,267.16,294.27,265.65z
		 M294.72,270.12c-0.66-0.53-1.08-1.31-1.34-2.16c0.38,0.77,0.99,1.4,1.74,1.82c0.81,0.46,1.76,0.68,2.7,0.66
		C296.75,270.81,295.59,270.83,294.72,270.12z"/>
	<path class="st509" d="M296.69,593.98c-2.88,4.15-6.88,5.13-11.7,4.27c-2.82-0.5-8.1-0.94-7.89-4.84c0.05-0.99-0.68-1.58-1.51-1.69
		c0.29-1.13-1.58-1.83-2.17-0.74c-0.53,0.97-0.87,2.06-1.04,3.19c-0.17,0.56-0.2,1.16-0.12,1.78c0.04,5.04,3.26,10.33,8.76,10.38
		c1.74,0.02,3.2-0.82,4.74-1.48c2.12-0.91,4.24-1.25,6.46-1.82c4.07-1.04,6.27-3.24,8.17-6.89
		C301.65,593.68,298.25,591.74,296.69,593.98z"/>
	<path class="st509" d="M366.81,612.16c-1.4-0.37-2.85-0.82-4.14-1.54c0.28-1.51-1.08-3.18-2.77-2.65
		c-0.76-1.43-0.83-3.02-1.42-4.77c-0.58-1.76-1.7-3.12-3.12-3.76c-0.22-0.36-0.57-0.54-0.93-0.59c-0.01-0.08-0.02-0.16-0.03-0.25
		c-0.08-1.07-1.14-1.46-1.88-1.14c-0.18-0.5-0.34-0.9-0.48-1.16c-0.51-0.93-1.66-0.48-1.93,0.26c0,0-0.01,0-0.01-0.01
		c-0.01,0.03-0.01,0.06-0.02,0.09c-0.01,0.05-0.02,0.1-0.03,0.15c-0.73,4.1,1.28,12.75,5.42,15.56c0.09,0.13,0.17,0.27,0.26,0.4
		c1.13,1.65,2.56,3.27,4.43,4.08c2.37,1.02,3.78-0.35,6.05-0.25C368.77,616.72,369.25,612.8,366.81,612.16z"/>
	<path class="st509" d="M352.65,592.63c-0.05-0.25-0.11-0.51-0.16-0.76c0.17-0.35,0.25-0.76,0.18-1.23c-0.09-0.68-0.5-1.16-0.8-1.74
		c-0.2-0.94-0.39-1.88-0.59-2.82c-0.45-2.13-3.55-1.52-3.65,0.49c-0.08,1.5,0.23,3.82,1.32,5.19c0.16,0.59,0.31,1.18,0.47,1.76
		C349.98,595.62,353.09,594.73,352.65,592.63z"/>
	<path class="st509" d="M380.06,610.18c-0.52-0.65-1.59-1-2.34-0.47c-0.15,0.11-0.31,0.23-0.46,0.35c-0.73-0.44-1.75-0.47-2.48-0.09
		c-1.05,0.56-1.95,1.43-2.11,2.66c-0.18,1.35,0.66,2.75,1.97,3.16c1.21,0.37,2.26-0.19,3.07-1.06c0.7-0.75,1.46-1.45,2.2-2.17
		C380.56,611.94,380.61,610.87,380.06,610.18z"/>
	<path class="st510" d="M306.69,589.37c-0.29-0.83-1.07-1.6-2.02-1.54c-2.46,0.15-4.59,2.53-3.78,5.05
		c0.01,0.03,0.02,0.05,0.03,0.07c-0.02,0.65,0.29,1.28,0.95,1.73c1.53,1.05,3.43-0.25,4.29-1.56
		C306.86,592.07,307.11,590.57,306.69,589.37z"/>
	<path class="st510" d="M371.79,615.92c-0.94-1.23-2-1.82-3.51-2.13c-1.03-0.21-2.52-0.43-3.35-1.25c-0.14-0.17-0.27-0.33-0.4-0.52
		c-0.15-0.29-0.34-0.51-0.56-0.68c-0.34-0.56-0.62-1.17-0.81-1.83c-0.62-2.22-3.94-1.29-3.44,0.95c0.16,0.7,0.39,1.37,0.68,2.01
		c-0.13,0.38-0.13,0.81,0.04,1.27c1.51,3.95,5.33,6.31,9.5,5.73c0.59-0.08,1.01-0.42,1.28-0.87
		C372.03,617.97,372.45,616.79,371.79,615.92z"/>
	<path class="st510" d="M282.98,596.8c-1.55-0.81-3.34-1.38-4.73-2.45c-0.79-0.61-1.41-1.41-1.65-2.39
		c-0.09-0.36-0.29-2.7,0.06-3.53c0.79,0.02,1.59-0.96,1.11-1.8c-0.05-0.08-0.09-0.16-0.14-0.24c-0.2-0.35-0.62-0.61-1.03-0.59
		c-3.26,0.16-3.67,5.83-2.95,8.14c1.06,3.39,4.73,5.37,7.98,6.07C283.49,600.41,284.83,597.76,282.98,596.8z"/>
</g>
</svg>
