<?xml version="1.0" standalone="no"?><!DOCTYPE svg PUBLIC "-//W3C//DTD SVG 1.1//EN" "http://www.w3.org/Graphics/SVG/1.1/DTD/svg11.dtd"><svg t="1653208383316" class="icon" viewBox="0 0 1024 1024" version="1.1" xmlns="http://www.w3.org/2000/svg" p-id="7493" xmlns:xlink="http://www.w3.org/1999/xlink" width="200" height="200"><defs><style type="text/css">@font-face { font-family: feedback-iconfont; src: url("//at.alicdn.com/t/font_1031158_u69w8yhxdu.woff2?t=1630033759944") format("woff2"), url("//at.alicdn.com/t/font_1031158_u69w8yhxdu.woff?t=1630033759944") format("woff"), url("//at.alicdn.com/t/font_1031158_u69w8yhxdu.ttf?t=1630033759944") format("truetype"); }
</style></defs><path d="M612.9 749.5s-104.4 1.6-151.8-120c-114.1 49-153.9 66.7-153.9 66.7s78 228.2 279.8 131.3c34.5-64.5 25.9-78 25.9-78z" fill="#69A2F8" p-id="7494"></path><path d="M492.09 853.77c-21.63 0-42.34-4.12-62.03-12.37-45.68-19.14-77.25-57.42-95.69-86.15-19.94-31.07-29.26-58.04-29.36-58.3-0.39-1.13 0.15-2.37 1.25-2.86 0.4-0.18 41.12-18.27 153.93-66.71 0.58-0.25 1.23-0.25 1.8-0.01 0.58 0.24 1.03 0.71 1.26 1.29 24.16 61.99 63.52 90.91 92.29 104.25 31.21 14.48 57.09 14.31 57.33 14.28 0.79 0.01 1.55 0.39 1.98 1.07 0.95 1.5 8.34 16.48-25.81 80.33-0.23 0.43-0.59 0.78-1.04 0.99-33.57 16.12-65.64 24.19-95.91 24.19zM310.11 697.44c2.51 6.72 11.65 29.63 28.22 55.43 18.08 28.15 48.99 65.62 93.54 84.29 45.78 19.18 97.4 15.34 153.45-11.41 27.44-51.46 26.77-69.58 25.9-73.96-6.39-0.17-29.56-1.72-57.42-14.59-29.26-13.52-69.15-42.63-93.98-104.64-97.59 41.92-140.46 60.79-149.71 64.88z" fill="#232C70" p-id="7495"></path><path d="M923 8.4L778.1 70.7 573.6 406.2 745 327.1z" fill="#69A2F8" p-id="7496"></path><path d="M573.6 408.51a2.3 2.3 0 0 1-1.72-0.77c-0.68-0.76-0.78-1.87-0.25-2.74l204.5-335.5c0.25-0.41 0.62-0.73 1.06-0.92l144.9-62.3c0.91-0.39 1.96-0.16 2.63 0.57 0.66 0.73 0.78 1.81 0.3 2.67l-178 318.7c-0.24 0.43-0.61 0.77-1.05 0.97l-171.4 79.1c-0.31 0.15-0.64 0.22-0.97 0.22zM779.69 72.53l-200.17 328.4 163.83-75.61L917.67 13.2 779.69 72.53z" fill="#232C70" p-id="7497"></path><path d="M554.8 412.6L745 327.1S950.8 375 972.6 589.7s-135.4 321.9-293.9 393c33.1-244.6-123.9-570.1-123.9-570.1z" fill="#69A2F8" p-id="7498"></path><path d="M678.7 985.01c-0.49 0-0.98-0.16-1.38-0.46-0.67-0.5-1.02-1.33-0.91-2.16 17.04-125.93-17.49-273.86-49.45-375.77-34.66-110.51-73.85-192.2-74.24-193.01-0.27-0.56-0.3-1.21-0.09-1.79 0.21-0.59 0.65-1.06 1.22-1.31l190.2-85.5c0.46-0.21 0.98-0.26 1.47-0.14 0.52 0.12 52.52 12.53 106.45 51.16 31.69 22.7 57.87 49.9 77.81 80.83 24.93 38.67 40.11 83.29 45.12 132.63 5.22 51.4 0.32 99.5-14.55 142.96-13.42 39.21-35.41 75.94-65.37 109.16-48.17 53.41-116.59 98.92-215.33 143.21-0.31 0.12-0.63 0.19-0.95 0.19zM557.89 413.74c6.4 13.62 41.83 90.61 73.47 191.49 20.42 65.11 35.3 127.3 44.22 184.84 10.89 70.25 12.89 133.75 5.94 188.82 146.99-66.44 310.92-170.91 288.78-388.96C959.14 479.96 898.4 415 849.42 379.87c-49.7-35.65-97.7-48.68-104.2-50.33l-187.33 84.2z" fill="#232C70" p-id="7499"></path><path d="M164.6 70.7c0 4 9.1 212.2 9.1 212.2h294.4L310.7 567.1s256.7-92 296.2 77.5c20.2 98.5-52.5 169.5-126.7 163.1s-122.7-44.4-163.9-115.4c-155 0-207.8-0.4-207.8-0.4s73.9 341 449.2 328.1c217.7-13.2 307-265 263.9-411.4C778.6 462.2 670.5 406.2 600 396 660.2 291 781.3 70.7 781.3 70.7H164.6z" fill="#FC8CA7" p-id="7500"></path><path d="M537.3 1022.66c-77.85 0-148.1-15.59-209.16-46.42-53.13-26.83-99.42-65.2-137.6-114.03-64.96-83.09-84.11-168.96-84.3-169.82-0.15-0.69 0.02-1.4 0.46-1.95 0.44-0.54 1.1-0.85 1.79-0.85h0.02c0.53 0 54.57 0.4 207.78 0.4 0.82 0 1.58 0.44 2 1.15 42.94 73.99 91.42 108.16 162.1 114.26 34.88 3.01 70.4-11.71 95.02-39.37 27.91-31.35 38.56-75.45 29.22-120.97-8.57-36.79-28.4-63.91-58.93-80.54-45.17-24.62-106.37-22.05-149.75-15.56-47.2 7.06-84.12 20.17-84.49 20.31-0.91 0.33-1.92 0.05-2.54-0.68s-0.73-1.77-0.26-2.61l155.5-280.77H173.7c-1.24 0-2.25-0.97-2.31-2.21-0.37-8.5-9.1-208.3-9.1-212.3 0-1.27 1.03-2.31 2.31-2.31h616.7a2.31 2.31 0 0 1 2.03 3.42c-1.2 2.18-119.57 217.47-179.65 322.42 25.34 4.12 71.67 16.73 118.9 55.21 47.7 38.86 81.76 92.19 101.24 158.51 12.37 42.03 13.96 93.67 4.47 145.41-9.96 54.31-31.1 105.64-61.15 148.44-24.32 34.65-53.59 62.51-86.99 82.8-36.76 22.33-77.91 35.02-122.31 37.71-6.9 0.23-13.75 0.35-20.54 0.35zM111.43 694.23c3.87 15.42 25.09 91.45 82.86 165.28 59.33 75.82 170.49 164.81 363.33 158.18 105.77-6.42 170.27-68.01 205.74-118.55 58.64-83.55 81.68-202.76 56.02-289.9-40.52-137.97-140.07-199.44-219.71-210.97-0.76-0.11-1.41-0.59-1.75-1.27-0.33-0.69-0.31-1.5 0.07-2.16C653.4 298.19 761.78 101.37 777.39 73H166.98c0.81 21.73 8 186.47 8.93 207.58H468.1c0.82 0 1.57 0.43 1.99 1.14 0.42 0.7 0.43 1.58 0.03 2.29L315.6 563.03c12.2-3.94 42.81-13.1 79.6-18.61 44.1-6.61 106.4-9.19 152.72 16.05 31.73 17.29 52.34 45.42 61.24 83.61 5.04 24.58 4.62 48.28-1.23 70.51-5.35 20.32-15.4 39.17-29.05 54.51-25.58 28.74-62.54 44.03-98.86 40.9-37.09-3.2-68.32-14.29-95.48-33.9-25.53-18.44-48.28-45.1-69.55-81.49-132.63 0-190.5-0.3-203.56-0.38z" fill="#232C70" p-id="7501"></path><path d="M242.4 624.7l218.7 4.8-144.7 62.7-207.9-0.4z" fill="#FFD4C1" p-id="7502"></path><path d="M316.4 694.51l-207.9-0.4c-1.07 0-2-0.74-2.24-1.78s0.26-2.11 1.21-2.59l133.9-67.1c0.34-0.17 0.71-0.26 1.08-0.24l218.7 4.8c1.08 0.02 2.01 0.8 2.21 1.86 0.21 1.07-0.35 2.13-1.35 2.56l-144.7 62.7c-0.28 0.12-0.59 0.19-0.91 0.19z m-198.18-5l197.7 0.38 134.58-58.31-207.58-4.56-124.7 62.49z" fill="#232C70" p-id="7503"></path><path d="M299.5 7.1L164.6 70.7h616.7L923 8.4z" fill="#FFD4C1" p-id="7504"></path><path d="M781.3 73.01H164.6c-1.08 0-2.02-0.75-2.25-1.8a2.3 2.3 0 0 1 1.27-2.59l134.9-63.6c0.31-0.15 0.66-0.2 0.99-0.22L923 6.09a2.3 2.3 0 0 1 2.25 1.84c0.22 1.07-0.33 2.15-1.33 2.59l-141.7 62.3c-0.28 0.12-0.6 0.19-0.92 0.19z m-606.39-4.62h605.9l131.25-57.71-612.05-1.27-125.1 58.98z" fill="#232C70" p-id="7505"></path></svg>