<?xml version="1.0" standalone="no"?><!DOCTYPE svg PUBLIC "-//W3C//DTD SVG 1.1//EN" "http://www.w3.org/Graphics/SVG/1.1/DTD/svg11.dtd"><svg t="1653209085915" class="icon" viewBox="0 0 1024 1024" version="1.1" xmlns="http://www.w3.org/2000/svg" p-id="16155" xmlns:xlink="http://www.w3.org/1999/xlink" width="200" height="200"><defs><style type="text/css">@font-face { font-family: feedback-iconfont; src: url("//at.alicdn.com/t/font_1031158_u69w8yhxdu.woff2?t=1630033759944") format("woff2"), url("//at.alicdn.com/t/font_1031158_u69w8yhxdu.woff?t=1630033759944") format("woff"), url("//at.alicdn.com/t/font_1031158_u69w8yhxdu.ttf?t=1630033759944") format("truetype"); }
</style></defs><path d="M248.470588 903.529412H173.176471c-12.423529 0-22.588235 10.164706-22.588236 22.588235v75.294118c0 12.423529 10.164706 22.588235 22.588236 22.588235h75.294117c12.423529 0 22.588235-10.164706 22.588236-22.588235v-75.294118c0-12.423529-10.164706-22.588235-22.588236-22.588235zM399.058824 903.529412h-75.294118c-12.423529 0-22.588235 10.164706-22.588235 22.588235v75.294118c0 12.423529 10.164706 22.588235 22.588235 22.588235h75.294118c12.423529 0 22.588235-10.164706 22.588235-22.588235v-75.294118c0-12.423529-10.164706-22.588235-22.588235-22.588235zM549.647059 903.529412h-75.294118c-12.423529 0-22.588235 10.164706-22.588235 22.588235v75.294118c0 12.423529 10.164706 22.588235 22.588235 22.588235h75.294118c12.423529 0 22.588235-10.164706 22.588235-22.588235v-75.294118c0-12.423529-10.164706-22.588235-22.588235-22.588235zM700.235294 903.529412h-75.294118c-12.423529 0-22.588235 10.164706-22.588235 22.588235v75.294118c0 12.423529 10.164706 22.588235 22.588235 22.588235h75.294118c12.423529 0 22.588235-10.164706 22.588235-22.588235v-75.294118c0-12.423529-10.164706-22.588235-22.588235-22.588235zM850.823529 903.529412h-75.294117c-12.423529 0-22.588235 10.164706-22.588236 22.588235v75.294118c0 12.423529 10.164706 22.588235 22.588236 22.588235h75.294117c12.423529 0 22.588235-10.164706 22.588236-22.588235v-75.294118c0-12.423529-10.164706-22.588235-22.588236-22.588235zM248.470588 752.941176H173.176471c-12.423529 0-22.588235 10.164706-22.588236 22.588236v75.294117c0 12.423529 10.164706 22.588235 22.588236 22.588236h75.294117c12.423529 0 22.588235-10.164706 22.588236-22.588236v-75.294117c0-12.423529-10.164706-22.588235-22.588236-22.588236zM399.058824 602.352941h-75.294118c-12.423529 0-22.588235 10.164706-22.588235 22.588235v75.294118c0 12.423529 10.164706 22.588235 22.588235 22.588235h75.294118c12.423529 0 22.588235-10.164706 22.588235-22.588235v-75.294118c0-12.423529-10.164706-22.588235-22.588235-22.588235zM549.647059 451.764706h-75.294118c-12.423529 0-22.588235 10.164706-22.588235 22.588235v75.294118c0 12.423529 10.164706 22.588235 22.588235 22.588235h75.294118c12.423529 0 22.588235-10.164706 22.588235-22.588235v-75.294118c0-12.423529-10.164706-22.588235-22.588235-22.588235zM700.235294 451.764706h-75.294118c-12.423529 0-22.588235 10.164706-22.588235 22.588235v75.294118c0 12.423529 10.164706 22.588235 22.588235 22.588235h75.294118c12.423529 0 22.588235-10.164706 22.588235-22.588235v-75.294118c0-12.423529-10.164706-22.588235-22.588235-22.588235zM850.823529 301.176471h-75.294117c-12.423529 0-22.588235 10.164706-22.588236 22.588235v75.294118c0 12.423529 10.164706 22.588235 22.588236 22.588235h75.294117c12.423529 0 22.588235-10.164706 22.588236-22.588235v-75.294118c0-12.423529-10.164706-22.588235-22.588236-22.588235zM248.470588 150.588235H173.176471c-12.423529 0-22.588235 10.164706-22.588236 22.588236v75.294117c0 12.423529 10.164706 22.588235 22.588236 22.588236h75.294117c12.423529 0 22.588235-10.164706 22.588236-22.588236v-75.294117c0-12.423529-10.164706-22.588235-22.588236-22.588236zM850.823529 150.588235h-75.294117c-12.423529 0-22.588235 10.164706-22.588236 22.588236v75.294117c0 12.423529 10.164706 22.588235 22.588236 22.588236h75.294117c12.423529 0 22.588235-10.164706 22.588236-22.588236v-75.294117c0-12.423529-10.164706-22.588235-22.588236-22.588236zM399.058824 0h-75.294118c-12.423529 0-22.588235 10.164706-22.588235 22.588235v75.294118c0 12.423529 10.164706 22.588235 22.588235 22.588235h75.294118c12.423529 0 22.588235-10.164706 22.588235-22.588235V22.588235c0-12.423529-10.164706-22.588235-22.588235-22.588235zM549.647059 0h-75.294118c-12.423529 0-22.588235 10.164706-22.588235 22.588235v75.294118c0 12.423529 10.164706 22.588235 22.588235 22.588235h75.294118c12.423529 0 22.588235-10.164706 22.588235-22.588235V22.588235c0-12.423529-10.164706-22.588235-22.588235-22.588235zM700.235294 0h-75.294118c-12.423529 0-22.588235 10.164706-22.588235 22.588235v75.294118c0 12.423529 10.164706 22.588235 22.588235 22.588235h75.294118c12.423529 0 22.588235-10.164706 22.588235-22.588235V22.588235c0-12.423529-10.164706-22.588235-22.588235-22.588235z" fill="#FF8C15" p-id="16156"></path></svg>