<?xml version="1.0" standalone="no"?><!DOCTYPE svg PUBLIC "-//W3C//DTD SVG 1.1//EN" "http://www.w3.org/Graphics/SVG/1.1/DTD/svg11.dtd"><svg t="1653208921300" class="icon" viewBox="0 0 1024 1024" version="1.1" xmlns="http://www.w3.org/2000/svg" p-id="14008" xmlns:xlink="http://www.w3.org/1999/xlink" width="200" height="200"><defs><style type="text/css">@font-face { font-family: feedback-iconfont; src: url("//at.alicdn.com/t/font_1031158_u69w8yhxdu.woff2?t=1630033759944") format("woff2"), url("//at.alicdn.com/t/font_1031158_u69w8yhxdu.woff?t=1630033759944") format("woff"), url("//at.alicdn.com/t/font_1031158_u69w8yhxdu.ttf?t=1630033759944") format("truetype"); }
</style></defs><path d="M512 512m-512 0a512 512 0 1 0 1024 0 512 512 0 1 0-1024 0Z" fill="#FFD54F" p-id="14009"></path><path d="M354.133333 846.933333c-11.733333 9.6-27.733333 7.466667-37.333333-4.266666-7.466667-9.6-7.466667-23.466667 0-33.066667 105.6-105.6 278.4-105.6 384 0 9.6 10.666667 8.533333 27.733333-3.2 37.333333-9.6 8.533333-24.533333 8.533333-34.133333 0-85.333333-86.4-224-86.4-309.333334 0z" fill="#6D4C41" p-id="14010"></path><path d="M290.133333 357.333333m-81.066666 0a81.066667 81.066667 0 1 0 162.133333 0 81.066667 81.066667 0 1 0-162.133333 0Z" fill="#6D4C41" p-id="14011"></path><path d="M726.4 357.333333m-81.066667 0a81.066667 81.066667 0 1 0 162.133334 0 81.066667 81.066667 0 1 0-162.133334 0Z" fill="#6D4C41" p-id="14012"></path></svg>