<?xml version="1.0" standalone="no"?><!DOCTYPE svg PUBLIC "-//W3C//DTD SVG 1.1//EN" "http://www.w3.org/Graphics/SVG/1.1/DTD/svg11.dtd"><svg t="1652941493409" class="icon" viewBox="0 0 1024 1024" version="1.1" xmlns="http://www.w3.org/2000/svg" p-id="3091" xmlns:xlink="http://www.w3.org/1999/xlink" width="200" height="200"><defs><style type="text/css">@font-face { font-family: feedback-iconfont; src: url("//at.alicdn.com/t/font_1031158_u69w8yhxdu.woff2?t=1630033759944") format("woff2"), url("//at.alicdn.com/t/font_1031158_u69w8yhxdu.woff?t=1630033759944") format("woff"), url("//at.alicdn.com/t/font_1031158_u69w8yhxdu.ttf?t=1630033759944") format("truetype"); }
</style></defs><path d="M626.34 547.58a83.86 85.97 0 1 0 167.72 0 83.86 85.97 0 1 0-167.72 0Z" fill="#7781BC" p-id="3092"></path><path d="M640.73 655.28a66.23 69.22 0 1 0 132.46 0 66.23 69.22 0 1 0-132.46 0Z" fill="#7781BC" p-id="3093"></path><path d="M802.88 427.12c26-213.84-53.65-340.64-283.13-340.64s-286.55 168-265.29 340.64z" fill="#7781BC" p-id="3094"></path><path d="M264.73 547.58a83.86 85.97 0 1 0 167.72 0 83.86 85.97 0 1 0-167.72 0Z" fill="#7781BC" p-id="3095"></path><path d="M279.12 655.28a66.23 69.22 0 1 0 132.46 0 66.23 69.22 0 1 0-132.46 0Z" fill="#7781BC" p-id="3096"></path><path d="M725.54 917.77c0-98.28-104.5-178-202.69-178.37-98.19 0.39-207.69 80.09-207.69 178.37z" fill="#2D7F90" p-id="3097"></path><path d="M711.55 440.22c-20.91 30.46-18.66 68.33 5 84.59s59.83 4.75 80.74-25.71 18.66-68.33-5-84.58-59.83-4.75-80.74 25.7z" fill="#FFD1CA" p-id="3098"></path><path d="M747.9 509.4a6 6 0 0 1-5.95-5.35c-3.34-30.29 12.45-44.71 19.4-49.5 9.59-6.62 20.54-8.82 27.88-5.62a6 6 0 0 1-4.79 11c-2.88-1.25-9.92 0.11-16.28 4.5-5.17 3.57-16.92 14.44-14.28 38.31a6 6 0 0 1-5.31 6.62c-0.22 0.02-0.45 0.04-0.67 0.04z" fill="#FFBAB3" p-id="3099"></path><path d="M342.32 440.22c20.91 30.46 18.66 68.33-5 84.59s-59.83 4.75-80.74-25.71-18.66-68.33 5-84.58 59.83-4.75 80.74 25.7z" fill="#FFD1CA" p-id="3100"></path><path d="M306 509.4h-0.67a6 6 0 0 1-5.3-6.62c2.63-23.87-9.12-34.74-14.29-38.31-6.36-4.39-13.4-5.76-16.28-4.5a6 6 0 0 1-4.79-11c7.35-3.2 18.29-1 27.88 5.62 7 4.79 22.74 19.21 19.4 49.5a6 6 0 0 1-5.95 5.31z" fill="#FFBAB3" p-id="3101"></path><path d="M566.44 749.4s-17.91 54.69-45.44 54.69c-30 0-47.94-54.69-47.94-54.69v-87.86h93.37z" fill="#FFD1CA" p-id="3102"></path><path d="M753.16 489.64c0 110.8-89.83 200.63-200.63 200.63h-51.19c-110.8 0-200.63-89.83-200.63-200.63V388.17c0-110.8 89.83-200.63 200.63-200.63h51.19c110.8 0 200.63 89.83 200.63 200.63z" fill="#FFE6E1" p-id="3103"></path><path d="M430.75 538.11a43.95 43.95 0 1 1-43.95-43.95 43.95 43.95 0 0 1 43.95 43.95zM711 538.11a43.95 43.95 0 1 1-44-43.95 43.95 43.95 0 0 1 44 43.95z" fill="#F47A8F" opacity=".4" p-id="3104"></path><path d="M528.73 549h-1.11c-14.76-0.63-24.05-12.84-25.07-14.23l-1.91-2.63v-116.4a10 10 0 0 1 20 0v109.31c1.92 1.79 4.85 3.85 7.89 4h0.22c4 0 8-3.61 10.64-6.68a10 10 0 0 1 15.12 13.09C544.92 546.5 535.38 549 528.73 549z" fill="#F47A8F" p-id="3105"></path><path d="M616.71 438.73c0 16.94 12.08 30.67 27 30.67s27-13.73 27-30.67-12.07-30.66-27-30.66-27 13.73-27 30.66zM382.86 438.73c0 16.94 12.09 30.67 27 30.67s27-13.73 27-30.67-12.08-30.66-27-30.66-27 13.73-27 30.66zM437.38 379.43a5.94 5.94 0 0 1-3.07-0.85c-1.13-0.66-27.16-15.57-61.47-0.62a6 6 0 0 1-4.8-11c40.21-17.52 71.13 0.55 72.43 1.32a6 6 0 0 1-3.09 11.15zM683 379.43a5.94 5.94 0 0 1-3.07-0.85c-1.13-0.66-27.15-15.57-61.47-0.62a6 6 0 0 1-4.8-11c40.2-17.52 71.13 0.55 72.43 1.32a6 6 0 0 1-3.09 11.15z" fill="#31296B" p-id="3106"></path><path d="M532.14 618.83c-30.53 0-50.86-11.89-52.1-12.63a10 10 0 0 1 10.25-17.2c1.59 0.93 37 21.12 83.71 0.77a10 10 0 0 1 8 18.33 124.05 124.05 0 0 1-49.86 10.73z" fill="#E83F63" p-id="3107"></path><path d="M663.18 426.37a6 6 0 0 1-0.26-12c0.19 0 13.56-1 14.87-7.9a6 6 0 1 1 11.79 2.23c-2.49 13.19-17.58 17.3-26.15 17.66zM390.69 426.37h-0.25c-8.54-0.35-23.66-4.47-26.15-17.66a6 6 0 0 1 11.79-2.23c1.33 7 14.72 7.9 14.86 7.9a6 6 0 0 1-0.25 12z" fill="#31296B" p-id="3108"></path><path d="M521.84 803.65c34.79-13.68 44.6-59.08 44.6-59.08S615.85 753 623.93 765s-48.53 88.43-68.57 94.42-33.52-55.77-33.52-55.77zM521.78 803.63s-2.89 19.62-9 36.07c-4.82 12.91-11.62 23.87-20.6 21.84-20.4-4.61-73.57-85.29-66.33-97.79 2.89-5 16.78-10 22.8-12.36 7-2.81 24.44-5.39 24.44-5.39s10.51 47.18 48.69 57.63z" fill="#EBF2FC" p-id="3109"></path><path d="M406.26 730.45c0 32.82-26.74 81-59.73 81s-59.72-48.21-59.72-81a59.73 59.73 0 0 1 119.45 0zM311.85 871.28c2.19 15.34 14.25 25.32 22.93 35.15 4.36-1.19 8.71-2.44 13-3.75q19-5.76 37.2-13.34l0.09-0.05q4.34-1.8 8.62-3.7c0.3-1 0.58-2 0.83-3a30.26 30.26 0 0 0 0.86-7.73c-0.32-22.62-29.19-48.56-36.57-56.38-1.42-1.52-19.78-1.56-21.16 0-5 5.68-23.09 21.23-25.87 42.9a35.55 35.55 0 0 0 0.07 9.9zM767.87 730.45c0 32.82-26.74 81-59.73 81s-59.72-48.21-59.72-81a59.73 59.73 0 0 1 119.45 0zM673.46 871.28c2.19 15.34 14.25 25.32 22.93 35.15q6.54-1.78 13-3.75 19-5.76 37.19-13.34l0.09-0.05q4.34-1.8 8.63-3.7c0.29-1 0.57-2 0.82-3a30.26 30.26 0 0 0 0.86-7.73c-0.32-22.62-29.19-48.56-36.57-56.38-1.42-1.52-19.77-1.56-21.16 0-5 5.68-23.09 21.23-25.87 42.9a35.55 35.55 0 0 0 0.08 9.9zM752.43 410.35v-14.7c0-6.25-4.19-11.54-9.87-12.39-28-4.19-102.3-16.49-143.09-19.29 0 0-9.52-70.7-13.64-70.8h-0.17c-4.06 0-21.15 69.41-21.15 69.41a877.09 877.09 0 0 0-99.14 0.88s-11.09-52-14.95-52c-4-0.15-16.35 54.49-16.35 54.49-33.34 3.19-99.83 17.57-124.2 23.05-5.33 1.2-9.12 6.31-9.12 12.25v9.11c-39.32-63.22-22.69-259.82 230.34-259.82S783.86 366 752.43 410.35z" fill="#7781BC" p-id="3110"></path><path d="M411.94 361.62a8.78 8.78 0 0 1-1.35-0.11 8 8 0 0 1-6.55-9.23c6.31-37.1 27.12-71.88 28-73.35a8 8 0 0 1 13.7 8.27c-0.2 0.33-20.15 33.72-25.94 67.76a8 8 0 0 1-7.86 6.66zM541 351.29a7 7 0 0 1-0.79 0 8 8 0 0 1-7.18-8.74c3.82-38.64 34.5-86.39 35.81-88.41a8 8 0 0 1 13.43 8.7c-0.37 0.57-29.89 46.57-33.32 81.28a8 8 0 0 1-7.95 7.17zM677.58 356.8a8 8 0 0 1-7.86-6.53l-10.52-55.94a8 8 0 1 1 15.73-3l10.52 55.95a8 8 0 0 1-6.39 9.34 8.24 8.24 0 0 1-1.48 0.18zM715.18 361.62a8 8 0 0 1-7.85-6.51l-8.23-43.34a8 8 0 1 1 15.72-3l8.23 43.35a8 8 0 0 1-6.37 9.35 7.62 7.62 0 0 1-1.5 0.15zM363 361.62a8 8 0 0 1-7.9-9.36l7.46-43.34a8 8 0 1 1 15.76 2.71L370.87 355a8 8 0 0 1-7.87 6.62zM324.47 377.4a8.08 8.08 0 0 1-1.46-0.13 8 8 0 0 1-6.41-9.27l5.5-29.78a8 8 0 0 1 15.73 2.91l-5.5 29.78a8 8 0 0 1-7.86 6.49z" fill="#4F5A7F" p-id="3111"></path><path d="M704.32 809.47a17.51 17.51 0 0 0-2.88-6.84 2.43 2.43 0 0 0-0.14-0.2l-0.24-0.3c-0.38-0.46-9.42-11.33-20.17-21.77a138.27 138.27 0 0 0-14.62-12.62c-8.3-6-14.81-8.3-20.36-7.2a13.22 13.22 0 0 0-2.47 0.73 16.07 16.07 0 0 0-5.67 4 34.53 34.53 0 0 0-6 9.59c-0.72 1.57-1.36 3.19-1.93 4.81-0.42 1.17-0.8 2.34-1.15 3.49a105.31 105.31 0 0 0-3.2 14.07c-1.53 9.85-5.09 43.17 13.41 58.41a26.73 26.73 0 0 0 17.18 6.36 29.55 29.55 0 0 0 6.2-0.67q1.61-0.35 3.18-0.84c7.62-2.41 14.78-7.44 20.71-12.76a103 103 0 0 0 7.32-7.3 73.93 73.93 0 0 0 8.55-11 21.25 21.25 0 0 0 1.25-3.44v-0.14a42.25 42.25 0 0 0 1.28-6.55 31.51 31.51 0 0 0-0.25-9.83zM790.54 797.27a101.49 101.49 0 0 0-4.35-17.56c-1.9-5.36-4.5-10.7-8-14.41a16.07 16.07 0 0 0-5.67-4 12.53 12.53 0 0 0-2.16-0.66l-0.31-0.07-0.42-0.07-0.75-0.1h-0.47a2.56 2.56 0 0 0-0.39 0 15.48 15.48 0 0 0-2.94 0.14 18.39 18.39 0 0 0-2.51 0.52c-0.72 0.2-1.47 0.44-2.23 0.73s-1.43 0.58-2.17 0.92c-0.37 0.17-0.74 0.36-1.12 0.55l-0.86 0.46-0.88 0.48q-0.88 0.51-1.8 1.08c-1.22 0.77-2.48 1.62-3.78 2.57a138.27 138.27 0 0 0-14.62 12.62c-10.75 10.44-19.79 21.31-20.17 21.77l-0.24 0.3a2.43 2.43 0 0 0-0.14 0.2 17.51 17.51 0 0 0-2.88 6.84 31.51 31.51 0 0 0-0.29 9.86 42.25 42.25 0 0 0 1.28 6.55v0.14a21.25 21.25 0 0 0 1.25 3.44 73.93 73.93 0 0 0 8.55 11 103 103 0 0 0 7.32 7.3c5.19 4.65 11.32 9.09 17.88 11.74 0.46 0.18 0.93 0.37 1.41 0.54s0.94 0.33 1.42 0.48 1 0.32 1.58 0.46 1 0.26 1.58 0.38a29.55 29.55 0 0 0 6.2 0.67h1.43c0.43 0 0.88-0.05 1.31-0.1a26.72 26.72 0 0 0 14.51-6.17c18.52-15.43 14.96-48.75 13.43-58.6z" fill="#F47A8F" p-id="3112"></path><path d="M752.1 831.58c-9.2 0-20.81-8.25-21.34-8.63a2 2 0 1 1 2.33-3.25c0.13 0.09 12.47 8.83 20.3 7.8a2 2 0 0 1 0.53 4 13.57 13.57 0 0 1-1.82 0.08zM731.93 815.43a2 2 0 0 1-1.6-3.2c0.44-0.59 10.9-14.47 20.4-16.08a2 2 0 1 1 0.67 3.94c-6.57 1.12-15.13 10.87-17.87 14.54a2 2 0 0 1-1.6 0.8zM739.58 818.17a2 2 0 0 1-0.53-3.93c0.61-0.17 14.9-4.08 23.26-2.79a2 2 0 1 1-0.61 3.95c-7.52-1.16-21.44 2.66-21.58 2.69a2 2 0 0 1-0.54 0.08zM668 833.12h-0.73a2 2 0 0 1-1.88-2.11 2 2 0 0 1 2.11-1.89c6.61 0.38 16.4-6.59 19.64-9.31a2 2 0 1 1 2.57 3.07c-0.55 0.41-12.38 10.24-21.71 10.24zM687.79 815.45a2 2 0 0 1-1.51-0.68c-3-3.45-12.28-12.53-18.92-13.14a2 2 0 0 1 0.37-4c9.59 0.89 21.08 13.94 21.56 14.5a2 2 0 0 1-1.5 3.31zM680.36 818.76a1.72 1.72 0 0 1-0.39 0c-0.14 0-14.32-2.77-21.72-1a2 2 0 0 1-0.91-3.9c8.24-1.92 22.79 0.9 23.41 1a2 2 0 0 1-0.39 4z" fill="#F4A2BD" p-id="3113"></path><path d="M341.32 809.47a17.51 17.51 0 0 0-2.88-6.84 2.43 2.43 0 0 0-0.14-0.2l-0.24-0.3c-0.38-0.46-9.42-11.33-20.17-21.77a138.27 138.27 0 0 0-14.62-12.62c-8.3-6-14.81-8.3-20.36-7.2a13.22 13.22 0 0 0-2.47 0.73 16.07 16.07 0 0 0-5.67 4 34.53 34.53 0 0 0-6.05 9.59c-0.72 1.57-1.36 3.19-1.93 4.81-0.42 1.17-0.8 2.34-1.15 3.49a105.31 105.31 0 0 0-3.2 14.07c-1.53 9.85-5.09 43.17 13.41 58.41a26.73 26.73 0 0 0 17.23 6.36 29.55 29.55 0 0 0 6.2-0.67q1.61-0.35 3.18-0.84c7.62-2.41 14.78-7.44 20.71-12.76a103 103 0 0 0 7.32-7.3 73.93 73.93 0 0 0 8.55-11 21.25 21.25 0 0 0 1.25-3.44v-0.14a42.25 42.25 0 0 0 1.28-6.55 31.51 31.51 0 0 0-0.25-9.83zM427.54 797.27a101.49 101.49 0 0 0-4.35-17.56c-1.9-5.36-4.5-10.7-8-14.41a16.07 16.07 0 0 0-5.67-4 12.53 12.53 0 0 0-2.16-0.66l-0.31-0.07-0.42-0.07-0.75-0.1h-0.47a2.56 2.56 0 0 0-0.39 0 15.48 15.48 0 0 0-2.94 0.14 18.39 18.39 0 0 0-2.51 0.52c-0.72 0.2-1.47 0.44-2.23 0.73s-1.43 0.58-2.17 0.92c-0.37 0.17-0.74 0.36-1.12 0.55l-0.86 0.46-0.88 0.48q-0.88 0.51-1.8 1.08c-1.22 0.77-2.48 1.62-3.78 2.57a138.27 138.27 0 0 0-14.62 12.62c-10.75 10.44-19.79 21.31-20.17 21.77l-0.24 0.3a2.43 2.43 0 0 0-0.14 0.2 17.51 17.51 0 0 0-2.88 6.84 31.51 31.51 0 0 0-0.29 9.86 42.25 42.25 0 0 0 1.28 6.55v0.14a21.25 21.25 0 0 0 1.25 3.44 73.93 73.93 0 0 0 8.55 11 103 103 0 0 0 7.32 7.3c5.19 4.65 11.32 9.09 17.88 11.74 0.46 0.18 0.93 0.37 1.41 0.54s0.94 0.33 1.42 0.48 1.05 0.32 1.58 0.46 1.05 0.26 1.58 0.38a29.55 29.55 0 0 0 6.2 0.67h1.43c0.43 0 0.88-0.05 1.31-0.1a26.72 26.72 0 0 0 14.51-6.17c18.52-15.43 14.96-48.75 13.43-58.6z" fill="#F47A8F" p-id="3114"></path><path d="M389.1 831.58c-9.2 0-20.81-8.25-21.34-8.63a2 2 0 1 1 2.33-3.25c0.13 0.09 12.47 8.83 20.3 7.8a2 2 0 0 1 0.53 4 13.57 13.57 0 0 1-1.82 0.08zM368.93 815.43a2 2 0 0 1-1.6-3.2c0.44-0.59 10.9-14.47 20.4-16.08a2 2 0 1 1 0.67 3.94c-6.57 1.12-15.13 10.87-17.87 14.54a2 2 0 0 1-1.6 0.8zM376.58 818.17a2 2 0 0 1-0.53-3.93c0.61-0.17 14.9-4.08 23.26-2.79a2 2 0 0 1-0.61 3.95c-7.52-1.16-21.44 2.66-21.58 2.69a2 2 0 0 1-0.54 0.08zM305 833.12h-0.73a2 2 0 0 1-1.88-2.11 2 2 0 0 1 2.11-1.89c6.61 0.38 16.4-6.59 19.64-9.31a2 2 0 1 1 2.57 3.07c-0.55 0.41-12.38 10.24-21.71 10.24zM324.79 815.45a2 2 0 0 1-1.51-0.68c-3-3.45-12.28-12.53-18.92-13.14a2 2 0 0 1 0.37-4c9.59 0.89 21.08 13.94 21.56 14.5a2 2 0 0 1-1.5 3.31zM317.36 818.76a1.72 1.72 0 0 1-0.39 0c-0.14 0-14.32-2.77-21.72-1a2 2 0 0 1-0.91-3.9c8.24-1.92 22.79 0.9 23.41 1a2 2 0 0 1-0.39 4z" fill="#F4A2BD" p-id="3115"></path><path d="M726.12 808.32V824a0.73 0.73 0 0 1-0.72 0.73h-30.77a0.73 0.73 0 0 1-0.72-0.73v-15.68a0.72 0.72 0 0 1 0.72-0.72h30.77a0.72 0.72 0 0 1 0.72 0.72zM363.12 808.32V824a0.73 0.73 0 0 1-0.72 0.73h-30.77a0.73 0.73 0 0 1-0.72-0.73v-15.68a0.72 0.72 0 0 1 0.72-0.72h30.77a0.72 0.72 0 0 1 0.72 0.72z" fill="#FC8DA5" p-id="3116"></path></svg>