<?xml version="1.0" standalone="no"?><!DOCTYPE svg PUBLIC "-//W3C//DTD SVG 1.1//EN" "http://www.w3.org/Graphics/SVG/1.1/DTD/svg11.dtd"><svg t="1652941464386" class="icon" viewBox="0 0 1024 1024" version="1.1" xmlns="http://www.w3.org/2000/svg" p-id="2767" xmlns:xlink="http://www.w3.org/1999/xlink" width="200" height="200"><defs><style type="text/css">@font-face { font-family: feedback-iconfont; src: url("//at.alicdn.com/t/font_1031158_u69w8yhxdu.woff2?t=1630033759944") format("woff2"), url("//at.alicdn.com/t/font_1031158_u69w8yhxdu.woff?t=1630033759944") format("woff"), url("//at.alicdn.com/t/font_1031158_u69w8yhxdu.ttf?t=1630033759944") format("truetype"); }
</style></defs><path d="M912.93 719c-14.68-32.3-51.93-80-58.58-174.58-3.49-49.65-1.67-199.06-1.67-199.06l0.75 18.69v-2.38c0-177.86-144.19-322-322-322s-322 144.18-322 322v2.38s4.25 135.48 0 180.37C204 601 172.09 684.1 152.36 719c-16.36 29-12.48 81-3 101.68C188 905 350.42 921.05 548 919.55c185.34-1.4 320-12.55 364.95-110.69 7.58-16.61 14.05-58.86-0.02-89.86z" fill="#E88A95" p-id="2768"></path><path d="M726.56 929.77c0-98.28-104.5-178-202.68-178.37-98.19 0.39-207.69 80.09-207.69 178.37z" fill="#E83F63" p-id="2769"></path><path d="M712.58 452.22c-20.91 30.46-18.66 68.33 5 84.59s59.84 4.75 80.74-25.71 18.66-68.33-5-84.58-59.83-4.75-80.74 25.7z" fill="#FFD1CA" p-id="2770"></path><path d="M748.93 521.4a6 6 0 0 1-6-5.35c-3.34-30.29 12.46-44.71 19.4-49.5 9.59-6.62 20.54-8.82 27.89-5.62a6 6 0 1 1-4.8 11c-2.87-1.25-9.91 0.11-16.27 4.5-5.15 3.57-16.88 14.44-14.25 38.31a6 6 0 0 1-5.31 6.62c-0.22 0.02-0.44 0.04-0.66 0.04z" fill="#FFBAB3" p-id="2771"></path><path d="M343.34 452.22c20.91 30.46 18.66 68.33-5 84.59s-59.83 4.75-80.74-25.71-18.66-68.33 5-84.58 59.84-4.75 80.74 25.7z" fill="#FFD1CA" p-id="2772"></path><path d="M307 521.4h-0.66a6 6 0 0 1-5.31-6.62c2.63-23.87-9.11-34.74-14.29-38.31-6.35-4.39-13.39-5.75-16.27-4.5a6 6 0 1 1-4.8-11c7.35-3.2 18.3-1 27.89 5.62 6.95 4.79 22.74 19.21 19.4 49.5a6 6 0 0 1-5.96 5.31z" fill="#FFBAB3" p-id="2773"></path><path d="M567.46 761.4s-17.9 15-45.43 15c-30 0-47.93-15-47.93-15v-87.86h93.36z" fill="#FFD1CA" p-id="2774"></path><path d="M754.19 501.64c0 110.8-89.83 200.63-200.64 200.63h-51.18c-110.81 0-200.64-89.83-200.64-200.63V400.17c0-110.8 89.83-200.63 200.64-200.63h51.18c110.81 0 200.64 89.83 200.64 200.63z" fill="#FFE6E1" p-id="2775"></path><path d="M431.78 550.11a43.95 43.95 0 1 1-43.95-43.95 44 44 0 0 1 43.95 43.95zM712 550.11a44 44 0 1 1-43.95-43.95A44 44 0 0 1 712 550.11z" fill="#F47A8F" opacity=".4" p-id="2776"></path><path d="M529.76 561h-1.11c-14.77-0.63-24.06-12.84-25.07-14.23l-1.91-2.63v-116.4a10 10 0 1 1 20 0v109.31c1.92 1.79 4.85 3.85 7.89 4 4.06 0.16 8.16-3.56 10.86-6.68a10 10 0 0 1 15.12 13.09c-9.6 11.04-19.13 13.54-25.78 13.54z" fill="#F47A8F" p-id="2777"></path><path d="M617.73 450.73c0 16.94 12.09 30.67 27 30.67s27-13.73 27-30.67-12.08-30.66-27-30.66-27 13.73-27 30.66zM383.89 450.73c0 16.94 12.08 30.67 27 30.67s27-13.73 27-30.67-12.08-30.66-27-30.66-27 13.73-27 30.66zM438.4 391.43a5.9 5.9 0 0 1-3.06-0.85c-1.13-0.66-27.16-15.58-61.48-0.62a6 6 0 0 1-4.79-11c40.2-17.52 71.13 0.55 72.43 1.32a6 6 0 0 1-3.1 11.15zM684 391.43a5.9 5.9 0 0 1-3.06-0.85c-1.13-0.66-27.16-15.58-61.48-0.62a6 6 0 0 1-4.79-11c40.2-17.52 71.13 0.55 72.43 1.32a6 6 0 0 1-3.1 11.15z" fill="#31296B" p-id="2778"></path><path d="M533.17 630.83c-30.53 0-50.87-11.89-52.11-12.63a10 10 0 0 1 10.26-17.2c1.55 0.91 37 21.14 83.7 0.78a10 10 0 1 1 8 18.33 124 124 0 0 1-49.85 10.72z" fill="#E83F63" p-id="2779"></path><path d="M664.21 438.37a6 6 0 0 1-0.27-12c0.2 0 13.57-1 14.88-7.9a6 6 0 1 1 11.79 2.23c-2.5 13.19-17.61 17.31-26.15 17.66zM391.72 438.37h-0.26c-8.54-0.35-23.65-4.47-26.15-17.66a6 6 0 0 1 11.8-2.23c1.31 6.95 14.73 7.9 14.87 7.9a6 6 0 0 1-0.26 12z" fill="#31296B" p-id="2780"></path><path d="M266.15 400.22S434 377 526.47 265.76c0 3 47.53 103.24 260.32 145-3-4.5 27.5-310.83-310.82-310.83 0.48-4.05-209.82 30.44-209.82 300.29z" fill="#E88A95" p-id="2781"></path><path d="M305 345a8 8 0 0 1-2-15.74c100.16-26 168.19-106.57 168.86-107.38a8 8 0 0 1 12.3 10.23c-0.72 0.88-18.12 21.66-48.66 46-28.21 22.5-73.4 52.31-128.48 66.61a7.78 7.78 0 0 1-2.02 0.28zM748.53 360.65a8.06 8.06 0 0 1-2.55-0.42c-76.78-25.8-114.6-71.24-116.17-73.16a8 8 0 1 1 12.38-10.14c0.45 0.55 36.83 43.92 108.88 68.13a8 8 0 0 1-2.54 15.59zM780 847a8 8 0 0 1-1.38-15.88c34.55-6.09 61.15-24.51 71.16-49.27 7.6-18.8 4.32-39.46-9.25-58.15-22.9-31.57-40.49-93.91-41.22-96.55a8 8 0 1 1 15.4-4.3c0.18 0.61 17.56 62.21 38.78 91.45 16.92 23.33 20.87 49.45 11.12 73.55-12.09 29.9-43.2 52-83.21 59a8.36 8.36 0 0 1-1.4 0.15zM310.83 847a8.27 8.27 0 0 1-1.4-0.12c-40-7.06-71.12-29.13-83.21-59-9.75-24.1-5.8-50.22 11.12-73.55 21.21-29.24 38.6-90.84 38.77-91.45a8 8 0 0 1 15.41 4.3c-0.74 2.64-18.33 65-41.23 96.55-13.56 18.69-16.85 39.35-9.24 58.15 10 24.76 36.61 43.18 71.16 49.27a8 8 0 0 1-1.38 15.85z" fill="#C64A7C" p-id="2782"></path><path d="M521.38 843.38c59.91 0 113-13.91 145.52-35.28-38.92-34.72-91.83-56.49-143-56.7-51.62 0.21-106.37 22.34-146.69 57.57 32.66 20.88 85.07 34.41 144.17 34.41z" fill="#FFD1CA" p-id="2783"></path></svg>