<?xml version="1.0" standalone="no"?><!DOCTYPE svg PUBLIC "-//W3C//DTD SVG 1.1//EN" "http://www.w3.org/Graphics/SVG/1.1/DTD/svg11.dtd"><svg t="1652941508856" class="icon" viewBox="0 0 1024 1024" version="1.1" xmlns="http://www.w3.org/2000/svg" p-id="3263" xmlns:xlink="http://www.w3.org/1999/xlink" width="200" height="200"><defs><style type="text/css">@font-face { font-family: feedback-iconfont; src: url("//at.alicdn.com/t/font_1031158_u69w8yhxdu.woff2?t=1630033759944") format("woff2"), url("//at.alicdn.com/t/font_1031158_u69w8yhxdu.woff?t=1630033759944") format("woff"), url("//at.alicdn.com/t/font_1031158_u69w8yhxdu.ttf?t=1630033759944") format("truetype"); }
</style></defs><path d="M715.58 452.22c-20.91 30.46-18.66 68.33 5 84.59s59.84 4.75 80.74-25.71 18.66-68.33-5-84.58-59.83-4.75-80.74 25.7z" fill="#FFD1CA" p-id="3264"></path><path d="M751.93 521.4a6 6 0 0 1-6-5.35c-3.34-30.29 12.46-44.71 19.4-49.5 9.59-6.62 20.54-8.82 27.89-5.62a6 6 0 1 1-4.8 11c-2.87-1.25-9.91 0.11-16.27 4.5-5.15 3.57-16.88 14.44-14.25 38.31a6 6 0 0 1-5.31 6.62c-0.22 0.02-0.44 0.04-0.66 0.04z" fill="#FFBAB3" p-id="3265"></path><path d="M346.34 452.22c20.91 30.46 18.66 68.33-5 84.59s-59.83 4.75-80.74-25.71-18.66-68.33 5-84.58 59.84-4.75 80.74 25.7z" fill="#FFD1CA" p-id="3266"></path><path d="M310 521.4h-0.66a6 6 0 0 1-5.31-6.62c2.63-23.87-9.11-34.74-14.29-38.31-6.35-4.39-13.39-5.76-16.27-4.5a6 6 0 1 1-4.8-11c7.36-3.2 18.3-1 27.89 5.62 6.95 4.79 22.74 19.21 19.4 49.5a6 6 0 0 1-5.96 5.31z" fill="#FFBAB3" p-id="3267"></path><path d="M729.56 929.77c0-98.28-104.5-178-202.68-178.37-98.19 0.39-207.69 80.09-207.69 178.37z" fill="#5858AF" p-id="3268"></path><path d="M570.46 761.4s-17.9 23.51-45.43 23.51c-30 0-47.93-23.51-47.93-23.51v-87.86h93.36z" fill="#FFD1CA" p-id="3269"></path><path d="M433.34 774.05l84.6 46.78 107.92-43.38c-30.74-16.41-65.23-25.91-99-26.05-31.32 0.13-63.8 8.34-93.52 22.65z" fill="#FFD1CA" p-id="3270"></path><path d="M791 367c0 127-116.18 201-259.5 201S272 494 272 367s116.18-230 259.5-230S791 240 791 367z" fill="#7781BC" p-id="3271"></path><path d="M757.19 501.64c0 110.8-89.83 200.63-200.64 200.63h-51.18c-110.81 0-200.64-89.83-200.64-200.63V400.17c0-110.8 89.83-200.63 200.64-200.63h51.18c110.81 0 200.64 89.83 200.64 200.63z" fill="#FFE6E1" p-id="3272"></path><path d="M434.78 550.11a43.95 43.95 0 1 1-43.95-43.95 44 44 0 0 1 43.95 43.95zM715 550.11a44 44 0 1 1-43.95-43.95A44 44 0 0 1 715 550.11z" fill="#F47A8F" opacity=".4" p-id="3273"></path><path d="M532.76 561h-1.11c-14.77-0.63-24.06-12.84-25.07-14.23l-1.91-2.63v-116.4a10 10 0 0 1 20 0v109.31c1.92 1.79 4.85 3.85 7.89 4h0.22c4 0 8-3.61 10.64-6.68a10 10 0 0 1 15.12 13.09c-9.6 11.04-19.13 13.54-25.78 13.54z" fill="#F47A8F" p-id="3274"></path><path d="M620.73 450.73c0 16.94 12.09 30.67 27 30.67s27-13.73 27-30.67-12.08-30.66-27-30.66-27 13.73-27 30.66zM386.89 450.73c0 16.94 12.08 30.67 27 30.67s27-13.73 27-30.67-12.08-30.66-27-30.66-27 13.73-27 30.66zM441.4 391.43a5.9 5.9 0 0 1-3.06-0.85c-1.13-0.66-27.16-15.58-61.48-0.62a6 6 0 0 1-4.79-11c40.2-17.52 71.13 0.55 72.43 1.32a6 6 0 0 1-3.1 11.15zM687 391.43a5.9 5.9 0 0 1-3.06-0.85c-1.13-0.66-27.16-15.57-61.48-0.62a6 6 0 0 1-4.79-11c40.2-17.52 71.13 0.55 72.43 1.32a6 6 0 0 1-3.1 11.15z" fill="#31296B" p-id="3275"></path><path d="M536.17 630.83c-30.53 0-50.87-11.89-52.11-12.63a10 10 0 0 1 10.26-17.2c1.55 0.91 37 21.14 83.7 0.78a10 10 0 1 1 8 18.33 124 124 0 0 1-49.85 10.72z" fill="#E83F63" p-id="3276"></path><path d="M667.21 438.37a6 6 0 0 1-0.27-12c0.2 0 13.57-1 14.88-7.9a6 6 0 1 1 11.79 2.23c-2.5 13.19-17.61 17.31-26.15 17.66zM394.72 438.37h-0.26c-8.54-0.35-23.65-4.47-26.15-17.66a6 6 0 0 1 11.8-2.23c1.32 7 14.72 7.9 14.85 7.9a6 6 0 0 1-0.24 12z" fill="#31296B" p-id="3277"></path><path d="M527.16 133.49m-132.51 0a132.51 132.51 0 1 0 265.02 0 132.51 132.51 0 1 0-265.02 0Z" fill="#7781BC" p-id="3278"></path><path d="M528.13 133.5c-129.4 0-234.3 89.39-234.3 199.66v32.44c34.72-11.3 75-34 107.61-97 0 2.49 59.85 108.65 361 96v-31.44c-0.01-110.27-104.91-199.66-234.31-199.66z" fill="#7781BC" p-id="3279"></path><path d="M408.7 174.2a8 8 0 0 1-4.09-14.88 242.48 242.48 0 0 1 245.37-1 8 8 0 1 1-8.05 13.82 226.49 226.49 0 0 0-229.15 0.92 8 8 0 0 1-4.08 1.14zM668 326h-0.33c-66.28-2.63-115.46-18-145-30.49-32.39-13.65-48.94-26.7-49.63-27.24a8 8 0 0 1 10-12.52c0.15 0.12 16 12.5 46.57 25.31 28.25 11.82 75.26 26.44 138.77 29a8 8 0 0 1-0.31 16zM576.05 124a8 8 0 0 1-4.14-14.85c22.68-13.69 20.9-35.71 20.81-36.64a8 8 0 1 1 15.91-1.67c0.15 1.34 3.18 32.92-28.45 52a8 8 0 0 1-4.13 1.16zM481.9 125.68a8 8 0 0 1-5.23-2c-27-23.39-20.59-61.52-20.3-63.13a8 8 0 0 1 15.75 2.79c-0.07 0.44-5 30.91 15 48.24a8 8 0 0 1-5.23 14.05z" fill="#4F5A7F" p-id="3280"></path><path d="M532.22 118.55a8 8 0 0 1-7.72-10.11c5.65-20.71-0.11-55.07-0.17-55.41a8 8 0 1 1 15.77-2.7c0.26 1.54 6.42 38.17-0.17 62.33a8 8 0 0 1-7.71 5.89z" fill="#4F5A7F" p-id="3281"></path><path d="M573.56 496.5a8 8 0 0 1-6.15-2.87c-9.14-11-23.48-17.52-38.37-17.52H529a47.56 47.56 0 0 0-37.25 17.28 8 8 0 0 1-12.32-10.21 64.16 64.16 0 0 1 49.55-23.07h0.11a65.54 65.54 0 0 1 50.65 23.27 8 8 0 0 1-6.14 13.12z" fill="#E83F63" p-id="3282"></path><path d="M398.89 556.21A86.18 86.18 0 1 1 485.07 470a86.27 86.27 0 0 1-86.18 86.21z m0-156.36A70.18 70.18 0 1 0 469.07 470a70.26 70.26 0 0 0-70.18-70.15zM660.83 556.21A86.18 86.18 0 1 1 747 470a86.28 86.28 0 0 1-86.17 86.21z m0-156.36A70.18 70.18 0 1 0 731 470a70.28 70.28 0 0 0-70.17-70.15z" fill="#E83F63" p-id="3283"></path><path d="M427.26 765.75l96.39 53.5-62.55 96.37-93.74-102.5 59.9-47.37z" fill="#EDF2F4" p-id="3284"></path><path d="M615.12 761.54l-92.32 57.71 61.97 96.08L674.7 805.1l-59.58-43.56z" fill="#EDF2F4" p-id="3285"></path><path d="M608.23 787.77c-14.56-20.82-53.67 3.17-73 17-3.19-2.44-3.19 44.63 0 42.19 19.28 13.8 58.39 37.79 73 17 7.12-10.17-5.08-27.08-5.08-38.06s12.2-27.96 5.08-38.13zM439.33 787.77c14.56-20.82 53.67 3.17 72.95 17 3.19-2.44 3.19 44.63 0 42.19-19.28 13.8-58.39 37.79-72.95 17-7.12-10.17 5.08-27.08 5.08-38.06s-12.2-27.96-5.08-38.13z" fill="#EF6A50" p-id="3286"></path><path d="M507.47 799.03m5.67 0l20.06 0q5.67 0 5.67 5.67l0 44.04q0 5.67-5.67 5.67l-20.06 0q-5.67 0-5.67-5.67l0-44.04q0-5.67 5.67-5.67Z" fill="#F98364" p-id="3287"></path></svg>