<?xml version="1.0" encoding="UTF-8" ?>
<!DOCTYPE svg PUBLIC "-//W3C//DTD SVG 1.1//EN" "http://www.w3.org/Graphics/SVG/1.1/DTD/svg11.dtd">
<svg width="438pt" height="557pt" viewBox="0 0 438 557" version="1.1" xmlns="http://www.w3.org/2000/svg">
<g id="#3b365aff">
<path fill="#3b365a" opacity="1.00" d=" M 103.08 114.00 C 105.97 110.05 108.14 105.40 112.06 102.32 C 114.00 101.86 115.86 102.82 117.63 103.44 C 145.20 110.79 172.09 120.47 199.38 128.73 C 199.01 130.21 198.67 131.70 198.52 133.22 C 198.41 136.46 196.55 139.23 195.04 141.98 C 192.06 147.08 188.95 152.10 186.17 157.30 C 185.78 157.46 184.99 157.76 184.59 157.92 C 177.76 150.23 168.75 143.05 157.96 143.07 C 152.94 142.72 148.19 144.56 143.33 145.29 C 131.07 142.49 117.56 144.84 107.41 152.41 C 103.50 155.47 99.58 158.57 96.13 162.15 C 91.63 166.85 88.84 172.81 85.11 178.08 C 82.97 181.02 82.20 184.64 81.24 188.08 C 73.56 184.32 66.24 179.87 59.26 174.94 C 68.05 162.25 76.16 149.06 85.84 137.01 C 91.14 129.01 97.31 121.65 103.08 114.00 Z" />
<path fill="#3b365a" opacity="1.00" d=" M 234.01 162.82 C 234.77 162.79 236.29 162.72 237.05 162.69 C 240.72 167.81 247.73 164.76 252.95 165.21 C 252.77 166.25 252.60 167.28 252.42 168.31 C 250.98 168.71 249.55 169.13 248.11 169.54 C 250.32 169.38 252.51 169.76 254.50 170.75 C 254.52 172.16 254.95 173.94 253.17 174.49 C 247.80 175.22 242.60 172.65 238.27 169.71 C 236.36 169.05 233.31 169.32 232.55 167.05 C 233.00 165.63 233.51 164.23 234.01 162.82 Z" />
<path fill="#3b365a" opacity="1.00" d=" M 171.60 191.90 C 173.92 189.52 177.39 189.09 180.24 190.83 L 180.10 191.89 C 176.68 191.21 173.63 192.62 171.01 194.68 C 171.16 193.99 171.45 192.60 171.60 191.90 Z" />
<path fill="#3b365a" opacity="1.00" d=" M 175.57 199.65 C 177.53 198.54 180.15 198.26 181.84 200.02 C 183.94 202.61 184.25 206.63 182.28 209.39 C 176.40 211.97 173.28 204.07 175.57 199.65 Z" />
<path fill="#3b365a" opacity="1.00" d=" M 142.07 212.56 C 142.09 209.72 144.18 207.99 146.86 207.64 C 151.29 209.50 152.54 215.36 150.30 219.35 C 148.52 219.49 146.49 220.28 144.91 219.11 C 142.90 217.56 142.58 214.86 142.07 212.56 Z" />
<path fill="#3b365a" opacity="1.00" d=" M 236.96 313.91 C 243.97 310.34 251.83 308.78 259.55 307.77 C 270.73 310.22 281.24 314.93 291.93 318.92 C 296.55 320.55 300.87 322.87 305.28 324.97 C 305.54 326.66 306.12 328.39 305.65 330.10 C 301.25 335.21 297.14 340.63 291.76 344.79 C 285.49 349.58 279.59 354.90 272.83 359.01 C 259.57 367.61 245.50 375.12 233.72 385.79 C 233.43 386.00 232.86 386.42 232.58 386.62 C 224.91 392.34 216.52 397.03 209.03 402.96 C 206.32 405.16 203.88 407.72 200.90 409.55 C 197.94 411.02 196.99 407.27 195.70 405.44 C 188.24 391.36 183.45 376.10 177.83 361.25 C 177.80 360.48 177.74 358.96 177.71 358.20 C 182.58 354.33 187.63 350.73 191.91 346.18 C 200.24 339.44 207.99 331.97 216.82 325.85 C 223.26 321.43 230.03 317.50 236.96 313.91 Z" />
</g>
<g id="#3a2920ff">
<path fill="#3a2920" opacity="1.00" d=" M 199.38 128.73 C 199.97 129.84 200.33 131.05 200.83 132.21 C 209.66 144.58 221.53 154.32 234.01 162.82 C 233.51 164.23 233.00 165.63 232.55 167.05 L 232.30 167.78 C 219.58 157.94 205.71 148.10 198.52 133.22 C 198.67 131.70 199.01 130.21 199.38 128.73 Z" />
<path fill="#3a2920" opacity="1.00" d=" M 143.33 145.29 C 148.19 144.56 152.94 142.72 157.96 143.07 C 168.75 143.05 177.76 150.23 184.59 157.92 C 196.44 172.83 203.18 190.84 210.70 208.12 C 213.13 214.56 216.06 220.93 220.77 226.04 C 216.62 227.81 212.39 229.42 208.10 230.80 C 203.04 232.41 198.00 234.11 193.12 236.20 C 188.38 238.30 183.13 239.38 178.90 242.52 C 178.30 242.55 177.11 242.61 176.52 242.63 C 176.52 241.98 176.51 240.68 176.50 240.03 C 181.65 237.23 186.47 233.57 189.59 228.52 C 190.84 226.53 192.28 224.45 192.26 222.00 C 192.45 217.24 192.39 212.40 191.18 207.78 C 189.55 201.45 186.71 195.57 183.95 189.68 C 182.71 187.03 179.41 187.34 177.03 186.60 C 171.01 185.50 165.91 182.04 160.68 179.11 C 155.64 186.28 151.34 194.14 144.81 200.12 C 146.70 200.47 148.48 201.20 150.16 202.14 L 149.85 202.42 C 147.05 202.56 143.85 201.55 141.47 203.53 C 134.94 208.06 128.82 213.23 121.58 216.65 C 122.32 219.72 122.56 222.89 123.26 225.97 C 124.78 230.79 126.40 235.60 128.88 240.03 C 128.41 240.23 127.48 240.61 127.01 240.80 C 124.31 240.85 121.82 239.71 119.79 238.00 C 118.85 237.25 117.93 236.49 117.02 235.71 C 114.56 233.63 112.49 231.15 110.65 228.52 C 109.20 226.45 107.87 224.31 106.56 222.16 C 102.65 222.17 99.21 224.98 98.43 228.82 C 97.15 232.53 99.24 236.18 101.18 239.23 C 104.48 243.24 109.78 245.94 115.05 245.33 C 119.00 244.90 123.17 244.88 126.76 242.97 C 129.62 243.88 132.23 245.37 134.96 246.59 C 137.23 247.78 140.69 249.17 140.31 252.29 C 138.30 254.72 136.46 257.28 134.37 259.64 C 126.28 268.44 119.17 278.06 111.65 287.34 C 103.49 273.94 96.87 259.69 90.34 245.46 C 86.84 237.16 82.13 229.14 81.45 219.96 C 80.85 209.38 79.12 198.58 81.24 188.08 C 82.20 184.64 82.97 181.02 85.11 178.08 C 88.84 172.81 91.63 166.85 96.13 162.15 C 99.58 158.57 103.50 155.47 107.41 152.41 C 117.56 144.84 131.07 142.49 143.33 145.29 Z" />
<path fill="#3a2920" opacity="1.00" d=" M 248.39 251.66 C 264.59 259.80 282.11 265.38 300.10 267.77 C 302.15 268.03 304.30 268.36 305.81 269.94 C 300.91 274.57 297.34 280.44 292.09 284.72 C 282.93 284.55 274.42 280.08 265.86 277.13 C 269.84 280.70 274.37 283.59 279.04 286.15 C 280.88 287.02 281.79 289.09 281.39 291.06 C 273.93 295.69 265.93 299.40 258.92 304.75 L 258.19 303.99 C 253.44 299.00 249.13 293.60 244.58 288.42 C 239.19 282.21 232.55 275.66 232.44 266.85 C 237.34 263.98 242.75 262.16 247.77 259.54 C 250.39 258.41 249.38 254.94 248.74 252.85 L 248.39 251.66 Z" />
<path fill="#3a2920" opacity="1.00" d=" M 137.38 319.27 C 141.52 315.34 145.59 311.31 149.12 306.81 C 153.06 314.36 156.91 321.95 160.79 329.53 C 161.33 330.61 161.50 331.82 161.75 333.00 C 162.97 334.84 164.27 336.64 165.41 338.54 C 167.42 342.83 169.30 347.17 171.63 351.30 C 170.34 352.17 169.10 353.09 167.92 354.10 C 166.80 353.36 165.62 352.65 164.73 351.65 C 162.50 348.87 160.03 346.31 157.62 343.69 C 151.36 336.24 145.16 328.74 138.94 321.26 C 138.55 320.76 137.77 319.77 137.38 319.27 Z" />
</g>
<g id="#f0bd98ff">
<path fill="#f0bd98" opacity="1.00" d=" M 144.81 200.12 C 151.34 194.14 155.64 186.28 160.68 179.11 C 165.91 182.04 171.01 185.50 177.03 186.60 C 179.41 187.34 182.71 187.03 183.95 189.68 C 182.71 190.05 181.46 190.42 180.24 190.83 C 177.39 189.09 173.92 189.52 171.60 191.90 C 168.16 190.67 164.68 189.52 161.18 188.48 C 157.65 193.14 154.79 198.43 150.16 202.14 C 148.48 201.20 146.70 200.47 144.81 200.12 Z" />
<path fill="#f0bd98" opacity="1.00" d=" M 141.47 203.53 C 143.85 201.55 147.05 202.56 149.85 202.42 C 148.81 204.14 147.86 205.90 146.86 207.64 C 144.18 207.99 142.09 209.72 142.07 212.56 C 135.46 216.56 130.46 222.82 123.26 225.97 C 122.56 222.89 122.32 219.72 121.58 216.65 C 128.82 213.23 134.94 208.06 141.47 203.53 Z" />
<path fill="#f0bd98" opacity="1.00" d=" M 235.77 221.13 C 238.95 219.78 242.08 218.31 245.12 216.66 C 246.72 218.19 248.13 219.93 249.06 221.96 C 252.76 229.44 255.93 237.18 259.03 244.93 C 255.43 247.04 251.57 248.65 248.02 250.86 C 244.70 240.65 240.18 230.90 235.77 221.13 Z" />
<path fill="#f0bd98" opacity="1.00" d=" M 106.59 233.99 C 106.17 231.27 108.53 229.56 110.65 228.52 C 112.49 231.15 114.56 233.63 117.02 235.71 C 113.61 236.12 108.53 238.14 106.59 233.99 Z" />
<path fill="#f0bd98" opacity="1.00" d=" M 119.79 238.00 C 121.82 239.71 124.31 240.85 127.01 240.80 C 126.95 241.34 126.82 242.42 126.76 242.97 C 123.17 244.88 119.00 244.90 115.05 245.33 C 109.78 245.94 104.48 243.24 101.18 239.23 C 104.91 238.55 108.29 240.58 111.94 240.77 C 114.88 241.11 117.47 239.59 119.79 238.00 Z" />
<path fill="#f0bd98" opacity="1.00" d=" M 157.72 245.63 C 164.31 245.16 170.60 242.92 176.50 240.03 C 176.51 240.68 176.52 241.98 176.52 242.63 C 177.11 242.61 178.30 242.55 178.90 242.52 C 179.18 244.57 179.39 246.63 179.56 248.70 C 173.18 251.30 166.96 254.56 159.97 255.21 C 154.53 256.24 149.00 255.34 143.55 254.89 C 142.47 254.01 141.39 253.15 140.31 252.29 C 140.69 249.17 137.23 247.78 134.96 246.59 L 134.46 245.30 C 142.09 246.70 150.13 247.97 157.72 245.63 Z" />
<path fill="#f0bd98" opacity="1.00" d=" M 109.42 297.76 C 109.76 297.55 110.44 297.14 110.78 296.93 C 116.88 304.28 122.98 311.62 129.22 318.84 C 128.97 319.28 128.72 319.72 128.48 320.16 C 126.96 322.85 124.74 325.05 122.63 327.28 C 115.79 320.60 110.02 312.96 103.80 305.73 L 103.37 305.21 C 105.54 302.86 106.83 299.69 109.42 297.76 Z" />
<path fill="#f0bd98" opacity="1.00" d=" M 233.72 385.79 C 245.50 375.12 259.57 367.61 272.83 359.01 C 275.82 361.00 278.29 363.73 281.51 365.39 C 283.66 366.53 285.71 367.89 287.57 369.47 C 278.08 374.82 267.51 378.05 258.28 383.86 C 254.93 382.14 252.66 378.33 249.16 377.25 C 244.26 380.53 238.90 383.00 233.72 385.79 Z" />
<path fill="#f0bd98" opacity="1.00" d=" M 209.03 402.96 C 216.52 397.03 224.91 392.34 232.58 386.62 C 233.83 389.81 236.09 392.42 237.78 395.36 C 229.53 399.86 221.66 405.30 215.12 412.09 L 214.83 412.39 C 212.89 409.25 210.89 406.14 209.03 402.96 Z" />
</g>
<g id="#f8d5baff">
<path fill="#f8d5ba" opacity="1.00" d=" M 308.31 181.54 C 312.38 180.25 316.27 182.90 319.14 185.52 C 323.16 189.05 323.95 194.65 325.25 199.55 C 326.36 203.47 324.29 207.28 322.42 210.59 C 320.51 212.46 317.74 213.05 315.49 214.39 C 305.98 220.19 295.53 224.23 285.90 229.83 C 276.99 234.95 268.02 239.96 259.03 244.93 C 255.93 237.18 252.76 229.44 249.06 221.96 C 248.13 219.93 246.72 218.19 245.12 216.66 C 248.40 215.37 251.35 213.39 254.33 211.52 C 258.58 215.67 265.35 213.59 269.79 210.78 C 274.79 208.41 278.91 203.92 279.50 198.24 L 279.61 197.78 C 283.18 196.92 286.16 194.59 289.61 193.37 C 296.51 190.55 301.84 185.09 308.31 181.54 Z" />
<path fill="#f8d5ba" opacity="1.00" d=" M 161.18 188.48 C 164.68 189.52 168.16 190.67 171.60 191.90 C 171.45 192.60 171.16 193.99 171.01 194.68 C 173.63 192.62 176.68 191.21 180.10 191.89 L 180.24 190.83 C 181.46 190.42 182.71 190.05 183.95 189.68 C 186.71 195.57 189.55 201.45 191.18 207.78 C 185.00 212.94 185.75 222.17 189.59 228.52 C 186.47 233.57 181.65 237.23 176.50 240.03 C 170.60 242.92 164.31 245.16 157.72 245.63 C 158.14 244.94 158.99 243.55 159.42 242.86 C 158.20 236.98 152.88 232.48 147.04 231.63 C 142.55 231.42 138.11 233.67 135.10 236.90 C 132.98 239.25 133.56 242.56 134.46 245.30 L 134.96 246.59 C 132.23 245.37 129.62 243.88 126.76 242.97 C 126.82 242.42 126.95 241.34 127.01 240.80 C 127.48 240.61 128.41 240.23 128.88 240.03 C 126.40 235.60 124.78 230.79 123.26 225.97 C 130.46 222.82 135.46 216.56 142.07 212.56 C 142.58 214.86 142.90 217.56 144.91 219.11 C 146.49 220.28 148.52 219.49 150.30 219.35 C 152.54 215.36 151.29 209.50 146.86 207.64 C 147.86 205.90 148.81 204.14 149.85 202.42 L 150.16 202.14 C 154.79 198.43 157.65 193.14 161.18 188.48 M 175.57 199.65 C 173.28 204.07 176.40 211.97 182.28 209.39 C 184.25 206.63 183.94 202.61 181.84 200.02 C 180.15 198.26 177.53 198.54 175.57 199.65 M 160.88 225.73 C 159.29 226.39 158.95 228.68 159.97 229.94 C 161.95 232.47 164.97 233.93 167.95 234.97 C 171.76 236.12 175.56 234.52 179.04 233.06 C 181.84 229.69 181.82 225.10 182.33 220.97 C 182.60 218.69 179.85 217.64 178.03 218.39 C 172.14 220.38 166.27 222.59 160.88 225.73 Z" />
<path fill="#f8d5ba" opacity="1.00" d=" M 98.43 228.82 C 99.21 224.98 102.65 222.17 106.56 222.16 C 107.87 224.31 109.20 226.45 110.65 228.52 C 108.53 229.56 106.17 231.27 106.59 233.99 C 108.53 238.14 113.61 236.12 117.02 235.71 C 117.93 236.49 118.85 237.25 119.79 238.00 C 117.47 239.59 114.88 241.11 111.94 240.77 C 108.29 240.58 104.91 238.55 101.18 239.23 C 99.24 236.18 97.15 232.53 98.43 228.82 Z" />
<path fill="#f8d5ba" opacity="1.00" d=" M 159.97 255.21 C 166.96 254.56 173.18 251.30 179.56 248.70 C 177.03 256.58 168.76 260.73 160.98 261.34 C 155.04 261.37 149.00 259.34 144.38 255.60 L 143.55 254.89 C 149.00 255.34 154.53 256.24 159.97 255.21 Z" />
<path fill="#f8d5ba" opacity="1.00" d=" M 103.80 305.73 C 110.02 312.96 115.79 320.60 122.63 327.28 C 117.28 332.97 113.64 339.96 109.04 346.22 C 100.78 358.30 92.92 370.64 85.36 383.18 C 83.36 384.96 80.91 387.15 78.00 386.00 C 67.50 384.52 59.52 373.73 60.50 363.32 C 64.61 358.14 68.46 352.76 72.39 347.44 C 75.39 342.79 79.52 338.99 82.53 334.34 L 82.86 334.29 C 87.56 333.60 92.65 332.78 96.15 329.25 C 101.25 324.75 103.34 317.19 100.80 310.80 L 100.51 309.98 C 101.57 308.54 102.65 307.11 103.80 305.73 Z" />
<path fill="#f8d5ba" opacity="1.00" d=" M 258.28 383.86 C 267.51 378.05 278.08 374.82 287.57 369.47 C 300.82 378.84 313.51 389.03 327.20 397.78 C 329.28 399.18 331.02 401.01 332.87 402.69 C 327.11 402.47 320.69 404.45 317.88 409.90 C 315.33 413.68 316.71 418.30 318.17 422.20 C 315.97 423.08 313.28 424.21 311.09 422.69 C 302.72 416.85 294.86 410.30 286.30 404.74 C 276.62 398.24 267.57 390.88 258.28 383.86 Z" />
<path fill="#f8d5ba" opacity="1.00" d=" M 215.12 412.09 C 221.66 405.30 229.53 399.86 237.78 395.36 C 242.38 401.38 246.71 407.63 251.87 413.20 C 259.26 422.94 266.51 432.84 275.13 441.55 C 277.65 442.44 279.97 443.77 282.38 444.91 C 283.13 447.66 282.15 450.43 280.45 452.60 C 273.72 448.09 264.13 449.70 259.12 456.02 C 256.26 458.81 256.12 462.95 256.15 466.68 C 254.24 466.57 251.94 467.14 250.43 465.62 C 241.10 453.81 232.32 441.45 224.72 428.41 C 221.72 422.85 218.23 417.58 215.12 412.09 Z" />
</g>
<g id="#f29c85ff">
<path fill="#f29c85" opacity="1.00" d=" M 274.46 200.29 C 276.08 199.50 277.65 198.44 279.50 198.24 C 278.91 203.92 274.79 208.41 269.79 210.78 C 265.35 213.59 258.58 215.67 254.33 211.52 C 260.60 207.04 267.59 203.73 274.46 200.29 Z" />
<path fill="#f29c85" opacity="1.00" d=" M 191.18 207.78 C 192.39 212.40 192.45 217.24 192.26 222.00 C 192.28 224.45 190.84 226.53 189.59 228.52 C 185.75 222.17 185.00 212.94 191.18 207.78 Z" />
<path fill="#f29c85" opacity="1.00" d=" M 135.10 236.90 C 138.11 233.67 142.55 231.42 147.04 231.63 C 152.88 232.48 158.20 236.98 159.42 242.86 C 158.99 243.55 158.14 244.94 157.72 245.63 C 150.13 247.97 142.09 246.70 134.46 245.30 C 133.56 242.56 132.98 239.25 135.10 236.90 Z" />
<path fill="#f29c85" opacity="1.00" d=" M 91.34 322.39 C 94.55 318.45 97.23 314.12 100.34 310.09 L 100.80 310.80 C 103.34 317.19 101.25 324.75 96.15 329.25 C 92.65 332.78 87.56 333.60 82.86 334.29 C 84.71 329.71 88.37 326.24 91.34 322.39 Z" />
<path fill="#f29c85" opacity="1.00" d=" M 317.88 409.90 C 320.69 404.45 327.11 402.47 332.87 402.69 C 334.74 406.51 331.61 410.44 328.85 412.86 C 325.15 415.82 322.10 419.54 318.17 422.20 C 316.71 418.30 315.33 413.68 317.88 409.90 Z" />
<path fill="#f29c85" opacity="1.00" d=" M 259.12 456.02 C 264.13 449.70 273.72 448.09 280.45 452.60 C 272.61 457.71 264.12 461.76 256.15 466.68 C 256.12 462.95 256.26 458.81 259.12 456.02 Z" />
</g>
<g id="#b35140fe">
<path fill="#b35140" opacity="1.00" d=" M 160.88 225.73 C 166.27 222.59 172.14 220.38 178.03 218.39 C 179.85 217.64 182.60 218.69 182.33 220.97 C 181.82 225.10 181.84 229.69 179.04 233.06 C 175.56 234.52 171.76 236.12 167.95 234.97 C 164.97 233.93 161.95 232.47 159.97 229.94 C 158.95 228.68 159.29 226.39 160.88 225.73 Z" />
</g>
<g id="#fef2f4ff">
<path fill="#fef2f4" opacity="1.00" d=" M 220.77 226.04 C 225.79 224.45 230.35 221.25 235.77 221.13 C 240.18 230.90 244.70 240.65 248.02 250.86 C 248.27 251.51 248.51 252.17 248.74 252.85 C 249.38 254.94 250.39 258.41 247.77 259.54 C 242.75 262.16 237.34 263.98 232.44 266.85 C 232.55 275.66 239.19 282.21 244.58 288.42 C 249.13 293.60 253.44 299.00 258.19 303.99 C 258.47 304.41 259.03 305.25 259.30 305.67 C 257.43 307.16 254.76 307.95 252.43 307.35 C 247.84 305.15 243.28 302.18 238.00 302.21 C 233.42 302.56 229.47 305.26 225.83 307.83 C 213.94 316.81 203.23 327.35 194.13 339.15 C 192.48 341.13 192.17 343.72 191.91 346.18 C 187.63 350.73 182.58 354.33 177.71 358.20 C 177.74 358.96 177.80 360.48 177.83 361.25 C 177.59 360.15 177.38 359.05 177.20 357.95 C 174.12 357.07 173.10 353.76 171.63 351.30 C 169.30 347.17 167.42 342.83 165.41 338.54 C 166.06 332.95 164.19 327.50 164.08 321.93 C 163.87 314.42 160.42 307.55 157.03 301.02 C 155.15 296.59 148.86 296.83 145.78 299.82 C 139.40 305.33 134.01 311.93 129.22 318.84 C 122.98 311.62 116.88 304.28 110.78 296.93 C 110.44 297.14 109.76 297.55 109.42 297.76 C 109.97 296.13 109.40 294.48 109.21 292.85 C 109.48 290.84 110.43 288.94 111.65 287.34 C 119.17 278.06 126.28 268.44 134.37 259.64 C 136.20 259.78 138.10 260.58 139.92 260.00 C 141.74 258.93 142.94 257.10 144.38 255.60 C 149.00 259.34 155.04 261.37 160.98 261.34 C 168.76 260.73 177.03 256.58 179.56 248.70 C 190.86 246.53 201.37 240.21 208.10 230.80 C 212.39 229.42 216.62 227.81 220.77 226.04 Z" />
</g>
<g id="#e8dee2ff">
<path fill="#e8dee2" opacity="1.00" d=" M 193.12 236.20 C 198.00 234.11 203.04 232.41 208.10 230.80 C 201.37 240.21 190.86 246.53 179.56 248.70 C 179.39 246.63 179.18 244.57 178.90 242.52 C 183.13 239.38 188.38 238.30 193.12 236.20 Z" />
<path fill="#e8dee2" opacity="1.00" d=" M 134.37 259.64 C 136.46 257.28 138.30 254.72 140.31 252.29 C 141.39 253.15 142.47 254.01 143.55 254.89 L 144.38 255.60 C 142.94 257.10 141.74 258.93 139.92 260.00 C 138.10 260.58 136.20 259.78 134.37 259.64 Z" />
<path fill="#e8dee2" opacity="1.00" d=" M 145.78 299.82 C 148.86 296.83 155.15 296.59 157.03 301.02 C 160.42 307.55 163.87 314.42 164.08 321.93 C 164.19 327.50 166.06 332.95 165.41 338.54 C 164.27 336.64 162.97 334.84 161.75 333.00 C 161.50 331.82 161.33 330.61 160.79 329.53 C 156.91 321.95 153.06 314.36 149.12 306.81 C 145.59 311.31 141.52 315.34 137.38 319.27 C 137.77 319.77 138.55 320.76 138.94 321.26 C 137.28 322.59 135.29 324.25 133.00 323.76 C 131.42 322.65 130.02 321.31 128.48 320.16 C 128.72 319.72 128.97 319.28 129.22 318.84 C 134.01 311.93 139.40 305.33 145.78 299.82 Z" />
<path fill="#e8dee2" opacity="1.00" d=" M 225.83 307.83 C 229.47 305.26 233.42 302.56 238.00 302.21 C 243.28 302.18 247.84 305.15 252.43 307.35 C 254.76 307.95 257.43 307.16 259.30 305.67 L 259.90 305.21 C 259.82 305.85 259.64 307.13 259.55 307.77 C 251.83 308.78 243.97 310.34 236.96 313.91 C 230.03 317.50 223.26 321.43 216.82 325.85 C 207.99 331.97 200.24 339.44 191.91 346.18 C 192.17 343.72 192.48 341.13 194.13 339.15 C 203.23 327.35 213.94 316.81 225.83 307.83 Z" />
<path fill="#e8dee2" opacity="1.00" d=" M 157.62 343.69 C 160.03 346.31 162.50 348.87 164.73 351.65 C 160.61 351.34 158.63 347.22 157.62 343.69 Z" />
</g>
</svg>
